<svg width="24" height="24" viewBox="0 0 24 24" fill="none" xmlns="http://www.w3.org/2000/svg">
<g clip-path="url(#clip0_368_1067)">
<path d="M8.625 0C10.0734 0 11.25 1.17656 11.25 2.625V21.375C11.25 22.8234 10.0734 24 8.625 24C7.27031 24 6.15469 22.9734 6.01406 21.6516C5.77031 21.7172 5.5125 21.75 5.25 21.75C3.59531 21.75 2.25 20.4047 2.25 18.75C2.25 18.4031 2.31094 18.0656 2.41875 17.7562C1.00312 17.2219 0 15.8531 0 14.25C0 12.7547 0.876562 11.4609 2.14687 10.8609C1.73906 10.35 1.5 9.70312 1.5 9C1.5 7.56094 2.5125 6.36094 3.8625 6.06562C3.7875 5.80781 3.75 5.53125 3.75 5.25C3.75 3.84844 4.71563 2.66719 6.01406 2.33906C6.15469 1.02656 7.27031 0 8.625 0ZM15.375 0C16.7297 0 17.8406 1.02656 17.9859 2.33906C19.2891 2.66719 20.25 3.84375 20.25 5.25C20.25 5.53125 20.2125 5.80781 20.1375 6.06562C21.4875 6.35625 22.5 7.56094 22.5 9C22.5 9.70312 22.2609 10.35 21.8531 10.8609C23.1234 11.4609 24 12.7547 24 14.25C24 15.8531 22.9969 17.2219 21.5812 17.7562C21.6891 18.0656 21.75 18.4031 21.75 18.75C21.75 20.4047 20.4047 21.75 18.75 21.75C18.4875 21.75 18.2297 21.7172 17.9859 21.6516C17.8453 22.9734 16.7297 24 15.375 24C13.9266 24 12.75 22.8234 12.75 21.375V2.625C12.75 1.17656 13.9266 0 15.375 0Z" fill="#EF8354"/>
</g>
<defs>
<clipPath id="clip0_368_1067">
<path d="M0 0H24V24H0V0Z" fill="white"/>
</clipPath>
</defs>
</svg>
