<svg width="22" height="6" viewBox="0 0 22 6" fill="none" xmlns="http://www.w3.org/2000/svg">
<path fill-rule="evenodd" clip-rule="evenodd" d="M11 0C9.34315 0 8 1.34315 8 3C8 4.65685 9.34315 6 11 6C12.6569 6 14 4.65685 14 3C14 1.34315 12.6569 0 11 0ZM11 4.5C10.1716 4.5 9.5 3.82843 9.5 3C9.5 2.17157 10.1716 1.5 11 1.5C11.8284 1.5 12.5 2.17157 12.5 3C12.5 3.82843 11.8284 4.5 11 4.5ZM3.5 0C1.84315 0 0.5 1.34315 0.5 3C0.5 4.65685 1.84315 6 3.5 6C5.15685 6 6.5 4.65685 6.5 3C6.5 1.34315 5.15685 0 3.5 0ZM3.5 4.5C2.67157 4.5 2 3.82843 2 3C2 2.17157 2.67157 1.5 3.5 1.5C4.32843 1.5 5 2.17157 5 3C5 3.82843 4.32843 4.5 3.5 4.5ZM18.5 0C16.8431 0 15.5 1.34315 15.5 3C15.5 4.65685 16.8431 6 18.5 6C20.1569 6 21.5 4.65685 21.5 3C21.5 1.34315 20.1569 0 18.5 0ZM18.5 4.5C17.6716 4.5 17 3.82843 17 3C17 2.17157 17.6716 1.5 18.5 1.5C19.3284 1.5 20 2.17157 20 3C20 3.82843 19.3284 4.5 18.5 4.5Z" fill="white"/>
</svg>
