<svg width="500" height="500" viewBox="0 0 500 500" fill="none" xmlns="http://www.w3.org/2000/svg">
<path d="M283.506 421.13C306.358 421.13 324.884 410.434 324.884 397.24C324.884 384.046 306.358 373.35 283.506 373.35C260.654 373.35 242.128 384.046 242.128 397.24C242.128 410.434 260.654 421.13 283.506 421.13Z" fill="white"/>
<path d="M391.159 406.984C414.011 406.984 432.537 396.288 432.537 383.094C432.537 369.9 414.011 359.204 391.159 359.204C368.307 359.204 349.781 369.9 349.781 383.094C349.781 396.288 368.307 406.984 391.159 406.984Z" fill="white"/>
<path d="M164.821 456.951C187.673 456.951 206.199 446.255 206.199 433.061C206.199 419.867 187.673 409.171 164.821 409.171C141.969 409.171 123.443 419.867 123.443 433.061C123.443 446.255 141.969 456.951 164.821 456.951Z" fill="white"/>
<path d="M96.982 354.499C96.982 354.499 95.897 329.237 85.311 315.183C74.725 301.129 61.739 299.101 55.296 303.057C50.601 305.94 51.234 314.497 59.362 320.09C67.49 325.683 83.159 339.902 85.607 349.193L96.982 354.499Z" fill="#1C170D"/>
<path d="M90.032 350.819C89.676 350.797 89.401 350.492 89.418 350.134C90.506 327.214 70.393 312.923 64.947 310.35C64.62 310.195 64.48 309.804 64.634 309.478C64.789 309.149 65.18 309.015 65.506 309.165C71.119 311.817 91.848 326.551 90.727 350.196C90.709 350.558 90.402 350.837 90.042 350.82C90.042 350.82 90.035 350.819 90.032 350.819Z" fill="black"/>
<path d="M91.952 346.524C90.481 346.313 89.057 346.051 88.089 344.985C86.856 343.627 86.961 341.561 86.393 339.817C85.463 336.958 82.642 335.021 79.699 334.406C76.756 333.791 73.698 334.296 70.778 335.013C64.88 336.461 59.21 332.83 53.298 333.259C51.187 333.412 49.043 333.914 47.312 335.132C45.581 336.35 44.328 338.382 44.447 340.495C44.547 342.257 45.569 343.865 46.882 345.045C48.195 346.225 49.787 347.04 51.36 347.842C53.089 348.723 54.817 349.605 56.546 350.486C57.403 350.923 58.276 351.371 58.957 352.05C60.239 353.328 61.128 355.801 60.769 357.575C60.369 359.554 58.745 361.099 58.263 363.059C57.63 365.633 59.202 368.382 61.459 369.772C63.716 371.163 66.495 371.425 69.142 371.272C71.788 371.119 74.408 370.59 77.058 370.543C78.844 370.511 80.704 370.723 82.221 371.665C84.072 372.814 85.149 374.881 85.849 376.944C86.299 378.271 86.646 379.669 87.472 380.8C88.328 381.972 89.632 382.752 90.995 383.25C93.608 384.206 96.645 384.235 99.253 383.235C101.439 382.397 102.509 379.926 103.325 377.788C104.145 375.642 104.534 373.081 104.476 370.804C104.325 364.854 102.985 358.434 100.408 353.063C99.177 350.499 97.39 347.94 94.688 347.053C93.826 346.771 92.88 346.657 91.952 346.524Z" fill="#D9D9D9"/>
<path d="M97.681 373.989C97.439 373.989 97.214 373.838 97.13 373.598C90.965 355.911 61.767 340.516 51.091 338.752C50.773 338.7 50.557 338.4 50.61 338.081C50.662 337.762 50.97 337.545 51.281 337.6C62.16 339.397 91.928 355.126 98.232 373.212C98.339 373.516 98.178 373.849 97.874 373.955C97.81 373.979 97.745 373.989 97.681 373.989Z" fill="black"/>
<path d="M71.444 364.305C71.27 364.305 71.096 364.226 70.981 364.077C70.785 363.822 70.833 363.454 71.088 363.258C71.354 363.054 77.697 358.264 87.305 358.048H87.318C87.635 358.048 87.895 358.301 87.902 358.619C87.909 358.941 87.653 359.209 87.331 359.215C78.103 359.421 71.862 364.135 71.8 364.183C71.694 364.265 71.568 364.305 71.444 364.305Z" fill="black"/>
<path d="M97.9878 387.679C96.8198 387.004 95.8718 385.291 95.8718 383.853L95.8708 175.456C95.8708 174.017 96.8808 172.268 98.1268 171.549L343.297 30.0101C344.543 29.2911 346.5 29.2551 347.669 29.9291C348.838 30.6041 349.785 32.3171 349.785 33.7551L349.786 242.152C349.786 243.59 348.776 245.34 347.53 246.059L102.358 387.599C101.113 388.318 99.1558 388.354 97.9878 387.679Z" fill="#D9D9D9"/>
<path d="M101.93 387.794C101.899 387.804 101.867 387.825 101.836 387.825C101.763 387.867 101.69 387.888 101.617 387.908C101.565 387.929 101.513 387.95 101.45 387.96C101.356 387.991 101.252 388.022 101.137 388.033C101.074 388.054 101.002 388.075 100.929 388.075C100.825 388.096 100.7 388.117 100.585 388.127C99.658 388.231 98.689 388.085 97.991 387.679C96.814 387.002 95.876 385.293 95.876 383.855L95.866 202.172L100.106 204.62V386.293C100.106 387.314 100.616 387.908 101.356 387.908C101.46 387.908 101.554 387.898 101.658 387.866C101.679 387.866 101.689 387.866 101.71 387.856C101.784 387.846 101.857 387.825 101.93 387.794Z" fill="#D9D9D9"/>
<path opacity="0.81" d="M101.93 387.794C101.899 387.804 101.867 387.825 101.836 387.825C101.763 387.867 101.69 387.888 101.617 387.908C101.565 387.929 101.513 387.95 101.45 387.96C101.356 387.991 101.252 388.022 101.137 388.033C101.074 388.054 101.002 388.075 100.929 388.075C100.825 388.096 100.7 388.117 100.585 388.127C99.658 388.231 98.689 388.085 97.991 387.679C96.814 387.002 95.876 385.293 95.876 383.855L95.866 202.172L100.106 204.62V386.293C100.106 387.314 100.616 387.908 101.356 387.908C101.46 387.908 101.554 387.898 101.658 387.866C101.679 387.866 101.689 387.866 101.71 387.856C101.784 387.846 101.857 387.825 101.93 387.794Z" fill="#D9D9D9"/>
<path d="M100.107 204.621L95.867 202.172V242.523L100.107 244.991V204.621Z" fill="#D9D9D9"/>
<path opacity="0.15" d="M100.107 204.621L95.867 202.172V242.523L100.107 244.991V204.621Z" fill="black"/>
<path d="M100.763 175.678C100.357 176.376 100.107 177.178 100.107 177.897V204.62L95.867 202.172V175.459C95.867 175.365 95.867 175.282 95.877 175.188C95.898 175 95.929 174.813 95.971 174.625C96.086 174.156 96.284 173.667 96.534 173.229L100.763 175.678Z" fill="black"/>
<path d="M349.78 33.7519V45.8059L170.067 149.559C168.827 150.278 167.816 149.694 167.816 148.257V143.694C167.816 142.256 166.806 141.673 165.555 142.392L110.826 173.991C109.576 174.71 108.565 176.46 108.565 177.898V182.461C108.565 183.899 107.554 185.649 106.315 186.368L100.106 189.952V177.898C100.106 176.46 101.117 174.71 102.356 173.991L347.53 32.4489C348.77 31.7309 349.78 32.3139 349.78 33.7519Z" fill="#EF8354"/>
<path d="M349.791 242.148C349.791 243.586 348.78 245.336 347.53 246.055L102.357 387.596C101.117 388.315 100.107 387.731 100.107 386.294V189.952L106.316 186.368C107.556 185.649 109.577 174.71 110.827 173.991L164.64 142.92C165.89 142.201 168.827 150.278 170.067 149.559L349.78 45.8062V60.4752L349.791 242.148Z" fill="#D9D9D9"/>
<path opacity="0.9" d="M349.791 242.148C349.791 243.586 348.78 245.336 347.53 246.055L102.357 387.596C101.117 388.315 100.107 387.731 100.107 386.294V189.952L106.316 186.368C107.556 185.649 109.577 174.71 110.827 173.991L164.64 142.92C165.89 142.201 168.827 150.278 170.067 149.559L349.78 45.8062V60.4752L349.791 242.148Z" fill="black"/>
<g opacity="0.4">
<path d="M348.78 47.5382V60.4752L348.79 242.148C348.79 243.229 347.968 244.649 347.029 245.189L101.856 386.731C101.587 386.887 101.415 386.904 101.354 386.904C101.119 386.904 101.107 386.396 101.107 386.294V190.529L106.818 187.233C107.704 186.719 108.264 184.97 109.525 180.471C110.092 178.447 110.943 175.41 111.401 174.814L164.768 144.001C165.23 144.519 166.004 145.881 166.493 146.742C167.935 149.28 168.742 150.604 169.9 150.604C170.135 150.604 170.366 150.542 170.568 150.425L348.78 47.5382ZM349.78 45.8062L170.067 149.559C170.014 149.59 169.958 149.604 169.899 149.604C168.638 149.604 166.078 142.874 164.809 142.874C164.75 142.874 164.693 142.889 164.64 142.919L110.827 173.99C109.577 174.709 107.556 185.648 106.316 186.367L100.107 189.951V386.293C100.107 387.313 100.615 387.903 101.354 387.903C101.656 387.903 101.997 387.804 102.357 387.595L347.53 246.055C348.78 245.336 349.791 243.586 349.791 242.148L349.781 60.4752V45.8062H349.78Z" fill="#D9D9D9"/>
</g>
<path d="M100.107 204.621V244.991L349.78 100.862V60.4751L100.107 204.621Z" fill="white"/>
<path d="M349.78 45.8062V60.4752L100.107 204.621V189.952L104.744 187.266C105.984 186.547 106.401 185.454 106.994 183.359L108.566 177.898C109.062 176.002 109.577 174.71 110.827 173.991L164.64 142.92C165.89 142.201 166.866 142.122 167.816 143.694L169.746 147.195C170.454 148.418 170.808 149.137 172.047 148.418L349.78 45.8062Z" fill="white"/>
<path d="M339.205 41.3109C340.773 40.4059 342.044 41.1399 342.044 42.9499C342.044 44.7599 340.773 46.9609 339.205 47.8659C337.637 48.7709 336.367 48.0369 336.367 46.2269C336.366 44.4169 337.637 42.2159 339.205 41.3109Z" fill="#D9D9D9"/>
<path d="M328.986 47.203C330.554 46.298 331.824 47.032 331.824 48.842C331.824 50.652 330.553 52.853 328.986 53.758C327.418 54.663 326.147 53.929 326.147 52.119C326.147 50.309 327.418 48.108 328.986 47.203Z" fill="#D9D9D9"/>
<path d="M318.767 53.0951C320.335 52.1901 321.605 52.9241 321.605 54.7341C321.605 56.5441 320.334 58.7451 318.767 59.6501C317.199 60.5551 315.929 59.8211 315.929 58.0111C315.928 56.2011 317.199 54.0001 318.767 53.0951Z" fill="#D9D9D9"/>
<path opacity="0.5" d="M110.454 191.009L106.913 193.053L108.263 190.456C108.382 190.228 108.394 189.944 108.29 189.822C108.186 189.698 108.006 189.786 107.888 190.012L105.967 193.707C105.965 193.711 105.964 193.717 105.962 193.721C105.941 193.764 105.925 193.81 105.911 193.857C105.906 193.872 105.899 193.887 105.895 193.902C105.879 193.965 105.87 194.03 105.87 194.093C105.87 194.156 105.879 194.21 105.895 194.255C105.899 194.266 105.906 194.272 105.911 194.282C105.925 194.313 105.941 194.341 105.962 194.359C105.964 194.361 105.965 194.365 105.967 194.367L107.888 195.844C107.942 195.886 108.009 195.883 108.076 195.844C108.155 195.798 108.234 195.702 108.29 195.57C108.394 195.327 108.382 195.057 108.263 194.967L106.913 193.929L110.454 191.885C110.612 191.794 110.739 191.524 110.739 191.282C110.739 191.041 110.612 190.918 110.454 191.009Z" fill="#D9D9D9"/>
<path opacity="0.5" d="M113.412 189.301L116.953 187.257L115.603 186.219C115.485 186.128 115.472 185.858 115.576 185.616C115.68 185.373 115.86 185.252 115.978 185.342L117.899 186.819C117.901 186.821 117.902 186.825 117.904 186.827C117.925 186.845 117.941 186.873 117.955 186.904C117.96 186.914 117.967 186.92 117.971 186.931C117.986 186.976 117.996 187.03 117.996 187.093C117.996 187.156 117.987 187.221 117.971 187.284C117.967 187.3 117.96 187.314 117.955 187.329C117.94 187.377 117.925 187.423 117.904 187.466C117.902 187.47 117.901 187.476 117.899 187.48L115.978 191.175C115.924 191.279 115.857 191.353 115.79 191.392C115.711 191.438 115.632 191.433 115.576 191.366C115.472 191.244 115.484 190.959 115.603 190.732L116.953 188.135L113.412 190.18C113.254 190.271 113.127 190.148 113.127 189.906C113.127 189.662 113.254 189.392 113.412 189.301Z" fill="#D9D9D9"/>
<path opacity="0.5" d="M125.028 179.104C125.006 178.89 124.82 178.918 124.726 179.149L124.241 180.335C123.414 180.245 122.412 181.053 121.735 182.486C120.858 184.343 120.858 186.539 121.735 187.384C122.173 187.806 122.749 187.811 123.326 187.478C123.902 187.146 124.478 186.476 124.916 185.548C125.027 185.312 125.027 185.035 124.916 184.928C124.805 184.821 124.625 184.925 124.513 185.161C123.858 186.545 122.793 187.163 122.138 186.532C121.483 185.902 121.483 184.261 122.138 182.875C122.604 181.889 123.274 181.305 123.86 181.269L123.494 182.163C123.399 182.395 123.486 182.611 123.635 182.514L125.079 181.571C125.18 181.505 125.255 181.321 125.24 181.175L125.028 179.104Z" fill="#D9D9D9"/>
<path opacity="0.5" d="M163.088 149.615L164.379 146.882C164.532 146.559 164.532 146.178 164.379 146.031C164.226 145.884 163.979 146.027 163.827 146.35L162.536 149.083L161.245 147.841C161.092 147.694 160.845 147.837 160.692 148.16C160.539 148.483 160.539 148.864 160.692 149.011L161.983 150.253L160.692 152.986C160.539 153.309 160.539 153.69 160.692 153.837C160.768 153.911 160.868 153.911 160.968 153.854C161.068 153.796 161.168 153.68 161.244 153.518L162.535 150.785L163.826 152.027C163.902 152.101 164.002 152.101 164.102 152.044C164.202 151.986 164.302 151.87 164.378 151.708C164.531 151.385 164.531 151.004 164.378 150.857L163.088 149.615Z" fill="#D9D9D9"/>
<path d="M129.727 182.464V177.9C129.727 176.462 130.737 174.712 131.983 173.993L334.833 56.9383C336.079 56.2193 337.089 56.8023 337.089 58.2403V62.8043C337.089 64.2423 336.079 65.9923 334.833 66.7113L131.983 183.766C130.737 184.485 129.727 183.902 129.727 182.464Z" fill="black"/>
<path d="M331.764 66.967C331.703 66.967 331.647 66.955 331.598 66.935C331.436 66.868 331.277 66.679 331.316 66.351L331.542 64.461C331.543 64.452 331.544 64.447 331.546 64.445L330.631 63.784C330.504 63.693 330.433 63.541 330.43 63.357C330.426 63.088 330.56 62.801 330.765 62.643L332.09 61.621C332.118 61.599 332.158 61.543 332.181 61.471L332.773 59.529C332.87 59.21 333.105 58.984 333.358 58.965C333.539 58.949 333.705 59.05 333.787 59.223L334.321 60.358L335.522 59.897C335.705 59.828 335.894 59.871 336.016 60.009C336.183 60.198 336.19 60.522 336.033 60.815L335.075 62.614C335.04 62.68 335.028 62.746 335.033 62.78L335.259 64.407C335.299 64.693 335.159 64.982 335.002 65.141C334.87 65.275 334.711 65.339 334.556 65.319L333.371 65.172L332.218 66.713C332.072 66.9 331.906 66.967 331.764 66.967ZM331.024 63.335L331.938 63.995C332.089 64.105 332.16 64.3 332.132 64.532L331.945 66.091L332.933 64.834C333.074 64.652 333.257 64.562 333.441 64.584L334.627 64.731C334.608 64.711 334.68 64.575 334.668 64.491L334.442 62.862C334.42 62.696 334.458 62.505 334.548 62.336L335.505 60.54L334.408 60.96C334.175 61.048 333.943 60.955 333.839 60.732L333.345 59.684C333.343 59.689 333.341 59.695 333.34 59.701L332.748 61.644C332.692 61.827 332.584 61.99 332.452 62.092L331.127 63.113C331.066 63.161 331.028 63.274 331.024 63.335Z" fill="#D9D9D9"/>
<g opacity="0.5">
<path d="M339.749 56.3813C339.478 56.3813 339.216 56.2413 339.072 55.9903C338.856 55.6163 338.985 55.1383 339.358 54.9233L345.706 51.2583C346.081 51.0423 346.558 51.1703 346.773 51.5443C346.989 51.9183 346.86 52.3963 346.487 52.6113L340.139 56.2763C340.015 56.3473 339.881 56.3813 339.749 56.3813Z" fill="#D9D9D9"/>
<path d="M339.749 60.0475C339.478 60.0475 339.216 59.9075 339.072 59.6565C338.856 59.2825 338.985 58.8045 339.358 58.5895L345.706 54.9245C346.081 54.7065 346.558 54.8375 346.773 55.2105C346.989 55.5845 346.86 56.0625 346.487 56.2775L340.139 59.9425C340.015 60.0135 339.881 60.0475 339.749 60.0475Z" fill="#D9D9D9"/>
<path d="M339.749 63.7135C339.478 63.7135 339.216 63.5735 339.072 63.3225C338.856 62.9485 338.985 62.4705 339.358 62.2555L345.706 58.5905C346.081 58.3725 346.558 58.5035 346.773 58.8765C346.989 59.2505 346.86 59.7285 346.487 59.9435L340.139 63.6085C340.015 63.6805 339.881 63.7135 339.749 63.7135Z" fill="#D9D9D9"/>
</g>
<path d="M100.107 189.952V204.621L95.867 202.172V187.514L100.107 189.952Z" fill="#D9D9D9"/>
<path d="M271.478 131.002C271.381 131.058 271.29 131.069 271.205 131.034C271.132 130.992 271.096 130.908 271.096 130.781C271.096 130.725 271.108 130.655 271.132 130.571L275.524 114.464C275.56 114.303 275.627 114.145 275.724 113.99C275.833 113.815 275.979 113.675 276.161 113.57L278.148 112.423C278.33 112.318 278.47 112.293 278.567 112.349C278.664 112.391 278.737 112.468 278.785 112.581L283.177 123.617C283.189 123.68 283.195 123.739 283.195 123.796C283.195 123.922 283.159 124.048 283.086 124.174C283.013 124.301 282.928 124.392 282.831 124.448L281.245 125.363C281.075 125.461 280.948 125.493 280.863 125.458C280.79 125.402 280.741 125.339 280.717 125.268L279.86 123.196L274.449 126.321L273.592 129.382C273.568 129.48 273.513 129.603 273.428 129.75C273.355 129.877 273.234 129.989 273.064 130.087L271.478 131.002ZM275.086 123.533L279.223 121.144L277.145 115.842L275.086 123.533ZM289.926 120.562C289.221 120.969 288.632 121.169 288.158 121.162C287.697 121.148 287.314 121.011 287.01 120.751V121.53C287.01 121.67 286.968 121.814 286.883 121.961C286.81 122.101 286.706 122.21 286.573 122.287L285.133 123.118C285.012 123.189 284.909 123.199 284.823 123.15C284.738 123.101 284.696 123.006 284.696 122.866V108.937C284.696 108.796 284.738 108.653 284.823 108.505C284.909 108.358 285.012 108.249 285.133 108.179L286.682 107.285C286.816 107.208 286.919 107.197 286.992 107.253C287.077 107.302 287.119 107.397 287.119 107.537V112.208C287.423 111.626 287.8 111.079 288.249 110.567C288.711 110.034 289.27 109.578 289.926 109.2C290.57 108.828 291.128 108.631 291.602 108.61C292.076 108.589 292.471 108.719 292.787 109C293.115 109.259 293.364 109.641 293.534 110.146C293.704 110.651 293.795 111.251 293.807 111.945C293.819 112.191 293.825 112.419 293.825 112.629C293.825 112.826 293.819 113.054 293.807 113.313C293.783 114.057 293.686 114.786 293.515 115.501C293.345 116.203 293.102 116.869 292.787 117.5C292.471 118.132 292.076 118.71 291.602 119.236C291.128 119.748 290.57 120.19 289.926 120.562ZM289.251 118.7C289.774 118.398 290.181 118.037 290.472 117.616C290.764 117.181 290.97 116.718 291.092 116.227C291.226 115.729 291.305 115.221 291.329 114.702C291.353 114.267 291.353 113.846 291.329 113.439C291.305 112.948 291.226 112.531 291.092 112.187C290.97 111.837 290.764 111.619 290.472 111.535C290.181 111.437 289.774 111.539 289.251 111.84C288.766 112.121 288.371 112.475 288.067 112.903C287.763 113.331 287.533 113.787 287.375 114.271C287.217 114.74 287.132 115.189 287.119 115.617C287.107 115.877 287.101 116.154 287.101 116.448C287.101 116.729 287.107 116.992 287.119 117.237C287.144 117.658 287.223 118.04 287.356 118.384C287.502 118.707 287.727 118.914 288.031 119.005C288.346 119.089 288.753 118.987 289.251 118.7ZM300.044 114.72C299.072 115.281 298.252 115.558 297.584 115.551C296.928 115.537 296.424 115.274 296.072 114.762C295.732 114.243 295.537 113.521 295.489 112.595C295.476 112.349 295.47 112.044 295.47 111.679C295.47 111.315 295.476 111.003 295.489 110.743C295.537 109.747 295.738 108.797 296.09 107.892C296.454 106.966 296.965 106.117 297.621 105.346C298.289 104.567 299.097 103.905 300.044 103.357C300.992 102.81 301.793 102.544 302.449 102.558C303.118 102.565 303.628 102.824 303.98 103.336C304.345 103.827 304.551 104.543 304.6 105.483C304.612 105.728 304.618 106.033 304.618 106.398C304.618 106.763 304.612 107.075 304.6 107.334C304.551 108.316 304.351 109.267 303.998 110.185C303.658 111.097 303.154 111.942 302.486 112.721C301.83 113.492 301.016 114.159 300.044 114.72ZM300.044 112.637C300.688 112.265 301.186 111.746 301.538 111.08C301.891 110.399 302.085 109.593 302.121 108.66C302.134 108.442 302.14 108.165 302.14 107.829C302.14 107.492 302.134 107.222 302.121 107.019C302.085 106.142 301.891 105.567 301.538 105.293C301.186 105.02 300.688 105.069 300.044 105.441C299.4 105.812 298.902 106.338 298.55 107.019C298.198 107.699 298.003 108.499 297.967 109.417C297.955 109.635 297.949 109.912 297.949 110.249C297.949 110.585 297.955 110.855 297.967 111.059C298.003 111.949 298.198 112.532 298.55 112.805C298.902 113.065 299.4 113.008 300.044 112.637ZM310.154 108.883C309.413 109.311 308.769 109.493 308.222 109.43C307.688 109.346 307.275 109.037 306.983 108.504C306.692 107.957 306.546 107.2 306.546 106.232V100.319C306.546 100.179 306.588 100.035 306.673 99.8877C306.758 99.7404 306.862 99.6317 306.983 99.5616L308.587 98.6357C308.72 98.5586 308.824 98.5481 308.896 98.6042C308.981 98.6533 309.024 98.748 309.024 98.8882V104.675C309.024 106.414 309.686 106.901 311.01 106.137C311.642 105.772 312.14 105.253 312.504 104.58C312.881 103.9 313.069 103.153 313.069 102.339V96.5526C313.069 96.4123 313.112 96.2685 313.197 96.1212C313.282 95.974 313.385 95.8652 313.507 95.7951L315.11 94.8693C315.232 94.7991 315.335 94.7886 315.42 94.8377C315.505 94.8868 315.548 94.9815 315.548 95.1218V105.053C315.548 105.194 315.505 105.337 315.42 105.485C315.335 105.632 315.232 105.741 315.11 105.811L313.634 106.663C313.501 106.74 313.391 106.754 313.306 106.705C313.233 106.649 313.197 106.551 313.197 106.41V105.548C312.869 106.228 312.462 106.849 311.976 107.41C311.49 107.971 310.883 108.462 310.154 108.883ZM322.237 101.696C321.508 102.117 320.894 102.324 320.396 102.317C319.898 102.31 319.528 102.089 319.285 101.654C319.042 101.205 318.92 100.546 318.92 99.6762V94.8998L317.481 95.7309C317.359 95.8011 317.256 95.8116 317.171 95.7625C317.086 95.7134 317.043 95.6187 317.043 95.4784V94.2581C317.043 94.1178 317.086 93.974 317.171 93.8267C317.256 93.6794 317.359 93.5707 317.481 93.5006L318.92 92.6694V89.1765C318.92 89.0363 318.957 88.896 319.03 88.7557C319.115 88.6084 319.224 88.4962 319.358 88.4191L320.834 87.5669C320.955 87.4967 321.058 87.4862 321.143 87.5353C321.228 87.5844 321.271 87.6791 321.271 87.8194V91.3122L323.549 89.9971C323.67 89.927 323.774 89.9164 323.859 89.9655C323.944 90.0146 323.986 90.1093 323.986 90.2496V91.47C323.986 91.6103 323.944 91.754 323.859 91.9013C323.774 92.0486 323.67 92.1573 323.549 92.2275L321.271 93.5426V98.1086C321.271 98.6837 321.356 99.0835 321.526 99.3079C321.708 99.5253 322.018 99.5078 322.455 99.2553L323.713 98.5294C323.834 98.4592 323.938 98.4487 324.023 98.4978C324.108 98.5469 324.15 98.6416 324.15 98.7818V100.086C324.15 100.227 324.108 100.37 324.023 100.518C323.938 100.665 323.834 100.774 323.713 100.844L322.237 101.696ZM333.448 95.4338C332.707 95.8616 332.063 96.044 331.516 95.9809C330.981 95.8967 330.568 95.5881 330.277 95.0551C329.985 94.508 329.84 93.7505 329.84 92.7826V86.87C329.84 86.7297 329.882 86.5859 329.967 86.4387C330.052 86.2914 330.155 86.1826 330.277 86.1125L331.88 85.1867C332.014 85.1095 332.117 85.099 332.19 85.1551C332.275 85.2042 332.318 85.2989 332.318 85.4392V91.2255C332.318 92.9649 332.98 93.4524 334.304 92.6879C334.936 92.3231 335.434 91.8041 335.798 91.1308C336.175 90.4505 336.363 89.7035 336.363 88.8899V83.1035C336.363 82.9632 336.406 82.8195 336.491 82.6722C336.576 82.5249 336.679 82.4162 336.8 82.346L338.404 81.4202C338.525 81.35 338.629 81.3395 338.714 81.3886C338.799 81.4377 338.841 81.5324 338.841 81.6727V91.6042C338.841 91.7445 338.799 91.8882 338.714 92.0355C338.629 92.1828 338.525 92.2915 338.404 92.3617L336.928 93.2139C336.794 93.291 336.685 93.3051 336.6 93.256C336.527 93.1998 336.491 93.1017 336.491 92.9614V92.0987C336.163 92.779 335.756 93.3997 335.27 93.9609C334.784 94.522 334.176 95.0129 333.448 95.4338ZM344.838 88.8572C344.109 89.2781 343.484 89.5411 342.961 89.6463C342.451 89.7445 342.032 89.741 341.704 89.6358C341.376 89.5306 341.133 89.3763 340.975 89.1729C340.817 88.9695 340.732 88.7731 340.72 88.5837C340.708 88.4365 340.744 88.2962 340.829 88.1629C340.926 88.0086 341.03 87.8999 341.139 87.8368L342.579 87.0056C342.627 86.9776 342.67 86.96 342.706 86.953C342.743 86.946 342.791 86.96 342.852 86.9951C343.01 87.0582 343.174 87.1248 343.344 87.195C343.526 87.2581 343.739 87.2827 343.982 87.2686C344.225 87.2406 344.528 87.1213 344.893 86.9109C345.367 86.6374 345.761 86.3042 346.077 85.9114C346.405 85.4976 346.569 85.0873 346.569 84.6805C346.569 84.3859 346.496 84.1895 346.351 84.0913C346.217 83.9861 345.962 83.9721 345.585 84.0493C345.209 84.1124 344.674 84.2597 343.982 84.4912C343.301 84.7016 342.736 84.7963 342.287 84.7752C341.838 84.7542 341.503 84.5964 341.285 84.3018C341.066 84.0073 340.957 83.5794 340.957 83.0183C340.957 82.4712 341.097 81.8716 341.376 81.2193C341.667 80.5459 342.093 79.8866 342.651 79.2414C343.222 78.5891 343.927 78.021 344.765 77.537C345.421 77.1582 345.992 76.9268 346.478 76.8426C346.964 76.7444 347.365 76.7444 347.681 76.8426C348.009 76.9338 348.258 77.0775 348.428 77.2739C348.598 77.4563 348.689 77.6492 348.701 77.8526C348.713 77.9999 348.677 78.1471 348.592 78.2944C348.507 78.4277 348.41 78.5259 348.3 78.589L346.952 79.3676C346.891 79.4026 346.836 79.4202 346.788 79.4202C346.739 79.4202 346.691 79.4132 346.642 79.3991C346.508 79.336 346.363 79.2729 346.205 79.2098C346.047 79.1466 345.852 79.1256 345.622 79.1466C345.403 79.1467 345.111 79.2519 344.747 79.4623C344.285 79.7288 343.933 80.0514 343.69 80.4302C343.447 80.7949 343.326 81.1526 343.326 81.5033C343.326 81.7418 343.38 81.9206 343.49 82.0399C343.611 82.138 343.848 82.1626 344.2 82.1135C344.553 82.0644 345.087 81.9171 345.804 81.6716C346.618 81.37 347.262 81.2508 347.735 81.3139C348.221 81.356 348.562 81.5383 348.756 81.8609C348.962 82.1625 349.066 82.5728 349.066 83.0919C349.066 83.7231 348.902 84.3859 348.574 85.0803C348.258 85.7676 347.784 86.4409 347.152 87.1002C346.533 87.7385 345.761 88.3242 344.838 88.8572Z" fill="#141414"/>
<path opacity="0.1" d="M110.939 254.511L179.994 214.642V327.213L110.739 366.967L110.939 254.511Z" fill="#D9D9D9"/>
<path opacity="0.15" d="M195.211 207.93L278.514 159.835C280.188 158.869 281.545 159.602 281.545 161.474C281.545 163.346 280.192 165.653 278.522 166.628L195.201 215.264C193.532 216.238 192.179 215.461 192.179 213.528V213.179C192.179 211.247 193.537 208.896 195.211 207.93Z" fill="#D9D9D9"/>
<path opacity="0.1" d="M194.344 222.501L332.185 142.919C333.381 142.229 334.35 142.719 334.35 144.014C334.35 145.309 333.381 146.919 332.185 147.609L194.344 227.191C193.148 227.881 192.179 227.391 192.179 226.096C192.178 224.801 193.148 223.192 194.344 222.501Z" fill="#D9D9D9"/>
<path opacity="0.1" d="M194.344 231.918L332.185 152.336C333.381 151.646 334.35 152.136 334.35 153.431C334.35 154.726 333.381 156.336 332.185 157.026L194.344 236.608C193.148 237.298 192.179 236.808 192.179 235.513C192.179 234.218 193.148 232.609 194.344 231.918Z" fill="#D9D9D9"/>
<path opacity="0.1" d="M194.344 241.335L332.185 161.753C333.381 161.063 334.35 161.553 334.35 162.848C334.35 164.143 333.381 165.753 332.185 166.443L194.344 246.025C193.148 246.715 192.179 246.225 192.179 244.93C192.178 243.635 193.148 242.025 194.344 241.335Z" fill="#D9D9D9"/>
<path opacity="0.1" d="M194.344 250.751L332.185 171.169C333.381 170.479 334.35 170.969 334.35 172.264C334.35 173.559 333.381 175.169 332.185 175.859L194.344 255.441C193.148 256.131 192.179 255.641 192.179 254.346C192.178 253.051 193.148 251.442 194.344 250.751Z" fill="#D9D9D9"/>
<path opacity="0.1" d="M194.344 260.168L290.516 204.201C291.712 203.511 292.681 204.001 292.681 205.296C292.681 206.591 291.711 208.201 290.516 208.891L194.344 264.857C193.148 265.547 192.179 265.057 192.179 263.762C192.179 262.467 193.148 260.859 194.344 260.168Z" fill="#D9D9D9"/>
<path opacity="0.1" d="M194.344 279.001L332.185 199.419C333.381 198.729 334.35 199.219 334.35 200.514C334.35 201.809 333.381 203.419 332.185 204.109L194.344 283.691C193.148 284.381 192.179 283.891 192.179 282.596C192.179 281.301 193.148 279.692 194.344 279.001Z" fill="#D9D9D9"/>
<path opacity="0.1" d="M194.344 288.418L332.185 208.836C333.381 208.146 334.35 208.636 334.35 209.931C334.35 211.226 333.381 212.836 332.185 213.526L194.344 293.108C193.148 293.798 192.179 293.308 192.179 292.013C192.179 290.718 193.148 289.109 194.344 288.418Z" fill="#D9D9D9"/>
<path opacity="0.1" d="M194.344 297.835L332.185 218.253C333.381 217.563 334.35 218.053 334.35 219.348C334.35 220.643 333.381 222.253 332.185 222.943L194.344 302.525C193.148 303.215 192.179 302.725 192.179 301.43C192.178 300.135 193.148 298.525 194.344 297.835Z" fill="#D9D9D9"/>
<path opacity="0.1" d="M194.344 307.251L244.987 277.691C246.183 277.001 247.152 277.491 247.152 278.786C247.152 280.081 246.182 281.691 244.987 282.381L194.344 311.94C193.148 312.63 192.179 312.14 192.179 310.845C192.179 309.55 193.148 307.942 194.344 307.251Z" fill="#D9D9D9"/>
<path d="M378.539 253.201C385.866 229.417 392.998 213.755 385.733 208.905C378.966 210.158 375.935 213.505 374.497 222.425C372.988 231.783 369.852 244.815 368.023 252.342C366.562 258.352 363.71 265.906 361.268 270.505C360.835 271.32 360.113 271.934 359.271 272.263C357.012 273.147 355.928 274.301 354.086 275.616C352.644 276.646 351.581 276.761 351.647 277.194C351.732 277.75 352.383 278.753 353.911 278.588C354.68 278.505 355.736 278.109 357.062 277.575C357.062 277.575 355.728 281.153 353.115 283.339C349.573 286.301 350.102 289.265 355.805 289.61C357.847 289.734 362.58 287.872 366.966 280.401C368.229 278.249 369.696 274.726 370.874 271.789C373.942 264.142 377.073 257.96 378.539 253.201Z" fill="#FCA56B"/>
<path d="M387.028 208.623C387.028 208.623 381.389 208.329 377.973 212.097C374.558 215.865 370.565 238.388 370.565 238.388C370.565 238.388 374.308 243.531 384.173 241.426L387.028 208.623Z" fill="#D9D9D9"/>
<path opacity="0.3" d="M387.028 208.623C387.028 208.623 381.389 208.329 377.973 212.097C374.558 215.865 370.565 238.388 370.565 238.388C370.565 238.388 374.308 243.531 384.173 241.426L387.028 208.623Z" fill="black"/>
<path d="M413.411 368.384H405.839V381.884H413.411V368.384Z" fill="#D9D9D9"/>
<path d="M387.159 367.664L379.591 367.935L379.212 353.648L387.159 353.377V367.664Z" fill="#D9D9D9"/>
<path d="M414.477 251.499C414.477 259.029 413.368 319.634 413.368 319.634C413.545 321.801 415.495 325.796 415.073 334.119C414.5 345.425 413.735 375.134 413.735 375.134C413.735 375.134 410.059 377.371 405.305 375.308C405.305 375.308 398.143 334.158 396.786 322.954C395.602 313.176 393.593 280.255 393.593 280.255L389.489 318.534C389.489 318.534 390.885 324.366 390.427 331.067C390.073 336.249 387.638 363.238 387.638 363.238C387.638 363.238 384.074 365.757 378.896 363.935C378.896 363.935 374.589 323.289 374.501 318.534C374.401 313.113 377.019 251.419 377.019 251.419L414.477 251.499Z" fill="white"/>
<path d="M405.839 377.991V376.863C405.115 377.192 403.431 383.88 400.427 386.735C398.039 389.004 394.781 391.624 393.952 394.154C393.09 396.785 398.489 398.237 400.72 397.826C403.312 397.348 407.806 395.446 408.934 393.684C410.062 391.922 410.59 389.321 411.507 388.029C412.424 386.737 414.537 385.295 415.032 383.8C415.304 382.979 414.981 381.18 414.598 379.66C414.247 378.265 413.867 376.732 413.409 376.863C413.408 377.033 413.409 377.723 413.409 377.723C412.859 378.357 411.339 378.987 409.623 379.056C408.517 379.1 405.83 378.872 405.839 377.991Z" fill="#3D4D5C"/>
<path d="M379.511 365.503C379.118 365.517 378.798 366.095 377.931 367.073C376.883 368.255 375.169 369.529 373.477 370.411C370.642 371.889 365.13 374.163 362.635 375.334C361.076 376.065 361.149 378.026 362.761 379.142C364.372 380.258 368.261 381.062 372.932 379.974C375.476 379.381 378.788 376.934 380.884 377.066C382.98 377.198 386.903 377.167 388.45 376.056C389.997 374.945 389.378 372.573 388.941 370.534C388.464 368.309 387.867 364.839 387.16 364.991V365.758C386.25 367.194 381.552 367.778 379.553 366.721L379.511 365.503Z" fill="#3D4D5C"/>
<path d="M393.592 280.255C393.592 280.255 387.54 278.479 383.048 273.958C383.048 273.958 385.083 277.925 391.133 281.618L389.839 315.802L393.592 280.255Z" fill="#3D4D5C"/>
<path d="M410.537 210.423C410.537 210.423 416.462 210.965 416.041 222.253L414.732 240.234L414.768 267.217C409.2 273.526 384.517 273.064 376.066 266.712C376.066 266.712 377.024 234.779 377.594 222.492C377.999 213.756 380.01 209.359 388.595 208.396L399.153 208.861L410.537 210.423Z" fill="#EF8354"/>
<path opacity="0.3" d="M393.712 216.344L392.353 225.823L389.186 225.764L392.759 226.328L393.712 216.344Z" fill="black"/>
<path d="M408.033 190.808C408.033 190.808 406.304 199.268 405.611 200.658C404.917 202.048 403.485 202.443 403.485 202.443L403.606 196.492L408.033 190.808Z" fill="black"/>
<path d="M405.864 178.688C405.864 178.688 407.104 178.378 408.421 180.435C409.55 182.199 409.806 186.161 408.034 190.808L404.777 191.197L405.864 178.688Z" fill="black"/>
<path d="M403.8 191.2C404.453 191.606 405.385 190.3 406.19 189.422C406.995 188.544 409.624 187.345 410.936 190.223C412.272 193.156 409.778 197.032 407.708 197.708C404.141 198.874 403.606 196.491 403.606 196.491L403.334 209.892C398.599 217.217 387.873 216.952 391.729 209.538L391.739 205.46C391.739 205.46 388.507 205.971 386.93 205.717C384.307 205.295 382.657 203.139 381.861 200.182C380.583 195.432 380.098 191.597 381.182 182.254C382.37 172.015 393.805 171.908 399.98 175.956C406.155 180.004 403.8 191.2 403.8 191.2Z" fill="#FCA56B" fill-opacity="0.49"/>
<path d="M403.395 206.889C403.395 206.889 401.729 210.491 398.757 212.7C396.025 214.73 393.146 215.085 393.146 215.085C393.146 215.085 395.924 216.925 397.105 219.53C398.286 222.135 406.618 214.964 406.543 209.876C406.543 209.876 405.235 204.765 403.444 204.437L403.395 206.889Z" fill="black"/>
<path d="M393.146 215.084C393.146 215.084 390.577 213.807 391.729 209.538L391.739 205.46L390.613 205.611C389.737 206.4 388.357 208.258 387.906 210.301C387.648 211.469 387.015 217.386 388.143 218.561C389.171 219.631 390.844 215.402 393.146 215.084Z" fill="black"/>
<path d="M399.417 180.036C399.714 180.001 400.028 179.971 400.3 180.095C401.269 180.535 401.477 183.548 401.647 184.418C402.22 187.351 402.696 192.323 403.8 192.345C404.129 192.352 405.377 190.193 406.19 189.423C407.316 188.355 405.863 178.689 405.863 178.689C405.863 178.689 406.945 176.286 404.776 173.8C402.749 171.476 399.562 170.963 396.651 170.803C393.221 170.614 389.738 170.874 386.359 170.123C385.285 169.884 384.229 169.544 383.134 169.431C383.032 169.421 382.919 169.415 382.84 169.48C382.73 169.57 382.745 169.74 382.774 169.88C382.984 170.892 383.346 171.873 383.843 172.779C381.831 172.619 379.838 172.228 377.916 171.614C377.806 171.579 377.688 171.543 377.578 171.578C377.351 171.649 377.313 171.95 377.326 172.187C377.462 174.615 378.613 178.268 380.582 179.695C382.121 180.81 384.537 181.491 386.434 181.54C391.739 181.675 395.03 180.556 399.417 180.036Z" fill="black"/>
<path d="M405.857 179.198L409.805 176.99C409.245 175.812 407.907 175.351 406.816 175.96C405.726 176.571 405.297 178.02 405.857 179.198Z" fill="black"/>
<path d="M393.146 189.675C393.146 190.376 393.672 190.943 394.319 190.941C394.967 190.939 395.492 190.369 395.492 189.668C395.492 188.967 394.967 188.4 394.319 188.402C393.672 188.404 393.146 188.974 393.146 189.675Z" fill="black"/>
<path d="M395.031 184.615L397.541 186.058C397.911 185.307 397.649 184.375 396.956 183.977C396.263 183.578 395.401 183.864 395.031 184.615Z" fill="black"/>
<path d="M392.269 198.118L389.59 199.165C389.855 199.965 390.67 200.379 391.41 200.09C392.15 199.801 392.534 198.918 392.269 198.118Z" fill="#D9D9D9"/>
<path d="M382.382 185.691L384.671 183.855C384.204 183.172 383.313 183.03 382.681 183.537C382.049 184.044 381.915 185.008 382.382 185.691Z" fill="black"/>
<path d="M383.387 189.327C383.387 190.028 383.912 190.595 384.561 190.593C385.209 190.591 385.734 190.021 385.734 189.32C385.734 188.619 385.209 188.052 384.561 188.054C383.912 188.056 383.387 188.626 383.387 189.327Z" fill="black"/>
<path d="M389.666 188.346L389.53 195.758L385.324 194.793L389.666 188.346Z" fill="#FCA56B" fill-opacity="0.63"/>
<path d="M422.059 195.796C423.748 193.555 427.169 198.53 428.751 201.959C430.333 205.388 430.356 207.33 429.062 208.691C427.769 210.052 425.314 209.226 422.859 205.978C420.405 202.73 421.094 197.452 422.059 195.796Z" fill="#D9D9D9"/>
<path opacity="0.5" d="M422.059 195.796C423.748 193.555 427.169 198.53 428.751 201.959C430.333 205.388 430.356 207.33 429.062 208.691C427.769 210.052 425.314 209.226 422.859 205.978C420.405 202.73 421.094 197.452 422.059 195.796Z" fill="black"/>
<path d="M433.954 196.464C427.99 210.502 419.605 218.352 415.854 227.36C410.937 227.026 407.109 215.165 410.769 210.091C410.769 210.091 425.152 194.522 426.454 188.402C427.61 182.97 429.164 174.01 429.027 169.423C429.004 168.657 428.664 167.949 428.143 167.388C426.634 165.764 426.632 164.46 425.663 162.666C424.907 161.268 424.08 160.745 424.316 160.43C424.619 160.026 425.576 159.498 426.765 160.249C427.364 160.627 427.753 161.07 428.621 162.03C428.621 162.03 429.008 159.556 427.772 156.769C426.098 152.993 426.505 151.066 431.603 152.411C434.797 153.254 436.803 155.914 437.281 163.591C437.419 165.803 437.599 170.382 437.336 173.179C436.783 179.088 436.427 185.247 435.701 190.139C435.38 192.313 434.812 194.443 433.954 196.464Z" fill="#FCA56B"/>
<path d="M409.315 210.255L422.005 195.758C422.005 195.758 420.498 199.294 423.799 204.436C427.099 209.578 429.062 208.692 429.062 208.692C429.062 208.692 421.575 219.622 419.566 223.281C417.557 226.94 415.476 230.025 415.476 230.025C415.476 230.025 414.975 231.317 413.109 231.317C411.244 231.317 406.311 223.058 409.315 210.255Z" fill="#D9D9D9"/>
<path opacity="0.3" d="M409.315 210.255L422.005 195.758C422.005 195.758 420.498 199.294 423.799 204.436C427.099 209.578 429.062 208.692 429.062 208.692C429.062 208.692 421.575 219.622 419.566 223.281C417.557 226.94 415.476 230.025 415.476 230.025C415.476 230.025 414.975 231.317 413.109 231.317C411.244 231.317 406.311 223.058 409.315 210.255Z" fill="black" fill-opacity="0.86"/>
<path d="M306.415 242.846L312.388 250.8L305.973 258.154L297.704 248.484L306.415 242.846Z" fill="#FCA56B"/>
<path d="M286.871 224.767C292.081 225.011 294.564 225.816 297.291 229.029C299.953 232.165 313.66 251.97 313.66 251.97C313.66 251.97 311.249 258.729 305.973 258.154L296.379 248.264L286.871 224.767Z" fill="#FCA56B"/>
<path d="M261.309 389.893C261.139 391.148 260.779 392.614 260.712 396.166C260.64 399.974 259.94 401.325 259.848 404.451C259.742 408.022 260.359 409.358 261.808 411.365C263.257 413.372 267.06 415.193 268.668 411.8C270.295 408.367 270.069 406.185 269.555 402.682C269.024 399.061 268.956 397.061 268.648 394.299C268.377 391.864 268.052 390.015 268.052 390.015L261.309 389.893Z" fill="black"/>
<path d="M272.118 359.951L259.574 359.724C259.76 368.097 261.091 382.037 261.308 389.893C261.349 391.372 261.271 401.385 261.829 404.428C262.667 409 268.094 408.382 268.382 405.647C268.67 402.911 268.033 391.221 268.05 390.016C268.002 384.978 270.364 371.827 271.602 362.782C271.663 362.337 272.061 360.384 272.118 359.951Z" fill="#D9D9D9"/>
<path d="M290.554 383.376C290.554 383.376 289.906 383.413 289.803 383.941C289.681 384.57 289.654 385.563 289.393 386.595C289.03 388.029 288.728 390.393 288.946 391.562C289.163 392.731 291.833 394.473 293.658 394.779C295.483 395.085 298.059 396.889 299.49 398.235C301.243 399.884 305.024 401.442 307.599 401.423C310.646 401.401 312.77 400.408 313.774 398.777C314.823 397.073 312.859 396.948 309.377 394.688C308.586 394.175 307.686 393.595 306.673 392.933C301.156 389.329 299.136 387.398 297.576 383.794L290.554 383.376Z" fill="black"/>
<path d="M297.618 381.416C297.525 378.823 298.854 359.723 298.854 359.723L288.064 360.938C290.615 376.164 290.822 381.352 290.531 383.567C290.511 383.625 290.461 383.836 290.464 384.205C290.475 387.163 293.813 388.758 296.417 390.73C297.446 391.509 300.089 393.91 303.188 394.965C305.192 395.647 308.899 395.906 309.375 394.689C306.206 392.269 301.893 389.107 299.373 386.344C298.169 385.024 297.711 384.009 297.618 381.416Z" fill="#D9D9D9"/>
<path d="M262.484 273.359C256.598 286.215 262.696 331.502 262.696 331.502C262.519 333.588 260.134 337.693 259.245 346.875C258.195 357.724 261.183 386.768 261.183 386.768C261.183 386.768 264.049 388.912 268.207 386.918C268.207 386.918 275.801 344.243 277.162 333.456C278.349 324.042 280.629 303.343 280.629 303.343L287.107 333.405C287.107 333.405 285.444 338.679 285.055 342.696C284.44 349.041 290.619 380.885 290.619 380.885C290.619 380.885 293.51 382.411 297.618 380.748C297.618 380.748 300.356 339.608 300.929 331.964C301.891 319.128 298.482 279.075 296.128 271.477L262.484 273.359Z" fill="#D9D9D9"/>
<path opacity="0.5" d="M262.484 273.359C256.598 286.215 262.696 331.502 262.696 331.502C262.519 333.588 260.134 337.693 259.245 346.875C258.195 357.724 261.183 386.768 261.183 386.768C261.183 386.768 264.049 388.912 268.207 386.918C268.207 386.918 275.801 344.243 277.162 333.456C278.349 324.042 280.629 303.343 280.629 303.343L287.107 333.405C287.107 333.405 285.444 338.679 285.055 342.696C284.44 349.041 290.619 380.885 290.619 380.885C290.619 380.885 293.51 382.411 297.618 380.748C297.618 380.748 300.356 339.608 300.929 331.964C301.891 319.128 298.482 279.075 296.128 271.477L262.484 273.359Z" fill="#737272"/>
<path opacity="0.2" d="M280.629 303.341L282.54 291.4C282.54 291.4 290.624 289.725 294.291 286.278C294.291 286.278 290.444 291.063 284.731 292.63L282.585 301.823L286.337 329.659L280.629 303.341Z" fill="black"/>
<path d="M265.503 233.425L273.512 235.511V218.585C269.089 217.433 265.503 219.984 265.503 224.283V233.425Z" fill="#D9D9D9"/>
<path opacity="0.6" d="M265.503 233.425L273.512 235.511V218.585C269.089 217.433 265.503 219.984 265.503 224.283V233.425Z" fill="black"/>
<path d="M281.343 220.991L278.469 220.925C269.712 220.724 262.77 213.168 262.963 204.048C262.913 194.108 270.657 186.01 280.201 185.958C289.744 185.906 297.521 193.922 297.571 203.862L297.546 204.889C297.328 213.99 290.082 221.192 281.343 220.991Z" fill="#D9D9D9"/>
<path opacity="0.6" d="M281.343 220.991L278.469 220.925C269.712 220.724 262.77 213.168 262.963 204.048C262.913 194.108 270.657 186.01 280.201 185.958C289.744 185.906 297.521 193.922 297.571 203.862L297.546 204.889C297.328 213.99 290.082 221.192 281.343 220.991Z" fill="black"/>
<path d="M267.934 190.12C267.611 188.876 266.37 188.179 265.163 188.563L265.93 191.519C265.767 191.324 265.578 191.148 265.352 191.015C264.275 190.38 262.927 190.811 262.342 191.976L266.243 194.274C266.447 193.868 266.525 193.426 266.502 192.995C267.603 192.544 268.241 191.303 267.934 190.12Z" fill="#D9D9D9"/>
<path opacity="0.6" d="M267.934 190.12C267.611 188.876 266.37 188.179 265.163 188.563L265.93 191.519C265.767 191.324 265.578 191.148 265.352 191.015C264.275 190.38 262.927 190.811 262.342 191.976L266.243 194.274C266.447 193.868 266.525 193.426 266.502 192.995C267.603 192.544 268.241 191.303 267.934 190.12Z" fill="black"/>
<path d="M272.663 225.457C272.663 225.457 266.872 226.277 264.655 226.996C267.754 234.6 262.891 246.344 262.891 246.344L267.479 260.47C264.315 266.962 261.697 270.183 260.625 275.458C263.542 281.159 284.154 286.601 297.571 276.209C297.571 276.209 297.137 261.776 295.428 253.367C299.823 244.794 299.106 242.28 298.209 239.291C296.122 232.34 291.903 229.665 286.873 224.767L283.84 224.449L272.663 225.457Z" fill="#1C170D"/>
<path d="M268.011 266.133C270.498 263.578 275.777 262.851 275.777 262.851L270.935 260.088L265.503 246.991C269.272 239.747 268.767 232.577 268.767 232.577L265.653 231.83C266.03 238.757 262.891 246.346 262.891 246.346L267.479 260.472C264.315 266.964 261.697 270.185 260.625 275.461C262.622 279.363 272.911 283.142 283.507 281.806C269.308 280.856 265.614 268.595 268.011 266.133Z" fill="black"/>
<path d="M282.353 281.929C282.546 281.911 282.74 281.888 282.933 281.867C282.772 281.871 282.585 281.888 282.353 281.929Z" fill="#141414"/>
<path d="M291.127 194.833C292.849 196.413 295 199.845 294.828 209.869C294.682 218.365 292.049 220.478 290.724 221.09C289.4 221.702 286.838 221.348 284.346 220.93L284.316 224.449C284.316 224.449 287.601 228.092 287.396 230.431C287.191 232.77 282.723 233.74 279.493 231.474C276.263 229.208 273.513 225.424 273.513 225.424L273.479 214.735C273.479 214.735 272.022 216.225 269.526 213.977C267.466 212.121 266.76 208.976 268.349 207.278C269.938 205.58 272.894 206.024 274.039 208.427C274.039 208.427 279.72 207.952 284.96 205.212C289.603 202.783 291.462 198.394 291.127 194.833Z" fill="#FCA56B" fill-opacity="0.47"/>
<path d="M284.344 207.923C284.377 208.535 283.945 209.056 283.379 209.087C282.813 209.118 282.328 208.647 282.296 208.035C282.263 207.423 282.695 206.902 283.261 206.871C283.827 206.839 284.312 207.311 284.344 207.923Z" fill="black"/>
<path d="M284.727 215.042L287.396 215.913C287.179 216.709 286.405 217.158 285.668 216.918C284.93 216.677 284.509 215.837 284.727 215.042Z" fill="black"/>
<path d="M293.956 204.088L291.534 203.261C291.716 202.56 292.406 202.177 293.075 202.405C293.743 202.634 294.138 203.387 293.956 204.088Z" fill="black"/>
<path d="M274.052 207.415L274.024 211.009C274.984 211.055 275.769 210.287 275.776 209.294C275.784 208.303 275.012 207.461 274.052 207.415Z" fill="#D9D9D9"/>
<path opacity="0.6" d="M274.052 207.415L274.024 211.009C274.984 211.055 275.769 210.287 275.776 209.294C275.784 208.303 275.012 207.461 274.052 207.415Z" fill="black"/>
<path d="M293.118 207.571C293.151 208.183 292.718 208.704 292.153 208.735C291.587 208.766 291.102 208.295 291.07 207.683C291.037 207.071 291.469 206.55 292.035 206.519C292.6 206.488 293.086 206.959 293.118 207.571Z" fill="black"/>
<path d="M287.422 206.115L287.396 213.077L290.64 212.011L287.422 206.115Z" fill="black"/>
<path d="M284.346 220.93C281.721 220.586 276.317 219 275.465 216.783C275.465 216.783 275.752 218.178 277.371 219.609C278.991 221.039 284.332 222.645 284.332 222.645L284.346 220.93Z" fill="black"/>
<path d="M252.35 261.029C252.35 261.029 258.767 270.145 259.871 271.338C260.975 272.53 261.726 272.134 262.918 271.603C264.11 271.072 266.375 270.394 267.378 270.146C269.34 269.66 269.763 271.471 267.82 272.762C266.415 273.696 264.806 274.104 265.479 274.871C266.152 275.638 268.229 276.98 270.16 277.741C274.896 279.609 274.53 280.546 273.658 282.08C272.899 283.416 270.686 286.297 262.214 282.895C258.719 281.491 253.795 277.502 251.474 274.93C248.124 271.218 242.899 264.568 242.899 264.568L252.35 261.029Z" fill="#FCA56B"/>
<path d="M265.889 226.669C263.565 226.824 259.198 227.384 253.718 236.482C248.912 244.462 241.463 255.293 240.078 259.164C239.519 260.725 241.703 263.981 244.507 267.31C248.343 267.142 251.832 264.492 253.643 262.373C252.804 260.43 251.874 259.16 251.874 259.16L263.117 246.339C263.117 246.339 267.387 242.428 268.281 237.308C269.24 231.824 268.942 227.48 265.889 226.669Z" fill="#FCA56B"/>
<path d="M265.889 226.669C263.565 226.824 259.198 227.384 253.718 236.482C248.912 244.462 241.463 255.293 240.078 259.164C239.519 260.725 241.703 263.981 244.507 267.31C248.343 267.142 251.832 264.492 253.643 262.373C252.804 260.43 251.874 259.16 251.874 259.16L263.117 246.339C263.117 246.339 267.387 242.428 268.281 237.308C269.24 231.824 268.942 227.48 265.889 226.669Z" fill="#FCA56B" fill-opacity="0.2"/>
<path d="M328.82 243.928L301.106 251.227L293.478 282.583L319.826 274.931L328.82 243.928Z" fill="#D9D9D9"/>
<path opacity="0.25" d="M328.82 243.928L301.106 251.227L293.478 282.583L319.826 274.931L328.82 243.928Z" fill="white"/>
<g opacity="0.1">
<path d="M316.297 266.133C316.554 266.836 318.253 269.383 321.479 269.23L321.68 268.537L316.297 266.133Z" fill="black"/>
</g>
<g opacity="0.1">
<path d="M320.471 248.908C320.471 248.908 320.573 248.435 320.7 247.851C320.826 247.267 319.2 247.242 317.067 247.795L312.984 248.854C310.852 249.407 309.021 250.329 308.894 250.912L308.665 251.969L320.471 248.908Z" fill="black"/>
</g>
<path d="M322.6 244.935C322.68 244.57 322.021 244.474 321.128 244.721L319.511 245.168C319.511 245.168 319.993 242.882 316.405 243.681C312.817 244.48 312.033 247.076 312.033 247.076C312.033 247.076 311.26 247.295 310.307 247.566C309.354 247.837 308.489 248.351 308.377 248.714L308.173 249.372L322.449 245.613C322.449 245.613 322.52 245.3 322.6 244.935Z" fill="#1C170D"/>
<path d="M320.634 246.063C319.326 246.379 318.782 246.552 318.587 247.452C318.364 248.48 318.273 249.234 318.273 249.234L311.955 250.904C311.955 250.904 312.26 249.603 312.358 249.095C312.456 248.588 312.24 248.282 311.235 248.548L311.15 248.145L321.05 245.624L320.634 246.063Z" fill="#1C170D"/>
<path d="M320.851 249.008C320.851 249.008 320.953 248.535 321.08 247.951C321.206 247.367 319.58 247.342 317.447 247.895L313.364 248.954C311.232 249.507 309.401 250.429 309.274 251.013L309.045 252.07L320.851 249.008Z" fill="#1C170D"/>
<path d="M325.899 253.994C325.899 253.994 324.862 257.539 324.625 258.384C324.388 259.229 321.283 260.748 319.246 261.308C317.209 261.868 314.981 262.531 315.945 265.379C316.834 268.006 320.186 268.605 321.893 268.531C323.6 268.457 325.936 266.825 326.857 264.196C328.031 260.842 327.398 257.259 327.865 255.3C328.331 253.342 326.92 252.826 325.899 253.994Z" fill="#D9D9D9"/>
<path d="M220.931 254.828C217.13 250.998 215.772 252.487 215.291 256.687C214.937 259.786 214.023 261.819 214.023 261.819C213.754 260.522 213.641 259.929 213.309 259.285C212.648 258.006 211.531 257.975 211.054 258.175C210.683 258.33 211.141 259.22 211.083 260.846C211.009 262.93 210.335 264.081 210.822 266.294C211.005 267.123 210.853 267.987 210.449 268.734C208.399 272.528 201.855 279.555 197.245 284.608C193.169 280.925 184.052 272.688 179.687 268.755C173.699 263.36 171.746 260.927 165.955 261.323C165.955 261.323 168.198 262.006 170.882 264.276C173.565 266.546 172.927 279.538 172.927 279.538C172.927 279.538 192.849 293.824 194.897 295.183C195.198 295.383 195.505 295.563 195.81 295.726C197.81 296.791 200.287 296.285 201.778 294.58C206.033 289.718 212.228 280.152 215.813 275.179C217.494 272.847 219.119 269.661 220.144 267.638C223.703 260.615 223.313 257.227 220.931 254.828Z" fill="#D9D9D9"/>
<path d="M166.545 260.969C166.545 260.969 170.581 259.914 174.557 262.932C177.976 265.527 192.52 278.901 192.52 278.901C192.52 278.901 192.915 285.986 185.524 290.215L167.645 277.607L166.545 260.969Z" fill="#D9D9D9"/>
<path opacity="0.3" d="M166.545 260.969C166.545 260.969 170.581 259.914 174.557 262.932C177.976 265.527 192.52 278.901 192.52 278.901C192.52 278.901 192.915 285.986 185.524 290.215L167.645 277.607L166.545 260.969Z" fill="black"/>
<path d="M149.302 420.957H141.73V434.457H149.302V420.957Z" fill="#D9D9D9"/>
<path d="M167.982 420.237L175.55 420.508L175.929 406.22L167.982 405.95V420.237Z" fill="#D9D9D9"/>
<path d="M140.664 304.072C140.664 311.602 141.773 372.207 141.773 372.207C141.597 374.374 139.646 378.369 140.068 386.692C140.642 397.998 141.406 427.707 141.406 427.707C141.406 427.707 145.082 429.944 149.836 427.881C149.836 427.881 156.998 386.731 158.355 375.527C159.539 365.749 161.548 332.828 161.548 332.828L165.652 371.107C165.652 371.107 164.256 376.939 164.714 383.64C165.068 388.822 167.503 415.811 167.503 415.811C167.503 415.811 171.067 418.33 176.245 416.508C176.245 416.508 180.552 375.862 180.64 371.107C180.74 365.686 178.122 303.992 178.122 303.992L140.664 304.072Z" fill="#1C170D"/>
<path d="M149.302 430.564V429.436C150.027 429.765 151.71 436.453 154.714 439.308C157.102 441.577 160.36 444.197 161.189 446.727C162.051 449.358 156.652 450.81 154.421 450.399C151.829 449.921 147.335 448.019 146.207 446.257C145.079 444.494 144.551 441.894 143.634 440.602C142.717 439.31 140.604 437.868 140.109 436.373C139.837 435.552 140.16 433.753 140.542 432.233C140.893 430.838 141.273 429.305 141.731 429.436C141.732 429.606 141.731 430.296 141.731 430.296C142.281 430.93 143.801 431.56 145.517 431.629C146.624 431.673 149.311 431.444 149.302 430.564Z" fill="black"/>
<path d="M175.63 418.076C176.023 418.09 176.343 418.668 177.21 419.645C178.258 420.827 179.972 422.101 181.664 422.983C184.499 424.461 190.011 426.735 192.506 427.906C194.065 428.637 193.992 430.598 192.38 431.714C190.769 432.83 186.88 433.634 182.209 432.546C179.665 431.953 176.353 429.506 174.257 429.638C172.161 429.77 168.238 429.739 166.691 428.628C165.144 427.517 165.763 425.145 166.2 423.106C166.677 420.881 167.274 417.411 167.981 417.563V418.33C168.891 419.766 173.589 420.35 175.588 419.293L175.63 418.076Z" fill="black"/>
<path d="M161.548 332.828C161.548 332.828 167.6 331.052 172.092 326.531C172.092 326.531 170.057 330.498 164.007 334.191L165.301 368.375L161.548 332.828Z" fill="black"/>
<path d="M144.604 262.996C144.604 262.996 138.679 263.538 139.1 274.826L140.409 292.807L140.286 319.79C145.854 326.099 170.537 325.637 178.988 319.285C178.988 319.285 178.117 287.352 177.547 275.065C177.141 266.329 175.131 261.932 166.546 260.969L155.988 261.434L144.604 262.996Z" fill="#D9D9D9"/>
<path opacity="0.3" d="M161.429 268.917L162.788 278.396L165.955 278.337L162.382 278.901L161.429 268.917Z" fill="black"/>
<path d="M125.811 301.757C128.883 277.06 135.948 264.784 144.563 263.34L143.952 279.142C143.952 279.142 138.166 292.334 135.754 305.287C134.622 311.367 133.309 321.937 133.65 327.133C133.71 328.053 134.118 328.91 134.75 329.556C136.447 331.288 136.963 332.786 138.103 334.741C138.996 336.272 139.918 336.813 139.68 337.18C139.375 337.652 138.37 338.3 137.043 337.523C136.376 337.132 135.575 336.337 134.584 335.307C134.584 335.307 134.333 339.117 135.82 342.183C137.835 346.337 137.5 348.529 131.919 347.305C128.422 346.538 125.899 342.849 124.964 334.237C124.695 331.756 124.66 327.744 124.791 324.582C125.13 316.349 125.196 306.698 125.811 301.757Z" fill="#D9D9D9"/>
<path d="M145.054 262.932C140.58 262.915 136.5 263.701 133.255 269.951C130.143 275.946 127.75 288.643 126.541 292.788C126.541 292.788 133.073 296.648 139.078 296.555L143.311 281.871C143.311 281.871 146.168 275.015 145.054 262.932Z" fill="#D9D9D9"/>
<path opacity="0.3" d="M145.054 262.932C140.58 262.915 136.5 263.701 133.255 269.951C130.143 275.946 127.75 288.643 126.541 292.788C126.541 292.788 133.073 296.648 139.078 296.555L143.311 281.871C143.311 281.871 146.168 275.015 145.054 262.932Z" fill="black"/>
<path d="M154.278 237.507C154.278 243.991 159.325 249.248 165.55 249.248C171.775 249.248 176.822 243.992 176.822 237.507C176.822 231.023 171.775 225.767 165.55 225.767C159.325 225.767 154.278 231.023 154.278 237.507Z" fill="black"/>
<path d="M147.108 243.381C147.108 243.381 148.837 251.841 149.53 253.231C150.223 254.621 151.656 255.016 151.656 255.016L151.535 249.065L147.108 243.381Z" fill="black"/>
<path d="M149.277 231.261C149.277 231.261 148.037 230.951 146.72 233.008C145.591 234.772 145.335 238.734 147.107 243.381L150.364 243.77L149.277 231.261Z" fill="black"/>
<path d="M151.341 243.773C150.688 244.179 149.756 242.873 148.951 241.995C148.146 241.118 145.517 239.918 144.205 242.796C142.869 245.729 145.363 249.605 147.433 250.281C151 251.447 151.535 249.064 151.535 249.064L151.807 262.465C156.542 269.789 167.268 269.525 163.412 262.111L163.402 258.033C163.402 258.033 166.634 258.544 168.211 258.29C170.834 257.868 172.484 255.712 173.28 252.755C174.558 248.005 175.043 244.17 173.959 234.828C172.77 224.589 161.336 224.482 155.161 228.53C148.986 232.577 151.341 243.773 151.341 243.773Z" fill="#D9D9D9"/>
<path d="M151.746 259.461C151.746 259.461 153.412 263.063 156.384 265.272C159.116 267.302 161.995 267.657 161.995 267.657C161.995 267.657 159.217 269.497 158.036 272.102C156.855 274.707 148.523 267.536 148.598 262.448C148.598 262.448 149.906 257.337 151.697 257.009L151.746 259.461Z" fill="black"/>
<path d="M161.995 267.657C161.995 267.657 164.564 266.38 163.412 262.111L163.402 258.033L164.528 258.184C165.404 258.973 166.784 260.831 167.235 262.874C167.493 264.042 168.126 269.959 166.998 271.134C165.97 272.203 164.297 267.975 161.995 267.657Z" fill="black"/>
<path d="M151.341 244.917C151.012 244.924 149.764 242.765 148.951 241.995C147.825 240.928 149.277 231.261 149.277 231.261C149.277 231.261 148.195 228.858 150.364 226.372C151.907 224.603 154.486 224.407 158.889 223.686C160.604 223.405 162.436 223.219 164.109 222.745C165.899 222.238 167.661 221.05 169.328 220.205C169.88 219.925 170.497 219.638 171.094 219.798C171.668 219.952 172.068 220.5 172.216 221.075C172.365 221.65 172.308 222.256 172.25 222.847C173.27 221.721 175.263 221.886 176.305 222.992C177.347 224.098 177.491 225.849 176.938 227.265C176.385 228.681 175.243 229.794 173.984 230.644C168.45 234.379 161.919 233.343 155.725 232.609C155.428 232.574 155.114 232.544 154.842 232.668C153.873 233.108 153.665 236.121 153.495 236.992C152.921 239.924 152.445 244.895 151.341 244.917Z" fill="black"/>
<path d="M149.284 231.771L145.336 229.564C145.896 228.386 147.234 227.924 148.325 228.534C149.415 229.144 149.844 230.593 149.284 231.771Z" fill="black"/>
<path d="M163.402 258.033C163.402 258.033 157.546 256.804 155.499 255.671C154.129 254.912 153 253.598 152.669 252.755C152.669 252.755 153.053 254.565 154.277 256.195C155.774 258.188 163.402 259.656 163.402 259.656V258.033Z" fill="black"/>
<path d="M161.284 241.9C161.284 242.601 160.758 243.168 160.11 243.166C159.462 243.164 158.937 242.594 158.937 241.893C158.937 241.192 159.462 240.625 160.11 240.627C160.758 240.629 161.284 241.199 161.284 241.9Z" fill="black"/>
<path d="M159.269 236.821L156.759 238.264C156.389 237.513 156.651 236.581 157.344 236.183C158.037 235.784 158.899 236.07 159.269 236.821Z" fill="black"/>
<path d="M162.872 250.691L165.551 251.738C165.286 252.538 164.471 252.952 163.731 252.663C162.991 252.373 162.607 251.491 162.872 250.691Z" fill="black"/>
<path d="M173.006 238.221L170.368 236.936C170.673 236.167 171.51 235.832 172.238 236.186C172.967 236.541 173.311 237.452 173.006 238.221Z" fill="black"/>
<path d="M171.266 241.9C171.266 242.601 170.741 243.168 170.092 243.166C169.444 243.164 168.919 242.594 168.919 241.893C168.919 241.192 169.444 240.625 170.092 240.627C170.741 240.629 171.266 241.199 171.266 241.9Z" fill="black"/>
<path d="M164.618 240.992L164.755 248.404L168.961 247.439L164.618 240.992Z" fill="black"/>
<path d="M159.468 238.837C157.882 238.837 156.591 240.152 156.591 241.768C156.591 243.384 157.881 244.699 159.468 244.699H160.002C161.588 244.699 162.878 243.384 162.878 241.768C162.878 240.152 161.588 238.837 160.002 238.837H159.468ZM156.007 241.767C156.007 239.823 157.559 238.242 159.467 238.242H160.001C161.909 238.242 163.461 239.823 163.461 241.767C163.461 243.711 161.909 245.292 160.001 245.292H159.467C157.559 245.293 156.007 243.711 156.007 241.767Z" fill="black"/>
<path d="M170.018 238.837C168.432 238.837 167.141 240.152 167.141 241.768C167.141 243.384 168.432 244.699 170.018 244.699H170.553C172.139 244.699 173.429 243.384 173.429 241.768C173.429 240.152 172.138 238.837 170.553 238.837H170.018ZM166.557 241.768C166.557 239.824 168.109 238.243 170.017 238.243H170.552C172.46 238.243 174.012 239.824 174.012 241.768C174.012 243.712 172.46 245.293 170.552 245.293H170.017C168.109 245.293 166.557 243.711 166.557 241.768Z" fill="black"/>
<path d="M163.419 241.072C163.739 240.537 164.457 240.164 165.247 240.123C165.928 240.087 166.528 240.317 166.842 240.736L167.307 240.377C166.871 239.792 166.11 239.483 165.218 239.53C164.225 239.582 163.346 240.054 162.922 240.763L163.419 241.072Z" fill="black"/>
<path d="M156.328 241.043H150.364V241.637H156.328V241.043Z" fill="black"/>
</svg>
