<svg width="461" height="465" viewBox="0 0 461 465" fill="none" xmlns="http://www.w3.org/2000/svg">
<path d="M248.167 326.842C248.167 326.842 259.846 340.409 284.927 340.511C324.683 340.68 334.859 316.336 334.859 316.336C334.859 316.336 365.818 330.441 385.785 309.288C405.757 288.135 400.964 261.325 400.964 261.325C415.313 252.665 425.229 236.922 426.896 220.134C428.567 203.346 421.949 185.927 409.589 174.554C412.777 148.403 390.462 122.004 364.353 121.065C361.89 98.5365 347.791 77.6357 327.92 67.0521C308.049 56.4685 282.982 56.5169 263.154 67.1732C256.167 60.0093 250.971 54.158 235.595 52.9083C210.595 50.8643 198.667 67.1732 198.667 67.1732C178.839 56.5169 153.772 56.4685 133.901 67.0521C114.03 77.6357 99.9313 98.5365 97.4679 121.065C71.3589 122.004 49.0341 148.403 52.2322 174.554C39.8717 185.918 33.2544 203.346 34.9255 220.134C36.6015 236.922 46.5082 252.665 60.8568 261.325C60.8568 261.325 56.0691 288.135 76.0362 309.288C96.008 330.441 126.962 316.336 126.962 316.336C126.962 316.336 147.971 343.034 176.894 340.511C201.884 338.336 213.654 326.842 213.654 326.842C213.654 326.842 227.023 336.805 248.162 326.842H248.167Z" fill="#FCA56B"/>
<path d="M105.987 170.553C106.155 156.095 118.914 146.838 132.706 149.376C135.846 149.958 138.804 148.044 138.881 144.634C139.04 137.819 141.306 131.43 146.425 126.945C152.457 121.665 160.519 119.258 168.327 121.2C174.421 122.721 177.019 113.237 170.916 111.716C159.885 108.97 148.898 112.143 140.235 119.384C132.802 125.603 129.344 135 129.123 144.634L135.299 139.892C124.628 137.926 114.366 139.951 106.145 147.39C99.5952 153.314 96.3394 161.796 96.2337 170.553C96.1617 176.889 105.915 176.889 105.987 170.553Z" fill="black"/>
<path d="M105.531 272.553C110.774 282.497 118.078 291.555 127.673 297.493C137.815 303.776 150.555 306.081 162.013 302.444C167.977 300.545 165.427 291.046 159.42 292.96C139.693 299.218 122.612 284.023 113.953 267.598C111.005 262.003 102.582 266.968 105.531 272.563V272.553Z" fill="black"/>
<path d="M324.366 119.137C327.267 120.556 330.119 122.087 332.842 123.835C334.134 124.664 335.402 125.54 336.621 126.48C336.079 126.063 336.669 126.528 336.9 126.712C337.193 126.955 337.486 127.207 337.783 127.454C338.412 127.991 339.018 128.548 339.613 129.115C340.626 130.089 341.591 131.12 342.499 132.196C342.725 132.467 342.946 132.743 343.167 133.014C344.036 134.099 342.633 132.23 343.426 133.368C343.82 133.949 344.228 134.516 344.602 135.121C345.351 136.308 346.029 137.538 346.619 138.817C346.682 138.953 347.143 140.217 346.787 139.185C346.898 139.515 347.032 139.844 347.152 140.173C347.407 140.905 347.632 141.646 347.829 142.392C348.497 144.877 351.325 146.645 353.827 145.826C356.329 145.007 357.947 142.435 357.232 139.776C353.486 125.831 341.606 116.667 329.284 110.641C326.988 109.522 323.905 109.934 322.614 112.409C321.456 114.613 321.912 117.94 324.366 119.137Z" fill="black"/>
<path d="M163.021 200.56C163.021 200.56 160.721 192.5 175.569 189.764C190.412 187.022 207.796 189.667 202.883 201.597C197.966 213.532 160.855 213.624 163.021 200.56Z" fill="black"/>
<path d="M313.293 185.496C313.293 185.496 311.122 177.393 326.013 174.908C340.905 172.428 358.235 175.358 353.126 187.206C348.012 199.054 310.911 198.511 313.293 185.496Z" fill="black"/>
<path d="M126.525 123.927C124.542 126.504 112.686 131.857 110.995 114.618C109.31 97.3788 131.942 70.6509 154.531 73.0292C177.125 75.4075 153.662 91.513 143.765 99.51C133.863 107.507 131.255 117.761 126.525 123.927Z" fill="black"/>
<path d="M312.222 79.3551C308.615 71.8328 294.305 71.3678 286.291 72.6126C285.397 72.7483 284.442 72.9517 283.813 73.6105C282.977 74.4823 283.006 75.9451 283.592 77.0156C284.173 78.0861 285.181 78.832 286.204 79.4908C293.422 84.1359 302.56 85.6133 310.853 83.4917C311.842 83.2447 312.981 82.7603 313.158 81.7576C313.245 81.2587 313.062 80.755 312.832 80.3094C311.468 77.6744 308.145 76.2503 305.316 77.0786" fill="#CCCCCC"/>
<path d="M316.428 76.8703C313.826 71.6778 307.967 69.0525 302.57 68.0159C296.903 66.9309 291.126 66.9358 285.441 67.798C283.39 68.1031 281.537 68.8491 280.115 70.433C278.31 72.4577 277.887 75.393 278.713 77.9408C279.995 81.9078 284.091 84.2231 287.645 85.8458C294.896 89.1589 302.887 90.1567 310.709 88.5583C313.182 88.0497 315.665 87.1584 317.077 84.8819C318.676 82.305 318.119 79.1372 316.38 76.7977C313.49 72.9033 308.736 71.1111 304.025 72.322C301.556 72.9566 299.818 75.8822 300.625 78.3719C301.451 80.9536 303.972 82.4891 306.623 81.8061C307.516 81.5784 306.695 81.748 306.503 81.7673C306.767 81.748 307.036 81.7673 307.3 81.748C307.108 81.7673 306.296 81.4912 307.189 81.7431C307.372 81.7916 307.578 81.8691 307.77 81.9078C308.409 82.0289 307.189 81.5009 307.713 81.8884C307.833 81.9756 308.582 82.3825 308.063 82.0483C307.593 81.748 308.111 82.1016 308.193 82.1694C309.221 82.9928 307.506 81.5009 308.438 82.4164C309.067 83.0412 308.034 84.8044 309.254 80.7066L309.864 78.6383C309.451 78.8659 309.413 78.8902 309.739 78.7255C310.239 78.5753 308.86 78.9047 308.615 78.9628C307.967 79.1033 307.324 79.2244 306.671 79.3212C307.453 79.2002 306.632 79.3212 306.498 79.3406C306.09 79.3697 305.677 79.4084 305.268 79.4423C304.034 79.5247 302.8 79.5295 301.571 79.4666C300.908 79.4326 300.255 79.3697 299.602 79.297C299.708 79.3067 300.255 79.3939 299.674 79.3067C299.271 79.2437 298.862 79.1759 298.454 79.0984C297.244 78.8659 296.048 78.5608 294.872 78.183C294.243 77.9795 293.619 77.7616 293.009 77.5242C292.778 77.4322 292.543 77.345 292.322 77.2481C293.071 77.5727 291.683 76.9284 291.683 76.9284C290.651 76.4198 289.638 75.8483 288.672 75.2234C288.428 75.0636 288.154 74.8941 287.914 74.71C288.572 75.2331 287.914 74.7003 287.861 74.5986C288.115 75.0733 287.827 74.8941 287.803 74.5162C287.827 74.9183 288.067 75.2137 288.005 75.6836C287.885 76.5652 287.328 76.88 286.761 77.3595C286.026 77.9698 286.243 77.5775 286.689 77.5242C287.169 77.4564 287.717 77.3789 288.187 77.2578C288.082 77.282 286.958 77.4031 287.827 77.3111C288.043 77.2869 288.259 77.2627 288.476 77.2384C288.922 77.1948 289.364 77.1512 289.82 77.1222C291.765 76.9769 293.71 76.943 295.65 77.0302C296.538 77.0737 297.422 77.1367 298.296 77.2336C298.55 77.2578 298.8 77.2966 299.055 77.3208C297.931 77.1997 298.632 77.2578 298.877 77.3062C299.429 77.4031 299.986 77.4903 300.538 77.6114C301.542 77.8197 302.536 78.0764 303.516 78.4058C303.737 78.4784 303.962 78.5608 304.178 78.6383C304.279 78.677 305.196 79.1469 304.553 78.7836C303.938 78.4397 304.577 78.8078 304.735 78.8902C304.98 79.0161 305.23 79.1372 305.47 79.2728C305.888 79.515 306.272 79.8105 306.695 80.0527C307.156 80.3191 306.306 79.8056 306.33 79.762C306.334 79.7572 306.988 80.3578 307.012 80.382C307.127 80.4886 307.223 80.6097 307.333 80.7114C308.025 81.3895 307.18 80.7598 307.242 80.537C307.213 80.6387 307.962 81.7189 308.015 81.84C309.173 84.1359 312.568 84.9787 314.685 83.608C317.014 82.0967 317.672 79.3406 316.438 76.88L316.428 76.8703Z" fill="black"/>
<path d="M376.517 241.059C373.818 243.849 369.66 251.725 380.719 256.07C391.768 260.419 407.764 249.787 414.842 231.144C421.916 212.495 412.091 207.564 404.167 207.521C396.244 207.482 387.418 229.792 376.527 241.059H376.517Z" fill="#737272"/>
<path d="M243.437 98.5364C244.239 98.8028 245.026 99.0983 245.819 99.4131C245.021 99.0983 245.905 99.4519 246.198 99.5924C246.52 99.7377 246.837 99.8878 247.149 100.048C248.599 100.774 250.001 101.593 251.346 102.494C251.696 102.726 252.047 102.973 252.393 103.215C252.566 103.341 253.56 104.097 252.758 103.463C253.372 103.947 253.958 104.446 254.539 104.959C255.754 106.044 256.902 107.202 257.978 108.423C258.256 108.742 258.535 109.067 258.803 109.396C258.876 109.483 259.601 110.384 259.216 109.895C258.866 109.449 259.639 110.471 259.73 110.583C259.937 110.873 260.134 111.164 260.335 111.46C261.281 112.869 262.141 114.337 262.9 115.858C263.058 116.173 263.212 116.492 263.361 116.812C263.423 116.943 263.951 118.129 263.711 117.587C263.457 116.991 263.894 118.066 263.942 118.178C264.095 118.575 264.239 118.977 264.374 119.379C264.921 120.992 265.354 122.629 265.69 124.305C266.189 126.834 269.306 128.514 271.687 127.735C274.348 126.868 275.63 124.392 275.087 121.685C272.086 106.519 260.508 93.8428 246.035 89.033C243.61 88.2289 240.599 89.963 240.032 92.4623C239.417 95.17 240.844 97.6452 243.437 98.5122V98.5364Z" fill="black"/>
<path d="M270.501 136.119C271.88 134.477 273.383 132.961 275.025 131.585C275.207 131.43 275.39 131.285 275.577 131.135C275.083 131.488 276.283 130.549 275.577 131.135C276.014 130.83 276.437 130.5 276.874 130.2C277.757 129.599 278.66 129.028 279.592 128.505C280.466 128.006 281.368 127.55 282.276 127.124C282.54 127.003 282.809 126.853 283.088 126.761C282.775 126.867 282.338 127.066 282.905 126.853C283.4 126.659 283.899 126.465 284.403 126.286C286.473 125.565 288.6 125.037 290.761 124.688C293.287 124.286 294.91 120.968 294.161 118.638C293.278 115.862 290.872 114.773 288.163 115.204C278.747 116.71 269.776 121.835 263.601 129.163C261.949 131.125 261.55 134.23 263.601 136.124C265.416 137.805 268.729 138.216 270.501 136.124V136.119Z" fill="black"/>
<path d="M89.2803 297.024C83.9548 291.104 73.4863 273.841 89.5732 259.141C105.665 244.445 131.904 257.397 136.595 266.518C136.595 266.518 150.06 267.893 160.663 279.697C160.663 279.697 183.785 262.149 207.512 270.921C231.24 279.697 232.632 289.472 239.979 290.669C247.331 291.865 253.473 278.327 271.976 279.93C290.473 281.538 295.914 297.397 295.914 297.397C295.914 297.397 318.815 292.025 323.204 279.295C327.593 266.561 348.252 261.625 358.855 271.584C369.458 281.538 369.247 300.962 354.72 306.198C340.204 311.419 331.968 304.662 330.777 306.198C329.591 307.728 316.774 326.924 293.542 329.477C261.997 332.959 249.54 317.551 249.54 317.551C249.54 317.551 230.26 324.919 212.146 315.943C212.146 315.943 209.366 316.234 201.976 319.755C185.865 327.428 161.629 329.157 146.387 319.755C131.159 310.358 128.893 304.996 125.368 302.289C124.254 301.431 122.914 301.005 121.522 301.034C114.919 301.175 98.0825 306.847 89.2611 297.024H89.2803Z" fill="#141414"/>
<path d="M132.778 268.441C142.132 280.356 158.92 285.437 173.302 281.185C175.823 280.439 177.413 277.731 176.702 275.135C176.011 272.597 173.245 270.945 170.704 271.701C169.221 272.146 167.698 272.514 166.162 272.713C166.829 272.626 165.898 272.723 165.657 272.747C165.317 272.781 164.976 272.805 164.63 272.819C163.857 272.858 163.088 272.878 162.315 272.868C161.542 272.858 160.769 272.81 159.996 272.747C159.564 272.708 159.136 272.674 158.714 272.611C159.247 272.684 158.69 272.601 158.474 272.563C156.855 272.258 155.261 271.894 153.7 271.395C150.944 270.514 148.754 269.443 146.046 267.603C143.918 266.159 141.623 263.965 139.678 261.495C138.045 259.417 134.492 259.77 132.778 261.495C130.742 263.553 131.14 266.368 132.778 268.455V268.441Z" fill="black"/>
<path d="M59.3297 233.193C64.055 240.531 69.8607 247.031 77.6689 251.081C85.5107 255.149 94.3273 256.675 103.067 255.551C105.684 255.212 107.946 253.532 107.946 250.63C107.946 248.237 105.699 245.375 103.067 245.714C99.0478 246.227 94.8459 246.281 91.1435 245.53C89.4676 245.191 87.8109 244.731 86.2022 244.159C85.8132 244.023 85.4243 243.873 85.0305 243.718C84.776 243.621 84.0124 243.287 84.6415 243.568C83.95 243.263 83.2729 242.933 82.6006 242.585C76.2619 239.301 71.6135 234.21 67.7574 228.233C66.3264 226.005 63.4403 225.084 61.0921 226.465C58.8975 227.758 57.9035 230.955 59.3393 233.193H59.3297Z" fill="black"/>
<path d="M279.64 167.928C293.191 173.44 309.811 169.517 319.8 158.87C321.61 156.938 321.696 153.828 319.8 151.91C317.975 150.069 314.719 149.972 312.899 151.91C310.728 154.23 309.259 155.412 306.44 157.005C305.773 157.383 305.076 157.717 304.385 158.066C304.231 158.144 303.669 158.395 304.135 158.192C303.746 158.362 303.343 158.517 302.944 158.662C301.494 159.2 300.01 159.631 298.502 159.96C297.835 160.105 297.158 160.236 296.481 160.338C296.14 160.396 296.144 160.396 296.505 160.338L295.996 160.396C295.65 160.43 295.309 160.459 294.973 160.483C293.436 160.595 291.899 160.595 290.363 160.483C290.017 160.459 289.686 160.43 289.34 160.396L288.831 160.338C289.201 160.386 289.205 160.386 288.865 160.338C288.187 160.226 287.52 160.1 286.857 159.936C285.273 159.568 283.726 159.064 282.218 158.444C279.774 157.446 276.864 159.529 276.221 161.873C275.457 164.688 277.176 166.93 279.621 167.928H279.64Z" fill="black"/>
<path d="M294.329 225.83C296.75 226.247 298.392 229.124 299.77 230.998C301.801 233.759 303.66 236.661 305.331 239.654C308.64 245.549 311.122 251.797 312.885 258.337C315.857 257.077 318.83 255.813 321.802 254.544C319.656 250.373 316.088 246.997 311.833 245.094C307.501 243.147 300.774 241.708 296.817 245.181C292.745 248.756 291.957 255.193 292.985 260.264C294.017 265.345 297.22 269.773 301.206 272.94C305.413 276.283 311.122 278.598 316.342 276.21C321.106 274.035 323.3 268.722 322.556 263.665C321.816 258.593 318.287 253.643 314.128 250.766C309.754 247.738 303.021 248.058 300.106 253.028C297.523 257.421 299.261 263.563 302.032 267.443C304.745 271.245 309.874 275.45 314.853 274.461C326.945 272.064 319.444 251.153 311.785 247.627C306.416 245.152 300.418 248.397 299.698 254.321C299.088 259.431 301.446 264.701 304.582 268.586C307.708 272.451 313.514 276.748 318.469 273.59C323.91 270.126 322.34 263.224 320.4 258.186C319.339 255.43 318.167 252.495 315.482 250.945C312.496 249.216 308.668 250.175 306.877 253.154C303.977 257.968 306.522 265.297 310.248 268.872C312.472 271.003 315.42 272.514 318.503 271.487C321.572 270.465 323.051 267.404 323.204 264.323C323.449 259.286 321.058 252.655 315.521 251.691C313.125 251.274 310.008 252.311 309.523 255.125C308.712 259.872 309.019 265.21 311.823 269.317C314.258 272.853 320.049 274.612 322.551 270.078C323.838 267.748 323.435 264.638 323.171 262.1C322.955 260.08 322.998 257.494 322.249 255.571C321.355 253.299 319.468 251.657 316.899 252.054C314.671 252.388 312.481 254.408 312.668 256.883C312.716 257.455 312.813 258.017 312.894 258.588C313.077 259.92 312.822 257.838 312.942 258.947C312.995 259.48 313.029 260.017 313.101 260.54C313.317 262.076 312.342 261.562 313.667 259.504C314.637 258.748 315.612 257.993 316.582 257.247L316.501 257.261C317.754 257.431 319.002 257.591 320.261 257.76L320.16 257.687C318.008 256.152 314.733 257.3 313.49 259.455C312.063 261.916 313.086 264.648 315.242 266.183C318.954 268.823 322.868 264.968 322.902 261.233C322.902 260.337 322.772 259.446 322.662 258.569C322.58 257.896 322.484 257.222 322.388 256.544C322.249 255.493 322.397 256.433 322.436 256.898C319.243 257.334 316.054 257.765 312.861 258.211C313.014 258.588 313.029 259.068 313.091 259.47C313.173 259.945 313.235 260.429 313.307 260.904C313.187 260.008 313.37 261.441 313.389 261.592C313.509 262.628 313.61 263.665 313.658 264.711C313.682 265.161 313.658 265.617 313.691 266.067C313.691 266.319 313.672 266.566 313.648 266.818C313.648 265.893 314.018 265.098 314.733 264.42L316.885 263.161C317.898 263.393 318.902 263.626 319.91 263.858C319.752 263.616 319.627 263.36 319.531 263.093C319.425 262.468 319.108 261.843 318.988 261.209C318.782 260.09 318.758 258.898 318.95 257.775C316.947 258.918 314.949 260.066 312.947 261.209C314.32 261.446 312.923 261.277 312.76 260.787C312.923 261.301 313.149 261.698 313.293 262.26C313.403 262.71 313.394 263.127 313.475 263.466C313.835 264.919 313.014 263.907 313.778 263.306L315.929 262.042C318.301 261.214 317.115 262.856 316.654 261.432C316.496 260.957 316.001 260.477 315.809 259.993C315.679 259.673 315.593 259.286 315.545 258.947L315.521 258.215C315.699 256.825 315.338 257.174 314.445 259.252L311.987 259.93C310.287 258.714 309.792 258.637 310.517 259.678C310.68 259.993 310.815 260.313 310.94 260.642C311.29 261.49 311.588 262.357 311.857 263.224C312.073 263.892 312.222 265.186 312.558 265.772C312.558 266.469 312.592 266.537 312.668 265.98C313.427 265.592 314.176 265.2 314.935 264.817C314.935 264.832 312.073 262.396 311.809 262.066C310.935 260.942 310.239 259.615 309.826 258.259C309.658 257.702 309.634 256.835 309.365 256.351C308.836 255.421 310.018 255.808 308.928 256.142C309.547 255.949 307.761 256.942 307.77 256.53C307.77 256.665 309.077 258.211 309.197 258.424C310.071 259.959 310.656 261.587 311.012 263.311C311.141 263.931 311.084 264.856 311.285 265.452C311.698 266.697 310.728 265.859 311.746 265.418C312.568 265.19 313.389 264.968 314.21 264.745C312.193 264.968 309.922 262.178 309.163 260.371C309.173 260.405 308.481 257.784 308.592 257.823C307.818 258.53 307.602 258.802 307.938 258.627C307.962 258.613 307.977 258.613 308.01 258.617C307.962 258.496 309.73 259.654 308.904 259.078C310.685 260.322 312.822 263.117 312.981 265.355C313.134 267.491 311.857 267.763 310.008 267.026C307.573 266.053 305.35 263.955 303.972 261.737C303.175 260.453 302.57 259.068 302.358 257.552C302.267 256.845 302.258 256.089 302.33 255.382C302.402 254.713 302.959 253.754 302.887 253.163L303.055 252.873C303.276 252.413 303.055 252.48 302.378 253.081C302.757 253.323 304.073 253.047 304.519 253.105C305.537 253.226 306.608 253.522 307.554 253.934C310.167 255.067 312.083 257.053 313.37 259.567C315.943 264.575 323.723 261.093 322.287 255.774C320.169 247.908 317.019 240.269 312.894 233.256C310.796 229.681 308.423 226.295 305.864 223.04C303.525 220.061 300.817 217.077 296.913 216.404C294.32 215.954 291.659 217.102 290.91 219.834C290.267 222.197 291.707 225.428 294.315 225.883L294.329 225.83Z" fill="black"/>
<path d="M320.947 263.04L321.005 262.43C320.198 263.844 319.396 265.258 318.589 266.673L317.37 266.939C316.222 266.455 315.069 265.97 313.922 265.501C314.925 266.392 315.338 268.378 315.881 269.574C316.558 271.085 317.269 272.577 318.018 274.059C319.497 277.014 321.106 279.916 322.834 282.735C326.287 288.378 330.22 293.749 334.518 298.763C338.412 303.321 342.715 308.092 348.108 310.857C353.405 313.575 359.316 314.238 365.141 313.284C374.99 311.676 385.372 305.239 389.819 295.982C394.534 286.159 393.872 274.437 393.872 263.81C393.872 257.479 384.119 257.47 384.119 263.81C384.119 272.834 385.3 284.222 380.671 292.412C376.152 300.409 364.694 305.738 355.796 303.369C350.086 301.848 345.98 297.043 342.22 292.742C338.143 288.072 334.494 283.064 331.248 277.77C327.982 272.427 325.682 266.721 322.82 261.185C319.819 255.372 311.842 256.046 311.189 263.03C310.599 269.332 320.352 269.293 320.942 263.03L320.947 263.04Z" fill="black"/>
<path d="M255.73 193.372C265.973 190.059 276.331 189.095 287.097 190.379C289.638 190.684 292.082 187.899 291.971 185.462C291.842 182.537 289.82 180.871 287.097 180.541C275.716 179.175 264.047 180.357 253.137 183.888C250.63 184.697 249.012 187.303 249.737 189.938C250.414 192.423 253.219 194.191 255.735 193.372H255.73Z" fill="black"/>
<path d="M76.4492 190.316C64.0598 197.354 52.1026 205.167 40.592 213.58C30.6613 220.841 20.6586 229.022 14.848 240.168C9.18638 251.032 7.52486 264.382 13.3258 275.551C18.8962 286.28 30.0514 292.19 40.7169 296.559C55.1951 302.492 69.9808 307.321 85.6788 308.251C84.5311 305.457 83.3738 302.652 82.2261 299.852C79.7578 302.967 77.0734 304.808 73.4094 306.261C67.6469 308.542 70.1008 318.016 75.9978 315.745C79.7578 314.296 82.6006 311.676 83.2873 307.515C84.0124 303.083 80.1468 300.153 76.1226 301.959C71.6807 303.96 66.9458 307.234 66.7874 312.683C66.6529 317.421 69.9904 322.26 74.9989 322.255C80.5838 322.235 84.7472 316.161 85.7796 311.163C86.8553 305.96 83.0952 301.678 77.7649 302.497C72.8236 303.253 71.09 307.07 70.6338 311.579C70.2065 315.822 70.1968 321.688 76.0218 321.853C80.0843 321.964 84.3294 318.05 87.081 315.464C90.2504 312.48 92.6658 308.862 92.0607 304.284C91.1819 297.702 84.6319 295.546 79.3736 299.005C74.1105 302.468 71.2389 308.528 71.2869 314.786C71.3109 318.22 74.3651 320.075 77.4624 319.528C81.6594 318.787 85.2466 316.006 86.9849 312.068C89.5252 306.338 81.1216 301.335 78.5621 307.103C77.7265 308.993 76.8669 309.685 74.8645 310.039C76.9198 311.623 78.9751 313.197 81.04 314.781C81.0256 312.504 81.5826 310.383 83.0952 308.624C84.0989 307.457 85.5491 307.641 83.5995 306.542C81.3329 305.273 83.2153 305.931 82.0196 306.624C80.6654 307.409 79.5081 309.211 78.2259 310.199C77.5729 310.698 76.6172 311.075 76.0842 311.661C75.143 312.688 74.9221 311.172 76.8669 311.981C77.837 312.737 78.807 313.492 79.7818 314.238C80.3052 315.076 79.8538 314.737 80.1084 313.977C80.2572 313.526 80.3965 312.504 80.3485 312.039C80.1228 310.039 80.5069 312.306 79.5177 312.078C78.3796 311.274 77.2463 310.48 76.1082 309.676C75.9497 310.223 75.7096 310.727 75.3831 311.196C74.6964 312.281 73.6784 312.311 75.4071 312.824C78.1155 313.623 75.6712 313.139 76.9198 312.737C78.1731 312.335 79.7482 311.032 81.0544 310.441C78.6677 308.591 76.2859 306.735 73.8945 304.885C74.0193 305.495 73.8608 305.946 73.4142 306.246C74.2738 309.404 75.143 312.567 76.0026 315.725C81.1936 313.672 85.5827 311.25 89.1267 306.789C91.7822 303.456 90.1399 298.656 85.6788 298.394C70.3793 297.474 55.4352 292.378 41.4612 286.271C29.3984 281.001 18.3872 272.49 19.4917 257.862C20.5865 243.534 31.5017 232.718 42.2103 224.513C54.5949 215.019 67.8294 206.47 81.3761 198.778C86.8409 195.678 81.9331 187.172 76.4492 190.282V190.316Z" fill="black"/>
<path d="M381.468 200.909C384.551 217.576 374.577 236.283 358.913 242.682C356.473 243.679 354.754 245.961 355.508 248.736C356.147 251.066 359.057 253.168 361.51 252.166C382.4 243.641 395.01 220.701 390.87 198.298C390.381 195.683 387.259 194.196 384.868 194.864C382.15 195.62 380.983 198.298 381.468 200.914V200.909Z" fill="black"/>
<path d="M204.429 148.732C201.712 147.303 198.196 148.902 196.468 151.469C194.739 154.031 194.384 157.272 194.158 160.362C193.975 162.919 193.879 165.593 194.921 167.942C195.968 170.282 198.494 172.147 200.953 171.541C204.41 170.708 205.289 166.213 205.481 162.624C205.577 160.812 205.668 159.006 205.764 157.199C205.88 155.044 205.976 152.777 205.049 150.834C204.127 148.887 201.812 147.434 199.839 148.238" fill="black"/>
<path d="M206.864 144.508C203.575 142.915 200.319 143.046 197.044 144.63C194.312 145.947 192.285 148.495 191.133 151.266C189.918 154.177 189.538 157.238 189.313 160.372C189.077 163.699 189.25 166.954 190.58 170.05C193.25 176.235 201.471 178.865 206.466 173.818C210.379 169.861 210.259 163.738 210.538 158.555C210.73 154.923 210.936 150.999 208.919 147.793C206.787 144.397 202.513 142.135 198.566 143.511C196.175 144.349 194.34 146.911 195.185 149.546C195.949 151.939 198.581 153.871 201.135 152.971C201.558 152.825 201.702 152.946 200.756 152.932C200.977 152.932 201.337 153.019 200.722 152.864C199.968 152.67 200.645 152.898 200.833 152.932C201.323 153.009 200.429 152.816 200.405 152.743C200.42 152.801 200.948 152.995 200.953 153.092L200.717 152.912C200.396 152.665 200.396 152.68 200.717 152.971C200.804 153.164 200.914 153.474 200.746 152.985C200.492 152.215 200.881 153.251 200.881 153.324C200.881 153.261 200.588 152.273 200.809 153.276C200.852 153.46 200.89 153.678 200.948 153.862C201.178 154.53 200.924 153.043 200.948 153.75C200.948 153.949 200.977 154.152 200.986 154.361C201.034 155.46 200.962 156.569 200.905 157.669C200.794 159.723 200.756 161.786 200.554 163.835C200.54 163.99 200.516 164.14 200.506 164.295C200.468 164.944 200.708 163.263 200.554 163.908C200.477 164.252 200.429 164.615 200.348 164.968C200.271 165.312 200.18 165.661 200.079 165.995C200.031 166.141 199.983 166.276 199.935 166.422C199.666 167.332 200.324 165.782 200.031 166.199C199.959 166.301 199.546 166.916 199.546 167.056C199.522 166.601 200.247 166.286 199.805 166.712C199.743 166.77 199.44 167.056 199.431 167.09C199.431 167.114 200.285 166.446 199.887 166.727C199.695 166.867 199.176 167.051 199.877 166.799C200.708 166.514 200.031 166.761 199.944 166.761C198.965 166.736 200.804 166.848 200.151 166.77C199.968 166.746 199.234 166.751 199.997 166.799C200.722 166.848 200.156 166.761 200.016 166.761C199.392 166.727 200.055 166.296 200.271 166.882C200.252 166.833 199.896 166.654 199.839 166.63C199.272 166.373 200.453 167.25 200.021 166.795C199.911 166.673 199.776 166.552 199.656 166.446C198.955 165.821 199.743 166.649 199.757 166.654C199.575 166.562 199.402 166.112 199.315 165.942C199.258 165.845 199.09 165.603 199.09 165.492L199.291 165.918L199.171 165.53C199.123 165.283 199.042 165.002 198.979 164.751C198.955 164.654 198.835 163.98 198.941 164.605C199.051 165.274 198.941 164.421 198.922 164.252C198.907 164.053 198.898 163.85 198.893 163.641C198.873 163.094 198.883 162.551 198.907 162.009C198.946 161.016 199.018 160.018 199.114 159.02C199.128 158.827 199.152 158.628 199.171 158.434C199.258 157.495 199.147 158.42 199.147 158.57C199.162 158.066 199.315 157.528 199.426 157.034C199.551 156.473 199.704 155.911 199.887 155.363C199.935 155.213 199.992 154.947 200.084 154.826C199.503 155.591 199.997 155.082 200.156 154.787C200.247 154.617 200.348 154.458 200.444 154.288C200.996 153.276 200.007 154.7 200.381 154.322C200.53 154.167 200.669 153.997 200.818 153.847C201.193 153.474 201.462 153.581 200.698 153.871C201.058 153.731 201.457 153.387 201.798 153.188C202.326 152.874 201.976 153.397 201.519 153.31C201.649 153.334 201.99 153.169 202.125 153.13C202.97 152.864 201.832 153.251 201.76 153.155C201.793 153.203 202.461 153.155 202.523 153.155C202.994 153.092 202.052 153.14 201.99 153.082C202.144 153.116 202.283 153.155 202.437 153.203C202.778 153.324 202.634 153.261 202 153.009C204.276 154.109 207.33 153.726 208.617 151.251C209.76 149.062 209.318 145.719 206.883 144.538L206.864 144.508Z" fill="black"/>
<mask id="mask0_174_1304" style="mask-type:luminance" maskUnits="userSpaceOnUse" x="376" y="6" width="50" height="64">
<path d="M376.176 6.6698H425.349V69.44H376.176V6.6698Z" fill="white"/>
</mask>
<g mask="url(#mask0_174_1304)">
<path d="M401.368 6.76179C406.261 6.6407 412.946 7.4932 416.936 10.351C420.927 13.204 424.538 20.3001 424.61 25.2455C424.682 30.1377 423.827 33.9062 421.368 38.1251C414.842 49.3044 405.925 59.0452 395.404 66.5046C394.232 67.3329 392.993 68.1515 391.591 68.4227C388.085 69.1057 384.661 65.8943 384.167 62.3148C383.682 58.7498 385.492 55.1944 387.97 52.5982C390.448 50.0068 393.569 48.1468 396.484 46.0591C399.399 43.9715 402.223 41.5012 403.673 38.2171C404.595 36.1198 404.916 33.7463 404.566 31.4794C404.244 29.3966 403.255 27.2702 401.416 26.2869C397.838 24.3834 393.766 27.6384 391.163 30.7577C388.556 33.8771 385.117 37.5099 381.213 36.4394C378.231 35.6209 376.599 32.1576 376.791 29.043C376.983 25.9334 378.553 23.1046 380.08 20.3969C380.08 20.3969 386.476 7.12023 401.353 6.76179H401.368Z" fill="black"/>
</g>
<path d="M389.036 75.1896C389.449 76.3424 389.847 78.1636 389.934 79.3794C390.222 83.3319 387.874 86.5143 384.119 87.6961C382.76 88.1224 381.309 88.2096 379.883 88.2289C377.828 88.2532 375.931 87.5266 374.058 86.6741C372.368 85.9136 371.095 84.2958 370.558 83.4288C368.569 80.2077 368.714 76.9914 370.558 73.7461C371.499 72.0896 373.141 70.2877 374.894 69.566C375.931 69.13 378.111 68.4229 379.22 68.5682C381.641 68.8733 382.231 69.0816 384.359 70.2974C384.359 70.2974 387.807 71.8086 389.046 75.1896H389.036Z" fill="black"/>
<path d="M386.923 77.0738C386.813 76.759 386.659 76.4199 386.356 76.2746C386.054 76.139 385.602 76.3424 385.631 76.6766C385.362 76.7832 385.026 78.0668 385.165 78.9919C385.242 79.5296 385.795 80.6388 386.063 81.1086C386.136 81.2249 386.232 81.346 386.356 81.3896C386.683 81.501 386.947 81.0893 387.034 80.7551C387.365 79.549 387.322 78.246 386.923 77.0738Z" fill="#CCCCCC"/>
<path d="M388.484 76.6378C388.32 76.1582 388.128 75.761 387.792 75.3687C387.403 74.9037 386.827 74.6518 386.241 74.6131C385.074 74.5162 383.994 75.4946 383.999 76.6862C384.272 76.2115 384.536 75.7465 384.805 75.2718C384.272 75.5285 383.994 76.1243 383.802 76.6474C383.643 77.0785 383.586 77.5484 383.528 77.994C383.475 78.4881 383.49 78.987 383.586 79.4762C383.667 79.8928 383.855 80.2851 384.018 80.6823C384.397 81.5735 384.887 82.7118 385.915 82.9782C386.851 83.2204 387.754 82.7796 388.263 81.9659C388.541 81.5251 388.671 80.9923 388.748 80.4885C388.95 79.2001 388.902 77.8923 388.484 76.6474C388.215 75.8337 387.355 75.2137 386.486 75.5043C385.689 75.761 385.06 76.6523 385.353 77.5242C385.482 77.902 385.569 78.2846 385.626 78.6721L385.569 78.2362C385.651 78.8174 385.651 79.3842 385.569 79.9654L385.626 79.5295C385.578 79.8685 385.521 80.2124 385.396 80.5273L385.564 80.1349C385.521 80.2221 385.473 80.2948 385.42 80.3771L385.675 80.0478C385.631 80.0962 385.588 80.1398 385.54 80.1834L385.867 79.9267C385.867 79.9267 385.799 79.9654 385.761 79.9799L386.15 79.8104L386.097 79.8298L386.524 79.7717C386.524 79.7717 386.448 79.7814 386.404 79.7717L386.837 79.8298L386.774 79.8104L387.163 79.9799C387.115 79.9654 387.077 79.9412 387.043 79.917L387.37 80.1737C387.37 80.1737 387.298 80.1107 387.274 80.072L387.528 80.4014C387.235 79.9896 387.019 79.481 386.827 79.0257L386.995 79.4181C386.885 79.1468 386.765 78.8562 386.717 78.5656L386.774 79.0015C386.726 78.6576 386.741 78.3089 386.779 77.9649L386.726 78.396C386.774 78.0667 386.837 77.747 386.966 77.4418L386.798 77.8342C386.827 77.7567 386.87 77.6743 386.918 77.6017L386.659 77.931C386.659 77.931 386.702 77.8826 386.726 77.8681L386.4 78.1248C386.4 78.1248 386.424 78.1103 386.438 78.1006C386.942 77.8584 387.25 77.2239 387.245 76.6862V76.6281C387.221 76.7734 387.202 76.9187 387.187 77.064C387.187 77.0253 387.197 76.9914 387.211 76.9574L387.043 77.3546C387.043 77.3546 387.077 77.2868 387.101 77.2626L386.846 77.5968C386.846 77.5968 386.894 77.5387 386.923 77.5242L386.597 77.7809C386.597 77.7809 386.659 77.7373 386.702 77.7228L386.308 77.8923C386.366 77.8681 386.424 77.8535 386.476 77.8439L386.049 77.902C386.112 77.902 386.16 77.902 386.222 77.902L385.795 77.8439C385.795 77.8439 385.871 77.8584 385.905 77.8778L385.516 77.7082C385.554 77.7228 385.593 77.747 385.631 77.7809L385.305 77.5242C385.377 77.5774 385.444 77.6404 385.506 77.7228L385.252 77.3934C385.324 77.4999 385.377 77.6017 385.425 77.7082L385.257 77.311C385.281 77.3789 385.314 77.4515 385.338 77.5145C385.482 77.9262 385.703 78.2701 386.087 78.4929C386.438 78.7012 386.947 78.7835 387.341 78.6624C388.128 78.4057 388.781 77.5145 388.469 76.6474L388.484 76.6378Z" fill="#CCCCCC"/>
<path d="M417.964 15.1416C417.042 15.0641 416.019 15.2772 415.596 16.1152C415.313 16.6771 415.313 17.3455 415.327 17.9801C415.399 22.3685 415.62 26.8974 414.069 31.0001C413.008 33.7949 411.106 36.5026 411.486 39.4766C411.63 40.6101 412.206 41.7919 413.258 42.223C414.093 42.5718 415.058 42.378 415.87 41.9857C418.362 40.7941 419.731 38.0526 420.514 35.3933C422.228 29.5421 421.94 23.1144 419.702 17.4472C419.702 17.4472 418.823 15.2143 417.964 15.1416Z" fill="#CCCCCC"/>
<path d="M440.529 68.326C443.991 69.4836 448.471 71.7844 450.56 74.8069C452.644 77.8294 453.413 83.7243 452.231 87.2069C451.06 90.6605 449.523 93.0872 446.743 95.4268C439.371 101.617 430.68 106.19 421.431 108.742C420.403 109.028 419.328 109.29 418.276 109.13C415.64 108.718 414.045 105.594 414.588 102.959C415.135 100.329 417.296 98.2991 419.688 97.1075C422.074 95.916 424.73 95.4122 427.294 94.6808C429.859 93.9591 432.456 92.9468 434.296 90.9996C435.467 89.7596 436.279 88.1805 436.605 86.4997C436.903 84.9546 436.745 83.2108 435.693 82.0532C433.662 79.8105 429.988 81.0602 427.381 82.586C424.778 84.1118 421.445 85.7925 418.977 84.0488C417.09 82.7119 416.811 79.8686 417.719 77.7374C418.626 75.611 420.432 74.0174 422.185 72.5061C422.185 72.5061 429.993 64.8143 440.529 68.3454V68.326Z" fill="black"/>
<path d="M411.654 112.656C411.654 113.567 411.481 114.947 411.241 115.824C410.458 118.677 408.014 120.309 405.08 120.178C404.014 120.13 402.976 119.825 401.973 119.471C400.523 118.967 399.375 117.979 398.27 116.904C397.272 115.935 396.787 114.472 396.628 113.736C396.033 110.97 396.94 108.742 399.048 106.936C400.124 106.01 401.728 105.168 403.14 105.105C403.975 105.066 405.68 105.119 406.429 105.507C408.052 106.335 408.412 106.63 409.599 108.021C409.599 108.021 411.644 109.958 411.663 112.651L411.654 112.656Z" fill="black"/>
<path d="M181.514 310.053C180.121 318.481 181.403 327.05 182.205 335.483C183.07 344.497 184.04 353.497 185.13 362.492C187.305 380.38 189.927 398.214 192.986 415.976C194.062 422.205 203.455 419.561 202.389 413.366C199.479 396.471 196.953 379.513 194.883 362.501C193.855 354.039 192.933 345.568 192.112 337.081C191.353 329.23 189.615 320.535 190.916 312.674C191.944 306.479 182.551 303.815 181.514 310.063V310.053Z" fill="black"/>
<mask id="mask1_174_1304" style="mask-type:luminance" maskUnits="userSpaceOnUse" x="159" y="410" width="44" height="23">
<path d="M159.813 410.44H202.84V432.61H159.813V410.44Z" fill="white"/>
</mask>
<g mask="url(#mask1_174_1304)">
<path d="M197.116 411.695C189.937 411.089 182.59 410.939 175.579 412.867C170.056 414.383 157.057 419.648 161.22 427.514C163.151 431.157 167.319 431.806 171.007 432.179C174.748 432.557 178.541 432.145 182.225 431.438C185.548 430.793 188.789 429.791 191.968 428.623C195.147 427.461 197.903 426.405 200.165 423.838C201.543 422.268 202.619 420.612 202.778 418.476C203.008 415.463 200.938 412.896 198.086 412.213C196.112 411.738 193.999 412.213 192.093 412.799C191.416 413.012 190.739 413.249 190.062 413.463C189.706 413.574 189.322 413.647 188.972 413.768C187.982 414.102 189.687 413.768 188.683 413.821C186.143 413.942 183.689 416.001 183.809 418.742C183.92 421.305 185.951 423.789 188.683 423.659C190.374 423.576 191.958 423.174 193.562 422.656C194.23 422.438 194.897 422.205 195.574 422.021C195.853 421.949 196.151 421.9 196.429 421.808C195.863 421.866 195.762 421.881 196.112 421.857C196.669 421.857 196.367 421.745 195.2 421.552L193.447 419.784C194.023 416.529 193.985 415.536 193.332 416.78C193.044 417.207 193.068 417.183 193.409 416.708C193.082 417.076 192.722 417.42 192.391 417.778C192.237 417.919 192.088 418.059 191.93 418.195C192.415 417.832 192.453 417.793 192.04 418.083C191.656 418.292 191.694 418.292 192.16 418.064C191.882 418.175 191.608 418.282 191.329 418.389C188.635 419.43 185.898 420.389 183.108 421.135C180.462 421.842 178.143 422.293 175.675 422.419C174.311 422.491 172.952 422.486 171.588 422.375C171.747 422.39 169.922 422.162 170.56 422.259C170.171 422.196 169.787 422.123 169.398 422.046C168.87 421.876 168.846 421.9 169.331 422.123C168.836 421.828 168.822 421.852 169.283 422.172C168.347 426.197 168.486 427.635 169.706 426.487C169.922 426.313 169.931 426.294 169.73 426.439C170.018 426.221 170.306 426.013 170.599 425.814C171.626 425.107 172.712 424.472 173.826 423.915C175.43 423.121 177.975 422.317 180.27 421.828C185.577 420.709 191.546 421.048 197.121 421.513C199.671 421.731 202.11 419.101 202 416.596C201.87 413.748 199.853 411.903 197.121 411.675L197.116 411.695Z" fill="black"/>
</g>
<path d="M280.187 312.664C281.493 320.525 279.76 329.22 278.991 337.072C278.17 345.558 277.248 354.03 276.221 362.492C274.156 379.508 271.625 396.461 268.715 413.356C267.649 419.546 277.042 422.205 278.117 415.967C281.176 398.205 283.798 380.38 285.974 362.482C287.03 353.758 287.981 345.02 288.826 336.268C289.662 327.588 291.03 318.719 289.59 310.044C288.552 303.815 279.16 306.459 280.187 312.659V312.664Z" fill="black"/>
<mask id="mask2_174_1304" style="mask-type:luminance" maskUnits="userSpaceOnUse" x="267" y="410" width="45" height="23">
<path d="M267.995 410.44H311.021V432.61H267.995V410.44Z" fill="white"/>
</mask>
<g mask="url(#mask2_174_1304)">
<path d="M273.988 421.527C279.573 421.062 285.532 420.723 290.838 421.842C293.143 422.327 295.669 423.131 297.287 423.93C298.401 424.487 299.487 425.112 300.514 425.829C300.457 425.79 301.821 426.71 301.23 426.357C302.56 427.684 302.752 426.294 301.821 422.196C302.282 421.866 302.267 421.852 301.773 422.147C302.248 421.929 302.224 421.9 301.705 422.065C301.422 422.133 301.124 422.186 300.841 422.234C300.538 422.293 300.145 422.351 299.516 422.399C298.152 422.501 296.793 422.515 295.429 422.443C292.927 422.307 290.651 421.857 287.995 421.159C285.345 420.462 282.655 419.527 280.053 418.524C279.688 418.379 279.313 418.234 278.943 418.088C279.409 418.316 279.448 418.316 279.063 418.108C278.276 417.735 279.524 418.636 278.871 417.953C278.482 417.541 278.069 417.163 277.695 416.737C278.036 417.212 278.06 417.236 277.772 416.809C277.119 415.56 277.08 416.562 277.656 419.817C277.071 420.404 276.49 420.99 275.904 421.585L274.809 421.881C275.265 421.915 275.303 421.905 274.929 421.876C274.612 421.828 274.593 421.832 274.89 421.891C275.035 421.924 275.179 421.954 275.313 421.997C276.067 422.186 276.802 422.443 277.541 422.685C279.145 423.208 280.72 423.61 282.42 423.692C284.97 423.814 287.405 421.343 287.294 418.771C287.174 416.005 285.153 413.981 282.42 413.855C281.537 413.816 282.396 413.855 282.555 413.894C282.194 413.816 281.839 413.724 281.489 413.622C280.879 413.443 280.283 413.244 279.688 413.051C278.165 412.552 276.61 412.111 275.001 412.053C269.791 411.869 266.588 417.279 269.358 421.784C271.097 424.608 273.613 426.512 276.634 427.703C279.875 428.977 283.174 430.13 286.569 430.958C290.027 431.801 293.628 432.353 297.191 432.348C300.846 432.348 305.609 432.13 308.423 429.447C309.859 428.081 310.647 426.294 310.599 424.303C310.536 421.6 308.702 419.842 306.728 418.321C304.034 416.248 301.023 414.756 297.835 413.622C290.219 410.915 281.926 411.055 273.988 411.724C271.457 411.932 268.984 413.84 269.114 416.645C269.224 419.125 271.265 421.784 273.988 421.561V421.527Z" fill="black"/>
</g>
</svg>
