<svg width="958" height="941" viewBox="0 0 958 941" fill="none" xmlns="http://www.w3.org/2000/svg">
<mask id="mask0_292_559" style="mask-type:luminance" maskUnits="userSpaceOnUse" x="102" y="215" width="711" height="490">
<path d="M102.187 215.803H812.384V704.368H102.187V215.803Z" fill="white"/>
</mask>
<g mask="url(#mask0_292_559)">
<path d="M111.068 672.639C112.196 676.305 113.313 679.971 114.8 683.451C117.594 690.596 120.947 697.556 124.859 704.339H703.561C703.372 697.193 703.002 690.224 702.813 683.451V683.078C702.813 679.598 702.813 676.119 703.002 672.639C704.858 638.557 717.532 608.141 735.973 578.823C762.987 535.949 799.511 495.094 808.452 443.976C821.126 370.686 792.246 292.632 713.62 271.743C663.684 258.364 613.379 276.87 564.561 284.937C524.505 291.534 483.52 284.016 445.879 270.646C438.993 268.264 432.098 265.696 425.202 262.951C379.558 245.356 334.282 224.468 286.392 217.871C252.114 213.107 220.44 219.704 201.25 244.621C196.41 250.855 192.488 258.001 189.514 266.617C188.955 268.077 188.397 269.548 188.017 271.008C184.295 283.29 182.808 295.749 182.249 308.384C181.311 333.673 184.485 359.688 180.753 384.605C177.589 406.042 169.576 425.656 160.076 444.711C143.49 477.685 122.434 509.022 113.124 544.927C110.509 555.19 108.274 565.816 106.597 576.627C101.758 608.514 101.758 642.037 111.068 672.639Z" fill="white"/>
</g>
<path d="M487.433 271.381C515.195 277.605 544.444 278.526 572.016 272.655C592.513 268.264 618.968 264.784 630.334 244.444C638.906 229.232 634.056 210 623.818 196.806C611.334 180.496 591.026 175.546 571.088 179.947C554.503 183.613 541.649 194.424 526.002 200.1C509.606 206.148 491.714 207.794 474.579 204.864C466.376 203.403 458.184 200.835 449.981 201.021C436.569 201.384 422.598 209.265 417.558 221.723C409.366 242.425 431.539 250.669 446.817 257.638C459.481 263.5 473.272 268.077 487.433 271.381Z" fill="white"/>
<path d="M414.205 454.601H408.617C407.689 450.386 406.013 446.357 403.777 442.691L407.879 438.663C409.366 437.192 409.366 434.997 407.879 433.526L398.927 424.734C397.44 423.273 395.205 423.273 393.718 424.734L389.806 428.586C386.074 426.381 381.973 424.548 377.692 423.45V417.774C377.692 415.755 376.015 414.108 373.969 414.108H361.296C359.25 414.108 357.574 415.755 357.574 417.774V423.273C353.283 424.185 349.181 425.832 345.459 428.037L341.358 423.999C339.871 422.538 337.635 422.538 336.138 423.999L327.197 432.801C325.71 434.261 325.71 436.457 327.197 437.927L331.109 441.77C328.874 445.436 327.017 449.474 325.9 453.679H320.122C318.066 453.679 316.39 455.336 316.39 457.345V469.804C316.39 471.823 318.066 473.47 320.122 473.47H325.71C326.638 477.685 328.315 481.713 330.55 485.379L326.459 489.408C324.962 490.878 324.962 493.074 326.459 494.544L335.4 503.337C336.887 504.807 339.122 504.807 340.619 503.337L344.531 499.494C348.253 501.69 352.355 503.523 356.636 504.621V510.296C356.636 512.315 358.312 513.962 360.368 513.962H373.031C375.087 513.962 376.764 512.315 376.764 510.296V504.807C381.045 503.886 385.146 502.239 388.868 500.043L392.97 504.072C394.457 505.532 396.692 505.532 398.189 504.072L407.13 495.279C408.617 493.809 408.617 491.613 407.13 490.143L403.218 486.301C405.454 482.635 407.32 478.606 408.437 474.391H414.205C416.261 474.391 417.938 472.735 417.938 470.725V458.267C417.938 456.248 416.261 454.601 414.205 454.601ZM366.884 487.399C353.841 487.399 343.224 476.95 343.224 464.128C343.224 450.749 354.77 439.947 368.561 440.858C380.296 441.593 389.986 451.121 390.734 462.658C391.483 476.038 380.486 487.399 366.884 487.399Z" fill="white"/>
<path d="M465.259 472.186C428.366 473.656 362.413 659.994 388.12 663.474C422.777 687.293 525.064 481.714 465.259 472.186Z" fill="#E8B1C3"/>
<path d="M468.053 464.864L467.683 510.669L466.935 600.995C466.935 600.995 466.187 602.093 464.889 604.298C464.51 604.847 464.141 605.396 463.772 605.945C462.654 607.778 461.157 610.16 459.481 612.905L438.614 599.162L399.306 572.785C409.365 547.133 419.983 522.206 427.437 508.65C446.997 472.735 468.053 464.864 468.053 464.864Z" fill="#EF8354"/>
<path d="M560.839 470.912L530.473 493.26L508.858 474.391V445.809L552.078 412.462L552.826 417.588L555.061 432.801L560.839 470.912Z" fill="#E8B1C3"/>
<path d="M553.574 422.901C541.839 445.985 514.446 457.346 509.047 459.002V452.954L549.283 417.775C549.283 417.775 550.78 417.588 553.016 417.588L553.574 422.901Z" fill="#E8B1C3"/>
<path d="M555.81 418.51C555.81 418.51 547.796 436.095 529.165 445.073C520.414 449.288 510.534 454.964 500.475 452.954C491.534 451.298 486.874 442.505 482.962 435.36C479.23 428.4 477.553 420.333 477.553 412.462C477.553 403.846 477.932 395.602 476.066 387.172C474.579 380.576 472.344 372.146 476.435 366.108C481.655 358.041 522.459 348.15 522.459 348.15L546.489 361.158L564.561 372.881L555.81 418.51Z" fill="#E8B1C3"/>
<path d="M521.711 319.744C521.711 319.744 513.518 318.284 508.299 324.145C503.269 329.821 518.547 328.909 518.727 328.546C518.917 328.174 521.711 319.744 521.711 319.744Z" fill="#5385EA"/>
<path d="M500.845 367.206C500.845 367.206 502.152 373.803 509.047 376.547C509.047 376.547 496.005 378.018 488.181 372.332C488.181 372.332 491.903 378.018 494.887 378.929C494.887 378.929 478.491 379.664 473.272 373.803L475.138 383.879C475.138 383.879 465.628 374.528 465.818 363.167C466.007 355.11 469.54 347.778 472.155 340.27C473.831 335.32 476.256 329.821 481.096 327.262C494.139 320.479 509.976 321.577 523.946 325.057C534.943 327.811 546.489 331.654 555.251 338.986C578.912 358.227 569.781 401.102 553.944 422.352C553.944 422.352 551.898 402.748 551.708 396.7C551.339 390.652 545.93 389.192 545.93 391.937C545.93 394.691 545.561 408.982 542.577 408.796C539.414 408.61 538.296 383.879 530.842 378.743C523.388 373.616 506.812 371.97 500.845 367.206Z" fill="#2D3142"/>
<path d="M652.697 674.285H450.909C445.879 612.356 438.994 515.982 444.582 496.005C450.909 473.107 463.393 463.58 482.583 459.551C488.361 458.267 501.962 456.983 509.047 456.434C515.005 487.948 559.163 456.983 559.163 456.983C559.163 456.983 569.781 458.081 577.425 458.444C595.307 459.551 626.053 465.227 632.38 491.428C635.364 504.072 638.906 537.046 642.629 574.245C644.684 595.32 646.92 617.669 649.155 638.743C650.273 651.564 651.39 663.474 652.697 674.285Z" fill="#EF8354"/>
<path d="M508.858 453.503L517.799 469.255L508.489 476.587L501.214 457.169" fill="#D4DEF9"/>
<path d="M517.799 469.255L557.676 448.739L565.679 458.443L523.577 480.616L517.799 469.255Z" fill="#D4DEF9"/>
<path d="M606.673 479.881C581.895 507.003 672.256 683.078 692.754 667.326C734.297 659.259 655.112 444.152 606.673 479.881Z" fill="#E8B1C3"/>
<path d="M687.345 569.668C687.345 569.668 717.163 643.135 704.3 659.445C691.447 675.756 568.663 685.097 568.663 685.097L563.444 651.937C563.444 651.937 648.776 631.411 648.965 630.127C649.155 628.843 628.288 592.566 628.288 592.566L687.345 569.668Z" fill="#E8B1C3"/>
<path d="M706.725 651.201C706.725 657.063 703.002 662.19 697.783 665.12C657.727 687.842 480.347 690.596 485.377 678.5C485.197 669.159 707.284 607.592 706.725 651.201Z" fill="#E8B1C3"/>
<path d="M626.981 597.329C614.307 574.608 598.47 544.751 594.379 530.087C594.379 530.087 566.617 474.205 587.294 464.864C590.088 463.58 595.866 461.561 598.66 462.296C619.716 467.246 641.7 482.263 656.609 503.337C666.479 517.442 679.711 543.094 690.518 570.031L626.981 597.329Z" fill="#EF8354"/>
<path d="M502.331 674.099H360.178V665.307H493.58C498.42 665.307 502.331 669.159 502.331 674.099Z" fill="#263156"/>
<path d="M247.084 674.099H429.673L412.159 563.806C411.601 560.689 408.806 558.307 405.643 558.307H236.646C232.554 558.307 229.381 561.973 230.129 565.816L247.084 674.099Z" fill="#263156"/>
<path d="M437.686 692.429C438.055 691.507 452.216 663.473 468.053 660.729C484.079 658.161 505.874 666.042 508.857 666.042C511.841 666.042 518.547 665.493 518.547 665.493L523.208 683.999C523.208 683.999 510.724 683.813 508.857 685.832C506.991 687.841 506.433 690.772 499.727 690.772C493.021 690.772 486.315 684.734 478.112 684.734C469.919 684.734 464.141 694.076 456.876 694.076C449.791 694.076 437.686 692.429 437.686 692.429Z" fill="#E8B1C3"/>
<path d="M548.165 383.693L540.721 383.507C541.28 367.569 539.414 330.928 520.034 324.145L521.531 319.744C550.96 327.439 548.355 381.125 548.165 383.693Z" fill="#5385EA"/>
<path d="M546.309 410.805C546.309 410.805 530.842 433.899 498.609 437.565" stroke="#263156" stroke-width="1.01288" stroke-miterlimit="10"/>
<path d="M503.079 437.565C503.079 438.144 502.91 438.702 502.571 439.241C502.231 439.78 501.742 440.261 501.114 440.672C500.485 441.084 499.766 441.398 498.938 441.623C498.12 441.849 497.262 441.957 496.373 441.957C495.485 441.957 494.627 441.849 493.809 441.623C492.981 441.398 492.262 441.084 491.633 440.672C491.005 440.261 490.516 439.78 490.176 439.241C489.837 438.702 489.667 438.144 489.667 437.565C489.667 436.977 489.837 436.418 490.176 435.879C490.516 435.34 491.005 434.86 491.633 434.448C492.262 434.036 492.981 433.723 493.809 433.497C494.627 433.272 495.485 433.164 496.373 433.164C497.262 433.164 498.12 433.272 498.938 433.497C499.766 433.723 500.485 434.036 501.114 434.448C501.742 434.86 502.231 435.34 502.571 435.879C502.91 436.418 503.079 436.977 503.079 437.565Z" fill="#263156"/>
<path d="M561.029 398.533C561.029 399.739 560.919 400.925 560.699 402.111C560.48 403.287 560.15 404.434 559.721 405.541C559.292 406.659 558.763 407.718 558.135 408.717C557.516 409.717 556.797 410.639 556.009 411.491C555.211 412.344 554.343 413.099 553.405 413.765C552.467 414.432 551.489 415 550.441 415.461C549.403 415.922 548.335 416.265 547.227 416.5C546.12 416.735 545.012 416.853 543.884 416.853C542.757 416.853 541.639 416.735 540.541 416.5C539.434 416.265 538.366 415.922 537.328 415.461C536.28 415 535.292 414.432 534.364 413.765C533.426 413.099 532.558 412.344 531.76 411.491C530.971 410.639 530.253 409.717 529.634 408.717C529.006 407.718 528.477 406.659 528.048 405.541C527.618 404.434 527.289 403.287 527.07 402.111C526.85 400.925 526.74 399.739 526.74 398.533C526.74 397.327 526.85 396.141 527.07 394.955C527.289 393.779 527.618 392.632 528.048 391.524C528.477 390.407 529.006 389.358 529.634 388.358C530.253 387.359 530.971 386.427 531.76 385.575C532.558 384.732 533.426 383.967 534.364 383.301C535.292 382.634 536.28 382.065 537.328 381.605C538.366 381.144 539.434 380.801 540.541 380.566C541.639 380.331 542.757 380.213 543.884 380.213C545.012 380.213 546.12 380.331 547.227 380.566C548.335 380.801 549.403 381.144 550.441 381.605C551.489 382.065 552.467 382.634 553.405 383.301C554.343 383.967 555.211 384.732 556.009 385.575C556.797 386.427 557.516 387.359 558.135 388.358C558.763 389.358 559.292 390.407 559.721 391.524C560.15 392.632 560.48 393.779 560.699 394.955C560.919 396.141 561.029 397.327 561.029 398.533Z" fill="#D4DEF9"/>
<path d="M565.499 398.533C565.499 399.739 565.39 400.925 565.17 402.111C564.951 403.287 564.621 404.434 564.192 405.541C563.763 406.659 563.234 407.718 562.605 408.717C561.987 409.717 561.268 410.639 560.48 411.491C559.682 412.344 558.813 413.099 557.875 413.765C556.947 414.432 555.959 415 554.911 415.461C553.874 415.922 552.806 416.265 551.698 416.5C550.6 416.735 549.483 416.853 548.355 416.853C547.227 416.853 546.12 416.735 545.012 416.5C543.904 416.265 542.837 415.922 541.799 415.461C540.761 415 539.773 414.432 538.835 413.765C537.897 413.099 537.029 412.344 536.23 411.491C535.442 410.639 534.734 409.717 534.105 408.717C533.476 407.718 532.947 406.659 532.518 405.541C532.089 404.434 531.76 403.287 531.54 402.111C531.321 400.925 531.211 399.739 531.211 398.533C531.211 397.327 531.321 396.141 531.54 394.955C531.76 393.779 532.089 392.632 532.518 391.524C532.947 390.407 533.476 389.358 534.105 388.358C534.734 387.359 535.442 386.427 536.23 385.575C537.029 384.732 537.897 383.967 538.835 383.301C539.773 382.634 540.761 382.065 541.799 381.605C542.837 381.144 543.904 380.801 545.012 380.566C546.12 380.331 547.227 380.213 548.355 380.213C549.483 380.213 550.6 380.331 551.698 380.566C552.806 380.801 553.874 381.144 554.911 381.605C555.959 382.065 556.947 382.634 557.875 383.301C558.813 383.967 559.682 384.732 560.48 385.575C561.268 386.427 561.987 387.359 562.605 388.358C563.234 389.358 563.763 390.407 564.192 391.524C564.621 392.632 564.951 393.779 565.17 394.955C565.39 396.141 565.499 397.327 565.499 398.533Z" fill="#263156"/>
<path d="M563.633 398.719C563.633 399.543 563.563 400.366 563.424 401.18C563.274 401.993 563.064 402.787 562.785 403.552C562.505 404.326 562.156 405.052 561.747 405.738C561.338 406.434 560.879 407.071 560.36 407.659C559.841 408.247 559.272 408.767 558.663 409.227C558.055 409.688 557.406 410.08 556.738 410.394C556.059 410.717 555.36 410.952 554.632 411.119C553.913 411.276 553.185 411.364 552.456 411.364C551.718 411.364 550.99 411.276 550.271 411.119C549.553 410.952 548.854 410.717 548.175 410.394C547.497 410.08 546.858 409.688 546.239 409.227C545.631 408.767 545.072 408.247 544.553 407.659C544.034 407.071 543.565 406.434 543.156 405.738C542.757 405.052 542.407 404.326 542.128 403.552C541.849 402.787 541.629 401.993 541.489 401.18C541.35 400.366 541.28 399.543 541.28 398.719C541.28 397.886 541.35 397.063 541.489 396.249C541.629 395.436 541.849 394.642 542.128 393.877C542.407 393.113 542.757 392.387 543.156 391.691C543.565 391.005 544.034 390.368 544.553 389.78C545.072 389.192 545.631 388.662 546.239 388.202C546.858 387.741 547.497 387.359 548.175 387.035C548.854 386.722 549.553 386.477 550.271 386.32C550.99 386.153 551.718 386.075 552.456 386.075C553.185 386.075 553.913 386.153 554.632 386.32C555.36 386.477 556.059 386.722 556.738 387.035C557.406 387.359 558.055 387.741 558.663 388.202C559.272 388.662 559.841 389.192 560.36 389.78C560.879 390.368 561.338 391.005 561.747 391.691C562.156 392.387 562.505 393.113 562.785 393.877C563.064 394.642 563.274 395.436 563.424 396.249C563.563 397.063 563.633 397.886 563.633 398.719Z" fill="#5385EA"/>
<path d="M388.868 351.816C389.237 353.091 396.692 391.025 396.692 391.025L357.194 381.674L388.868 351.816Z" fill="#5385EA"/>
<path d="M404.146 321.4C404.146 323.851 403.987 326.301 403.667 328.742C403.358 331.183 402.879 333.614 402.25 336.015C401.612 338.427 400.823 340.799 399.885 343.151C398.947 345.494 397.859 347.807 396.612 350.071C395.375 352.346 393.997 354.561 392.461 356.717C390.934 358.884 389.277 360.991 387.471 363.03C385.675 365.069 383.749 367.039 381.693 368.94C379.637 370.832 377.462 372.646 375.167 374.39C372.882 376.125 370.477 377.772 367.982 379.321C365.477 380.879 362.872 382.34 360.178 383.702C357.484 385.065 354.709 386.329 351.855 387.486C348.991 388.643 346.067 389.691 343.074 390.632C340.08 391.573 337.036 392.397 333.933 393.112C330.829 393.818 327.696 394.416 324.512 394.896C321.339 395.377 318.136 395.73 314.913 395.975C311.689 396.21 308.456 396.337 305.213 396.337C301.97 396.337 298.746 396.21 295.513 395.975C292.29 395.73 289.086 395.377 285.913 394.896C282.74 394.416 279.596 393.818 276.493 393.112C273.399 392.397 270.346 391.573 267.352 390.632C264.358 389.691 261.434 388.643 258.58 387.486C255.716 386.329 252.942 385.065 250.248 383.702C247.553 382.34 244.959 380.879 242.454 379.321C239.949 377.772 237.544 376.125 235.259 374.39C232.964 372.646 230.788 370.832 228.732 368.94C226.677 367.039 224.751 365.069 222.954 363.03C221.158 360.991 219.492 358.884 217.965 356.727C216.438 354.561 215.051 352.346 213.814 350.071C212.576 347.807 211.478 345.494 210.54 343.151C209.602 340.799 208.814 338.427 208.185 336.015C207.547 333.614 207.078 331.183 206.758 328.742C206.439 326.301 206.279 323.851 206.279 321.4C206.279 318.94 206.439 316.49 206.758 314.049C207.078 311.608 207.547 309.187 208.185 306.776C208.814 304.374 209.602 301.992 210.54 299.64C211.478 297.297 212.576 294.984 213.814 292.719C215.051 290.455 216.438 288.24 217.965 286.074C219.492 283.907 221.158 281.8 222.954 279.761C224.751 277.722 226.677 275.752 228.732 273.86C230.788 271.959 232.964 270.145 235.259 268.41C237.544 266.675 239.949 265.029 242.454 263.47C244.959 261.911 247.553 260.451 250.248 259.089C252.942 257.726 255.716 256.462 258.58 255.305C261.434 254.148 264.358 253.099 267.352 252.158C270.346 251.227 273.399 250.394 276.493 249.688C279.596 248.973 282.74 248.375 285.913 247.895C289.086 247.414 292.29 247.061 295.513 246.816C298.746 246.581 301.97 246.454 305.213 246.454C308.456 246.454 311.689 246.581 314.913 246.816C318.136 247.061 321.339 247.414 324.512 247.895C327.696 248.375 330.829 248.973 333.933 249.688C337.036 250.394 340.08 251.227 343.074 252.158C346.067 253.099 348.991 254.148 351.855 255.305C354.709 256.462 357.484 257.726 360.178 259.089C362.872 260.451 365.477 261.911 367.982 263.47C370.477 265.029 372.882 266.675 375.167 268.41C377.462 270.145 379.637 271.959 381.693 273.86C383.749 275.752 385.675 277.722 387.471 279.761C389.277 281.8 390.934 283.907 392.461 286.074C393.997 288.24 395.375 290.455 396.612 292.719C397.859 294.984 398.947 297.297 399.885 299.64C400.823 301.992 401.612 304.374 402.25 306.776C402.879 309.187 403.358 311.608 403.667 314.049C403.987 316.49 404.146 318.94 404.146 321.4Z" fill="#EF8354"/>
<path d="M274.287 321.401C274.287 322.175 274.207 322.949 274.048 323.724C273.898 324.488 273.669 325.233 273.359 325.959C273.06 326.674 272.691 327.36 272.242 328.017C271.802 328.664 271.304 329.262 270.735 329.821C270.176 330.37 269.567 330.87 268.899 331.301C268.24 331.732 267.541 332.105 266.813 332.399C266.074 332.703 265.316 332.928 264.538 333.075C263.759 333.232 262.971 333.31 262.173 333.31C261.384 333.31 260.596 333.232 259.808 333.075C259.029 332.928 258.271 332.703 257.542 332.399C256.804 332.105 256.105 331.732 255.447 331.301C254.788 330.87 254.169 330.37 253.61 329.821C253.052 329.262 252.543 328.664 252.104 328.017C251.665 327.36 251.295 326.674 250.986 325.959C250.687 325.233 250.457 324.488 250.297 323.724C250.138 322.949 250.068 322.175 250.068 321.401C250.068 320.617 250.138 319.842 250.297 319.078C250.457 318.303 250.687 317.558 250.986 316.843C251.295 316.117 251.665 315.431 252.104 314.784C252.543 314.128 253.052 313.53 253.61 312.971C254.169 312.422 254.788 311.932 255.447 311.491C256.105 311.06 256.804 310.697 257.542 310.393C258.271 310.099 259.029 309.873 259.808 309.717C260.596 309.56 261.384 309.491 262.173 309.491C262.971 309.491 263.759 309.56 264.538 309.717C265.316 309.873 266.074 310.099 266.813 310.393C267.541 310.697 268.24 311.06 268.899 311.491C269.567 311.932 270.176 312.422 270.735 312.971C271.304 313.53 271.802 314.128 272.242 314.784C272.691 315.431 273.06 316.117 273.359 316.843C273.669 317.558 273.898 318.303 274.058 319.078C274.207 319.842 274.287 320.617 274.287 321.401Z" fill="#2D3142"/>
<path d="M317.327 321.401C317.327 322.175 317.248 322.949 317.088 323.724C316.938 324.488 316.709 325.233 316.399 325.959C316.1 326.674 315.721 327.36 315.282 328.017C314.843 328.664 314.344 329.262 313.775 329.821C313.216 330.37 312.607 330.87 311.939 331.301C311.28 331.732 310.581 332.105 309.853 332.399C309.114 332.703 308.356 332.928 307.578 333.075C306.799 333.232 306.011 333.31 305.213 333.31C304.414 333.31 303.636 333.232 302.848 333.075C302.069 332.928 301.311 332.703 300.582 332.399C299.844 332.105 299.145 331.732 298.487 331.301C297.828 330.87 297.209 330.37 296.651 329.821C296.092 329.262 295.583 328.664 295.144 328.017C294.705 327.36 294.325 326.674 294.026 325.959C293.717 325.233 293.487 324.488 293.337 323.724C293.178 322.949 293.108 322.175 293.108 321.401C293.108 320.617 293.178 319.842 293.337 319.078C293.487 318.303 293.717 317.558 294.026 316.843C294.325 316.117 294.705 315.431 295.144 314.784C295.583 314.128 296.092 313.53 296.651 312.971C297.209 312.422 297.828 311.932 298.487 311.491C299.145 311.06 299.844 310.697 300.582 310.393C301.311 310.099 302.069 309.873 302.848 309.717C303.636 309.56 304.414 309.491 305.213 309.491C306.011 309.491 306.799 309.56 307.578 309.717C308.356 309.873 309.114 310.099 309.853 310.393C310.581 310.697 311.28 311.06 311.939 311.491C312.607 311.932 313.216 312.422 313.775 312.971C314.344 313.53 314.843 314.128 315.282 314.784C315.721 315.431 316.1 316.117 316.399 316.843C316.709 317.558 316.938 318.303 317.088 319.078C317.248 319.842 317.327 320.617 317.327 321.401Z" fill="#2D3142"/>
<path d="M360.178 321.401C360.178 322.175 360.098 322.949 359.948 323.724C359.789 324.488 359.559 325.233 359.26 325.959C358.95 326.674 358.581 327.36 358.132 328.017C357.693 328.664 357.194 329.262 356.625 329.821C356.067 330.37 355.458 330.87 354.799 331.301C354.131 331.732 353.432 332.105 352.704 332.399C351.965 332.703 351.207 332.928 350.428 333.075C349.65 333.232 348.862 333.31 348.063 333.31C347.275 333.31 346.487 333.232 345.708 333.075C344.92 332.928 344.171 332.703 343.433 332.399C342.694 332.105 341.996 331.732 341.337 331.301C340.679 330.87 340.07 330.37 339.501 329.821C338.942 329.262 338.443 328.664 337.994 328.017C337.555 327.36 337.186 326.674 336.877 325.959C336.577 325.233 336.348 324.488 336.188 323.724C336.038 322.949 335.958 322.175 335.958 321.401C335.958 320.617 336.038 319.842 336.188 319.078C336.348 318.303 336.577 317.558 336.877 316.843C337.186 316.117 337.555 315.431 337.994 314.784C338.443 314.128 338.942 313.53 339.501 312.971C340.07 312.422 340.679 311.932 341.337 311.491C341.996 311.06 342.694 310.697 343.433 310.393C344.171 310.099 344.92 309.873 345.708 309.717C346.487 309.56 347.275 309.491 348.063 309.491C348.862 309.491 349.65 309.56 350.428 309.717C351.207 309.873 351.965 310.099 352.704 310.393C353.432 310.697 354.131 311.06 354.799 311.491C355.458 311.932 356.067 312.422 356.625 312.971C357.194 313.53 357.693 314.128 358.132 314.784C358.581 315.431 358.95 316.117 359.26 316.843C359.559 317.558 359.789 318.303 359.948 319.078C360.098 319.842 360.178 320.617 360.178 321.401Z" fill="#2D3142"/>
<mask id="mask1_292_559" style="mask-type:luminance" maskUnits="userSpaceOnUse" x="54" y="672" width="784" height="14">
<path d="M54.0571 672.501H837.701V685.048H54.0571V672.501Z" fill="white"/>
</mask>
<g mask="url(#mask1_292_559)">
<path d="M54.0571 672.639H837.701V683.45H54.0571V672.639Z" fill="#D4DEF9"/>
</g>
<mask id="mask2_292_559" style="mask-type:luminance" maskUnits="userSpaceOnUse" x="68" y="682" width="753" height="23">
<path d="M68.9761 682.539H820.048V704.368H68.9761V682.539Z" fill="white"/>
</mask>
<g mask="url(#mask2_292_559)">
<path d="M69.3354 683.45H819.07V704.338H69.3354V683.45Z" fill="#D4DEF9"/>
</g>
<mask id="mask3_292_559" style="mask-type:luminance" maskUnits="userSpaceOnUse" x="597" y="682" width="224" height="23">
<path d="M597.792 682.539H820.048V704.368H597.792V682.539Z" fill="white"/>
</mask>
<g mask="url(#mask3_292_559)">
<path d="M598.85 683.45H819.07V704.338H598.85V683.45Z" fill="#D4DEF9"/>
</g>
<mask id="mask4_292_559" style="mask-type:luminance" maskUnits="userSpaceOnUse" x="585" y="672" width="253" height="14">
<path d="M585.019 672.501H837.701V685.048H585.019V672.501Z" fill="white"/>
</mask>
<g mask="url(#mask4_292_559)">
<path d="M585.058 672.639H837.701V683.45H585.058V672.639Z" fill="white"/>
</g>
<path d="M732.251 334.957C732.251 337.515 731.992 340.054 731.483 342.573C730.974 345.082 730.225 347.523 729.228 349.885C728.23 352.257 727.012 354.502 725.565 356.639C724.118 358.766 722.472 360.736 720.626 362.55C718.779 364.363 716.784 365.98 714.608 367.402C712.443 368.833 710.157 370.029 707.752 371.009C705.347 371.989 702.863 372.734 700.308 373.234C697.753 373.734 695.169 373.979 692.564 373.979C689.96 373.979 687.375 373.734 684.82 373.234C682.266 372.734 679.781 371.989 677.376 371.009C674.971 370.029 672.686 368.833 670.52 367.402C668.355 365.98 666.349 364.363 664.503 362.55C662.657 360.736 661.01 358.766 659.563 356.639C658.116 354.502 656.899 352.257 655.901 349.885C654.903 347.523 654.154 345.082 653.645 342.573C653.136 340.054 652.877 337.515 652.877 334.957C652.877 332.389 653.136 329.85 653.645 327.34C654.154 324.831 654.903 322.39 655.901 320.018C656.899 317.656 658.116 315.402 659.563 313.274C661.01 311.138 662.657 309.167 664.503 307.354C666.349 305.55 668.355 303.933 670.52 302.502C672.686 301.081 674.971 299.875 677.376 298.895C679.781 297.915 682.266 297.179 684.82 296.68C687.375 296.18 689.96 295.925 692.564 295.925C695.169 295.925 697.753 296.18 700.308 296.68C702.863 297.179 705.347 297.915 707.752 298.895C710.157 299.875 712.443 301.081 714.608 302.502C716.784 303.933 718.779 305.55 720.626 307.354C722.472 309.167 724.118 311.138 725.565 313.274C727.012 315.402 728.23 317.656 729.228 320.018C730.225 322.39 730.974 324.831 731.483 327.34C731.992 329.85 732.251 332.389 732.251 334.957Z" fill="#2D3142"/>
<path d="M726.843 334.957C726.843 337.172 726.623 339.358 726.184 341.534C725.745 343.7 725.096 345.808 724.238 347.856C723.38 349.905 722.322 351.846 721.065 353.689C719.817 355.522 718.4 357.227 716.803 358.796C715.217 360.364 713.48 361.756 711.614 362.991C709.738 364.216 707.762 365.255 705.687 366.098C703.601 366.951 701.456 367.588 699.25 368.019C697.045 368.451 694.819 368.666 692.564 368.666C690.309 368.666 688.083 368.451 685.878 368.019C683.673 367.588 681.527 366.951 679.441 366.098C677.366 365.255 675.39 364.216 673.514 362.991C671.648 361.756 669.911 360.364 668.325 358.796C666.728 357.227 665.311 355.522 664.064 353.689C662.806 351.846 661.748 349.905 660.89 347.856C660.032 345.808 659.383 343.7 658.944 341.534C658.505 339.358 658.286 337.172 658.286 334.957C658.286 332.742 658.505 330.546 658.944 328.38C659.383 326.204 660.032 324.096 660.89 322.057C661.748 320.009 662.806 318.068 664.064 316.225C665.311 314.382 666.728 312.677 668.325 311.118C669.911 309.55 671.648 308.158 673.514 306.923C675.39 305.698 677.366 304.659 679.441 303.806C681.527 302.963 683.673 302.326 685.878 301.895C688.083 301.453 690.309 301.238 692.564 301.238C694.819 301.238 697.045 301.453 699.25 301.895C701.456 302.326 703.601 302.963 705.687 303.806C707.762 304.659 709.738 305.698 711.614 306.923C713.48 308.158 715.217 309.55 716.803 311.118C718.4 312.677 719.817 314.382 721.065 316.225C722.322 318.068 723.38 320.009 724.238 322.057C725.096 324.096 725.745 326.204 726.184 328.38C726.623 330.546 726.843 332.742 726.843 334.957Z" fill="white"/>
<path d="M679.711 339.907L692.564 334.956V310.951" stroke="#263156" stroke-width="2.26707" stroke-miterlimit="10" stroke-linecap="round"/>
<path d="M761.131 653.946C759.824 650.829 754.235 638.743 752.748 631.048C751.441 623.354 747.15 617.12 746.97 613.454C746.781 609.611 753.307 607.406 754.984 599.535C756.66 591.654 760.013 578.823 762.059 579.195C764.105 579.558 765.601 593.663 767.468 597.153C769.513 600.633 774.732 604.847 770.631 609.974C766.53 615.1 768.765 620.972 772.497 626.098C776.219 631.225 765.601 637.822 766.53 644.967C767.647 652.113 765.601 661.641 765.601 661.641L761.131 653.946Z" fill="#737272"/>
<path d="M762.987 638.743C762.618 638.743 762.428 638.557 762.428 638.194C761.87 633.43 760.383 629.951 759.265 627.01C758.337 624.814 757.589 622.805 757.399 620.972C757.399 618.767 758.517 616.934 759.824 615.287C760.942 613.64 762.249 612.17 762.428 609.974C762.987 605.573 758.896 595.683 758.896 595.496C758.706 595.134 758.896 594.771 759.265 594.771C759.634 594.585 760.013 594.771 760.013 595.134C760.193 595.496 764.295 605.396 763.546 610.16C763.177 612.542 761.87 614.375 760.752 616.022C759.455 617.669 758.517 619.139 758.517 620.972C758.517 622.619 759.265 624.265 760.193 626.647C761.311 629.578 762.808 633.244 763.366 638.008C763.546 638.371 763.366 638.743 762.987 638.743Z" fill="#D4DEF9"/>
<path d="M750.513 651.564C749.016 650.829 748.457 642.585 745.663 641.301C742.869 640.027 740.823 636.175 739.885 632.146C738.957 628.118 730.575 626.461 729.078 622.07C727.591 617.668 732.251 614.738 731.872 610.709C731.503 606.68 728.15 600.995 730.575 598.427C733 595.869 737.47 604.847 739.885 606.857C742.31 608.69 746.781 610.709 745.474 614.189C744.176 617.668 746.033 623.167 754.046 626.285C762.249 629.215 767.647 659.082 750.513 651.564Z" fill="#737272"/>
<path d="M751.81 637.273C751.631 637.273 751.251 637.096 751.251 636.91C749.575 632.146 747.15 630.127 744.176 627.931C742.679 626.834 741.192 625.55 739.516 623.903C734.856 618.953 737.091 610.337 737.091 609.974C737.091 609.611 737.47 609.425 737.839 609.611C738.209 609.611 738.398 609.974 738.209 610.337C738.209 610.337 736.163 618.766 740.264 623.168C741.751 624.814 743.238 625.912 744.735 627.01C747.709 629.216 750.513 631.411 752.19 636.538C752.369 636.91 752.19 637.273 751.81 637.273Z" fill="#D4DEF9"/>
<path d="M765.791 652.486C766.16 651.202 766.53 645.889 769.513 644.605C772.497 643.321 775.291 642.586 777.706 638.92C779.942 635.263 777.706 629.392 780.131 625.55C782.556 621.697 788.334 625.363 791.308 621.521C794.292 617.669 787.775 610.895 790.011 607.955C792.246 605.024 795.409 597.329 792.246 596.231C789.072 595.134 780.321 600.809 778.085 605.759C775.85 610.709 771.19 613.64 770.072 617.482C768.954 621.335 765.601 623.53 764.853 627.383C764.105 631.225 765.232 637.273 763.735 641.674C762.428 645.703 765.791 652.486 765.791 652.486Z" fill="#737272"/>
<path d="M773.236 674.648H746.971C745.105 674.648 743.428 673.187 743.428 671.354L742.311 643.869H777.896L776.779 671.354C776.589 673.187 775.102 674.648 773.236 674.648Z" fill="#EF8354"/>
<path d="M771.559 638.008C771.19 638.008 770.821 637.645 771 637.273C771.749 626.647 775.471 620.786 779.573 616.208C782.556 612.719 784.422 605.759 784.422 605.759C784.422 605.396 784.792 605.21 785.161 605.396C785.54 605.396 785.72 605.759 785.54 606.132C785.54 606.494 783.484 613.277 780.321 617.12C776.409 621.697 772.867 627.196 772.118 637.645C772.118 637.822 771.939 638.008 771.559 638.008Z" fill="#D4DEF9"/>
<mask id="mask5_292_559" style="mask-type:luminance" maskUnits="userSpaceOnUse" x="158" y="599" width="98" height="106">
<path d="M158.389 599.73H255.466V704.368H158.389V599.73Z" fill="white"/>
</mask>
<g mask="url(#mask5_292_559)">
<path d="M202.557 642.957C202.557 642.957 215.041 634.528 215.779 644.79C216.527 655.043 199.383 667.688 199.383 667.688" stroke="#263156" stroke-width="1.44586" stroke-miterlimit="10"/>
</g>
<path d="M196.22 672.639H181.311C177.22 672.639 173.857 669.708 173.488 665.679L170.135 635.077H207.587L204.234 665.679C203.675 669.708 200.322 672.639 196.22 672.639Z" fill="#263156"/>
<path d="M205.72 446.906C205.72 446.72 205.72 446.72 205.72 446.906C207.397 445.436 208.884 444.152 210.191 442.692L210.75 442.143C211.498 441.407 212.247 440.672 213.175 439.761C216.897 436.095 221.557 436.281 225.28 439.947L237.764 452.219C239.63 453.866 240.558 455.885 240.558 458.081C240.558 460.1 239.63 462.109 237.764 463.942L229.94 471.637C229.76 471.823 229.381 472.186 229.381 472.558C229.381 472.558 229.381 472.735 229.571 473.107V473.294C229.94 474.019 230.499 474.94 230.878 475.676C231.247 476.401 231.616 477.322 232.175 478.057C236.646 484.831 242.234 491.065 249.689 496.926C253.79 500.043 257.143 502.053 260.496 503.523C261.245 503.7 261.434 503.7 261.993 503.151C263.669 501.318 265.526 499.495 267.581 497.475C267.951 497.113 268.509 496.554 268.879 496.191L269.437 495.642C273.17 491.976 277.83 491.976 281.552 495.642L287.699 501.69C288.069 502.053 288.448 502.425 288.817 502.788C289.186 503.151 289.565 503.523 289.935 503.7C291.431 505.17 292.729 506.454 294.036 507.738C295.713 509.385 296.641 511.404 296.641 513.414C296.641 515.433 295.713 517.442 294.036 519.275L286.392 526.793C283.977 529.175 280.804 530.636 277.451 530.822C272.79 531.185 267.761 530.459 261.803 528.077C252.114 524.588 243.172 519.275 233.482 511.404C221.927 501.876 212.806 490.516 206.279 477.322C203.854 472.372 201.06 465.962 200.691 458.63C200.691 458.267 200.691 457.718 200.691 457.346C200.881 453.317 202.557 449.837 205.72 446.906Z" fill="#EF8354"/>
<path d="M435.19 325.585H434.247L434.192 326.525L433.878 331.819H425.546L425.23 319.89H427.925C432.325 319.89 436.302 319.484 439.204 318.046C440.678 317.316 441.9 316.306 442.748 314.932C443.594 313.559 444.024 311.891 444.024 309.911C444.024 307.317 443.206 305.112 441.598 303.558C439.994 302.008 437.718 301.217 435.01 301.217C432.303 301.217 430.027 302.008 428.423 303.558C427.025 304.908 426.225 306.75 426.039 308.911H417.026C417.248 304.641 418.897 300.978 421.738 298.322C424.804 295.457 429.34 293.689 435.19 293.689C440.698 293.689 445.242 295.199 448.394 297.956C451.528 300.697 453.39 304.76 453.39 310.097C453.39 315.325 451.497 319.146 448.356 321.684C445.186 324.245 440.634 325.585 435.19 325.585ZM429.791 351.423C426.011 351.423 423.526 348.89 423.526 345.64C423.526 342.4 426.01 339.867 429.791 339.867C433.375 339.867 435.876 342.384 435.876 345.64C435.876 348.906 433.375 351.423 429.791 351.423Z" fill="#EF8354" stroke="#2D3142" stroke-width="2"/>
<path d="M774.912 417.402V478.606V478.783C774.912 479.881 774.354 480.802 773.615 481.537C772.867 482.262 771.939 482.635 770.821 482.635H668.904C667.786 482.635 666.848 482.262 666.11 481.537C665.361 480.802 664.992 479.881 664.802 478.783C664.802 478.783 664.802 478.783 664.802 478.606V417.402C664.802 414.844 666.848 413.011 669.273 413.011H770.072C772.867 413.011 774.912 415.02 774.912 417.402Z" fill="#2D3142"/>
<path d="M774.912 478.606C774.912 479.704 774.354 480.616 773.615 481.351C772.867 482.086 771.939 482.449 770.821 482.449H668.904C667.786 482.449 666.848 482.086 666.11 481.351C665.361 480.616 664.992 479.704 664.802 478.606L719.767 431.693L774.912 478.606Z" fill="#2D3142"/>
<path d="M770.262 477.322C770.072 477.322 769.883 477.322 769.703 477.136L719.768 434.624L670.021 477.136C669.652 477.498 669.093 477.322 668.904 477.136C668.534 476.773 668.714 476.224 668.904 476.038L719.768 432.615L770.821 476.038C771.19 476.401 771.19 476.95 770.821 477.136C770.821 477.136 770.631 477.322 770.262 477.322Z" fill="white"/>
<path d="M774.912 417.402V424.185L719.957 468.157L664.992 424.185V417.402C664.992 414.844 667.037 413.011 669.462 413.011H770.262C772.866 413.011 774.912 414.844 774.912 417.402Z" fill="#2D3142"/>
<path d="M719.957 467.795L719.398 467.422L669.093 427.116C668.714 426.753 668.714 426.381 668.903 426.018C669.273 425.655 669.652 425.655 670.021 425.832L719.767 465.775L769.703 425.832C770.072 425.469 770.631 425.655 770.821 426.018C771.19 426.381 771 426.93 770.631 427.116L719.957 467.795Z" fill="white"/>
<path d="M629.586 595.869L600.526 548.593" stroke="#263156" stroke-width="0.97299" stroke-miterlimit="10"/>
<path d="M445.699 602.828L442.526 533.939" stroke="#263156" stroke-width="0.97299" stroke-miterlimit="10"/>
</svg>
