<svg width="701" height="408" viewBox="0 0 701 408" fill="none" xmlns="http://www.w3.org/2000/svg">
<g clip-path="url(#clip0_174_4458)">
<path d="M614.283 376.706C636.826 356.284 636.826 323.172 614.283 302.749C591.74 282.326 555.191 282.326 532.648 302.749C510.105 323.172 510.105 356.284 532.648 376.706C555.191 397.129 591.74 397.129 614.283 376.706Z" fill="#EF8354"/>
<path d="M573.144 344.538C583.783 342.405 590.498 332.862 588.143 323.224C585.788 313.586 575.255 307.503 564.617 309.636C553.978 311.77 547.263 321.312 549.618 330.95C551.973 340.588 562.506 346.672 573.144 344.538Z" fill="white"/>
<path d="M562.31 328.288C565.856 327.577 568.095 324.396 567.31 321.183C566.525 317.971 563.014 315.943 559.468 316.654C555.922 317.365 553.683 320.546 554.468 323.758C555.253 326.971 558.764 328.999 562.31 328.288Z" fill="#3F3D56"/>
<path d="M571.185 304.373C547.578 304.333 531.005 300.513 531.045 281.136C531.084 261.76 550.254 246.084 573.862 246.123C597.47 246.163 616.575 261.903 616.536 281.279C616.496 300.656 594.793 304.412 571.185 304.373Z" fill="black"/>
<path d="M688.309 325.599C690.999 329.857 693.065 334.491 694.44 339.356C695.603 343.704 696.121 348.205 695.976 352.708C695.601 361.976 693.044 371.016 688.519 379.069C685.111 385.178 680.957 390.825 676.157 395.874C673.807 397.494 671.455 399.077 669.103 400.622C669.087 400.629 669.071 400.645 669.055 400.652C668.942 400.726 668.828 400.8 668.723 400.874C668.237 401.193 667.752 401.511 667.27 401.826C667.27 401.826 667.794 402.087 667.51 401.969C667.426 401.933 667.337 401.901 667.253 401.865C668.129 394.554 667.271 387.136 664.749 380.232C662.227 373.328 658.115 367.14 652.758 362.186C647.388 357.307 640.961 353.789 634 351.917C634.341 351.42 634.709 350.944 635.092 350.477C637.781 351.244 640.397 352.251 642.911 353.487C651.897 357.877 659.256 365.094 663.896 374.07C668.061 382.22 669.853 391.41 669.063 400.561C669.465 400.19 669.867 399.812 670.257 399.437C677.689 392.388 684.29 384.297 688.757 374.96C692.633 367.053 694.537 358.297 694.304 349.464C693.939 339.833 690.167 330.912 684.706 323.146C678.72 314.861 671.649 307.447 663.689 301.111C655.667 294.574 646.888 289.061 637.55 284.694C637.339 284.594 637.175 284.415 637.09 284.195C637.005 283.975 637.006 283.73 637.094 283.511C637.156 283.314 637.292 283.151 637.472 283.056C637.565 283.015 637.666 282.996 637.767 283.001C637.867 283.005 637.966 283.032 638.055 283.081C639.208 283.621 640.353 284.168 641.489 284.739C650.949 289.496 659.792 295.431 667.814 302.406C675.563 309.126 682.858 316.805 688.309 325.599Z" fill="black"/>
<path d="M98.802 407.452C106.873 407.452 113.416 405.229 113.416 402.487C113.416 399.745 106.873 397.522 98.802 397.522C90.7309 397.522 84.188 399.745 84.188 402.487C84.188 405.229 90.7309 407.452 98.802 407.452Z" fill="#2F2E41"/>
<path d="M133.876 406.79C141.947 406.79 148.49 404.567 148.49 401.825C148.49 399.083 141.947 396.86 133.876 396.86C125.805 396.86 119.262 399.083 119.262 401.825C119.262 404.567 125.805 406.79 133.876 406.79Z" fill="#2F2E41"/>
<path d="M180.437 323.341C194.247 316.128 203.416 307.098 200.917 303.17C198.418 299.242 185.196 301.905 171.386 309.118C157.577 316.33 148.407 325.361 150.907 329.288C153.406 333.216 166.627 330.553 180.437 323.341Z" fill="#2F2E41"/>
<path d="M167.473 341.026C172.58 312.516 151.209 285.654 119.74 281.028C88.2709 276.401 58.6203 295.762 53.5136 324.272C48.4069 352.781 69.7778 379.643 101.247 384.269C132.716 388.896 162.366 369.535 167.473 341.026Z" fill="#EF8354"/>
<path d="M101.725 373.691H84.188V402.156H101.725V373.691Z" fill="#EF8354"/>
<path d="M136.798 373.691H119.262V402.156H136.798V373.691Z" fill="#EF8354"/>
<path d="M111.955 337.283C122.851 337.283 131.684 329.281 131.684 319.409C131.684 309.538 122.851 301.536 111.955 301.536C101.059 301.536 92.2261 309.538 92.2261 319.409C92.2261 329.281 101.059 337.283 111.955 337.283Z" fill="white"/>
<path d="M111.955 325.368C115.587 325.368 118.531 322.7 118.531 319.41C118.531 316.12 115.587 313.452 111.955 313.452C108.323 313.452 105.378 316.12 105.378 319.41C105.378 322.7 108.323 325.368 111.955 325.368Z" fill="#3F3D56"/>
<path d="M54.4979 284.015C49.8369 265.104 64.7364 245.996 87.7768 241.335C110.817 236.674 133.274 248.226 137.935 267.137C142.596 286.048 127.326 293.023 104.286 297.683C81.2451 302.344 59.1589 302.926 54.4979 284.015Z" fill="black"/>
<path d="M71.5537 319.588C73.6981 315.492 63.7609 307.155 49.3584 300.966C34.9558 294.778 21.5419 293.082 19.3975 297.178C17.253 301.274 27.1902 309.611 41.5927 315.8C55.9952 321.988 69.4092 323.685 71.5537 319.588Z" fill="#EF8354"/>
<path d="M82.1387 351.516C82.1387 356.634 96.6858 366.741 112.828 366.741C128.97 366.741 144.105 352.331 144.105 347.213C144.105 342.095 128.97 348.206 112.828 348.206C96.6858 348.206 82.1387 346.397 82.1387 351.516Z" fill="white"/>
<path d="M311.776 407.452C319.847 407.452 326.39 405.229 326.39 402.487C326.39 399.745 319.847 397.522 311.776 397.522C303.705 397.522 297.162 399.745 297.162 402.487C297.162 405.229 303.705 407.452 311.776 407.452Z" fill="#2F2E41"/>
<path d="M276.702 406.79C284.773 406.79 291.316 404.567 291.316 401.825C291.316 399.083 284.773 396.86 276.702 396.86C268.631 396.86 262.088 399.083 262.088 401.825C262.088 404.567 268.631 406.79 276.702 406.79Z" fill="#2F2E41"/>
<path d="M259.671 329.289C262.171 325.362 253.001 316.331 239.191 309.118C225.381 301.906 212.16 299.243 209.661 303.171C207.162 307.098 216.331 316.129 230.141 323.341C243.951 330.554 257.172 333.217 259.671 329.289Z" fill="#2F2E41"/>
<path d="M300.085 384.946C331.966 384.946 357.81 361.532 357.81 332.65C357.81 303.767 331.966 280.354 300.085 280.354C268.204 280.354 242.36 303.767 242.36 332.65C242.36 361.532 268.204 384.946 300.085 384.946Z" fill="#EF8354"/>
<path d="M326.39 373.691H308.853V402.156H326.39V373.691Z" fill="#EF8354"/>
<path d="M291.316 373.691H273.78V402.156H291.316V373.691Z" fill="#EF8354"/>
<path d="M286.56 337.283C297.456 337.283 306.289 329.281 306.289 319.409C306.289 309.538 297.456 301.536 286.56 301.536C275.664 301.536 266.832 309.538 266.832 319.409C266.832 329.281 275.664 337.283 286.56 337.283Z" fill="white"/>
<path d="M281.807 321.178C284.383 318.846 284.4 315.076 281.844 312.758C279.287 310.44 275.126 310.452 272.549 312.784C269.973 315.116 269.956 318.886 272.512 321.204C275.069 323.522 279.23 323.51 281.807 321.178Z" fill="#3F3D56"/>
<path d="M306.292 297.683C283.252 293.023 267.982 286.048 272.643 267.137C277.304 248.226 299.761 236.674 322.801 241.335C345.842 245.996 360.741 265.104 356.08 284.015C351.419 302.926 329.333 302.344 306.292 297.683Z" fill="black"/>
<path d="M360.448 372.513C365.285 371.349 365.889 359.091 361.797 345.134C357.705 331.176 350.467 320.805 345.63 321.969C340.794 323.133 340.19 335.391 344.282 349.348C348.374 363.305 355.612 373.676 360.448 372.513Z" fill="#EF8354"/>
<path d="M287.007 348.206C276.409 348.206 266.473 342.095 266.473 347.213C266.473 352.331 276.409 366.741 287.007 366.741C297.605 366.741 307.155 356.634 307.155 351.516C307.155 346.398 297.604 348.206 287.007 348.206Z" fill="white"/>
<path d="M212.407 245.94H207.28C202.688 245.935 198.285 244.281 195.038 241.339C191.791 238.397 189.964 234.408 189.959 230.248V226.349C189.959 216.692 191.979 208.605 195.963 202.315C200.79 194.998 206.422 188.143 212.773 181.853C216.989 178.012 220.815 173.834 224.203 169.371C226.635 165.904 227.89 161.867 227.813 157.76C227.813 148.072 220.847 143.363 206.515 143.363C198.564 143.444 190.664 144.518 183.038 146.555C180.097 147.315 177.001 147.447 173.994 146.94C170.988 146.432 168.152 145.3 165.71 143.631C163.269 141.962 161.288 139.803 159.924 137.322C158.56 134.842 157.85 132.109 157.85 129.338V121.446C157.833 118.048 158.904 114.719 160.934 111.861C162.964 109.004 165.865 106.742 169.286 105.349C182.755 100.141 197.28 97.5524 211.922 97.7497C227.262 97.7497 241.109 100.084 253.08 104.687C265.073 109.3 274.549 115.806 281.243 124.023C287.916 132.182 291.463 142.093 291.344 152.248C291.344 163.152 288.057 172.649 281.577 180.476C275.167 188.223 265.978 196.704 254.266 205.685C248.095 210.334 242.247 215.325 236.757 220.629C233.21 224.089 230.704 228.317 229.477 232.907C228.794 236.558 226.703 239.871 223.578 242.257C220.452 244.643 216.494 245.948 212.407 245.94Z" fill="#EF8354"/>
<path d="M209.556 319.735H208.88C200.37 319.73 192.21 316.663 186.194 311.209C180.178 305.756 176.798 298.361 176.798 290.651C176.798 282.941 180.178 275.546 186.194 270.092C192.21 264.639 200.37 261.572 208.88 261.567H209.556C213.774 261.565 217.951 262.315 221.848 263.776C225.745 265.236 229.287 267.378 232.27 270.079C235.253 272.78 237.62 275.987 239.234 279.517C240.849 283.047 241.68 286.83 241.68 290.651C241.68 294.472 240.849 298.255 239.234 301.785C237.62 305.315 235.253 308.522 232.27 311.223C229.287 313.924 225.745 316.066 221.848 317.526C217.951 318.987 213.774 319.737 209.556 319.735Z" fill="black"/>
<path d="M418.187 408H1.34034C0.984863 408 0.64396 407.872 0.392597 407.644C0.141234 407.416 0 407.108 0 406.786C0 406.464 0.141234 406.155 0.392597 405.927C0.64396 405.699 0.984863 405.571 1.34034 405.571H418.187C418.543 405.571 418.884 405.699 419.135 405.927C419.387 406.155 419.528 406.464 419.528 406.786C419.528 407.108 419.387 407.416 419.135 407.644C418.884 407.872 418.543 408 418.187 408Z" fill="#CCCCCC"/>
<path d="M699.66 408H477.163C476.807 408 476.466 407.872 476.215 407.644C475.963 407.416 475.822 407.108 475.822 406.786C475.822 406.464 475.963 406.155 476.215 405.927C476.466 405.699 476.807 405.571 477.163 405.571H699.66C700.015 405.571 700.356 405.699 700.607 405.927C700.859 406.155 701 406.464 701 406.786C701 407.108 700.859 407.416 700.607 407.644C700.356 407.872 700.015 408 699.66 408Z" fill="#CCCCCC"/>
<path d="M561.565 372.531C577.502 372.248 590.343 368.345 590.245 363.812C590.147 359.28 577.148 355.834 561.211 356.117C545.273 356.399 532.433 360.302 532.531 364.835C532.629 369.368 545.628 372.813 561.565 372.531Z" fill="white"/>
<path d="M547.077 180.928H512.228C510.451 180.926 508.748 180.286 507.491 179.148C506.235 178.01 505.528 176.466 505.526 174.857V143.285C505.528 141.676 506.235 140.132 507.491 138.994C508.748 137.856 510.451 137.216 512.228 137.214H547.077C548.854 137.216 550.557 137.856 551.814 138.994C553.07 140.132 553.777 141.676 553.779 143.285V174.857C553.777 176.466 553.07 178.01 551.814 179.148C550.557 180.286 548.854 180.926 547.077 180.928ZM512.228 139.642C511.162 139.643 510.14 140.028 509.386 140.711C508.632 141.394 508.208 142.319 508.207 143.285V174.857C508.208 175.823 508.632 176.749 509.386 177.431C510.14 178.114 511.162 178.499 512.228 178.5H547.077C548.143 178.499 549.165 178.114 549.919 177.431C550.673 176.749 551.097 175.823 551.098 174.857V143.285C551.097 142.319 550.673 141.394 549.919 140.711C549.165 140.028 548.143 139.643 547.077 139.642H512.228Z" fill="white"/>
<path d="M563.161 160.286H528.312C526.535 160.284 524.832 159.643 523.575 158.505C522.319 157.367 521.612 155.824 521.61 154.214V122.643C521.612 121.033 522.319 119.49 523.575 118.352C524.832 117.213 526.535 116.573 528.312 116.571H563.161C564.938 116.573 566.641 117.213 567.898 118.352C569.154 119.49 569.861 121.033 569.863 122.643V154.214C569.861 155.824 569.154 157.367 567.898 158.505C566.641 159.643 564.938 160.284 563.161 160.286ZM528.312 119C527.246 119.001 526.224 119.385 525.47 120.068C524.716 120.751 524.292 121.677 524.291 122.643V154.214C524.292 155.18 524.716 156.106 525.47 156.789C526.224 157.472 527.246 157.856 528.312 157.857H563.161C564.227 157.856 565.249 157.472 566.003 156.789C566.757 156.106 567.181 155.18 567.182 154.214V122.643C567.181 121.677 566.757 120.751 566.003 120.068C565.249 119.385 564.227 119.001 563.161 119H528.312Z" fill="#EF8354"/>
<path d="M288.391 59.5004H253.542C251.765 59.4986 250.061 58.8583 248.805 57.7201C247.549 56.5819 246.842 55.0387 246.84 53.429V21.8576C246.842 20.2479 247.549 18.7047 248.805 17.5665C250.061 16.4283 251.765 15.788 253.542 15.7861H288.391C290.167 15.788 291.871 16.4283 293.127 17.5665C294.383 18.7047 295.09 20.2479 295.092 21.8576V53.429C295.09 55.0387 294.383 56.5819 293.127 57.7201C291.871 58.8583 290.167 59.4986 288.391 59.5004ZM253.542 18.2147C252.475 18.2158 251.453 18.5999 250.7 19.2828C249.946 19.9658 249.522 20.8917 249.521 21.8576V53.429C249.522 54.3948 249.946 55.3208 250.7 56.0037C251.453 56.6866 252.475 57.0708 253.542 57.0718H288.391C289.457 57.0708 290.479 56.6866 291.233 56.0037C291.986 55.3208 292.41 54.3948 292.412 53.429V21.8576C292.41 20.8917 291.986 19.9658 291.233 19.2828C290.479 18.5999 289.457 18.2158 288.391 18.2147H253.542Z" fill="white"/>
<path d="M266.945 43.7143H232.096C230.319 43.7124 228.616 43.0722 227.359 41.9339C226.103 40.7957 225.396 39.2525 225.394 37.6429V6.07143C225.396 4.46175 226.103 2.91855 227.359 1.78033C228.616 0.642117 230.319 0.00184153 232.096 0H266.945C268.722 0.00184153 270.425 0.642117 271.681 1.78033C272.938 2.91855 273.644 4.46175 273.646 6.07143V37.6429C273.644 39.2525 272.938 40.7957 271.681 41.9339C270.425 43.0722 268.722 43.7124 266.945 43.7143ZM232.096 2.42857C231.03 2.42963 230.008 2.81376 229.254 3.4967C228.5 4.17964 228.076 5.10561 228.075 6.07143V37.6429C228.076 38.6087 228.5 39.5346 229.254 40.2176C230.008 40.9005 231.03 41.2847 232.096 41.2857H266.945C268.011 41.2847 269.033 40.9005 269.787 40.2176C270.541 39.5346 270.965 38.6087 270.966 37.6429V6.07143C270.965 5.10561 270.541 4.17964 269.787 3.4967C269.033 2.81376 268.011 2.42963 266.945 2.42857H232.096Z" fill="#EF8354"/>
<path d="M430.546 230.274C435.333 230.274 439.214 226.758 439.214 222.421C439.214 218.084 435.333 214.568 430.546 214.568C425.759 214.568 421.878 218.084 421.878 222.421C421.878 226.758 425.759 230.274 430.546 230.274Z" fill="#EF8354"/>
<path d="M82.0565 202.345C86.8437 202.345 90.7244 198.829 90.7244 194.492C90.7244 190.155 86.8437 186.64 82.0565 186.64C77.2694 186.64 73.3887 190.155 73.3887 194.492C73.3887 198.829 77.2694 202.345 82.0565 202.345Z" fill="white"/>
<path d="M666.447 270.345C671.234 270.345 675.115 266.829 675.115 262.492C675.115 258.155 671.234 254.64 666.447 254.64C661.66 254.64 657.779 258.155 657.779 262.492C657.779 266.829 661.66 270.345 666.447 270.345Z" fill="black"/>
</g>
<defs>
<clipPath id="clip0_174_4458">
<rect width="701" height="408" fill="white"/>
</clipPath>
</defs>
</svg>
