<svg width="161" height="25" viewBox="0 0 161 25" fill="none" xmlns="http://www.w3.org/2000/svg">
<path d="M6.26266 22.6251L6.2317 22.3341L5.94907 22.4102C5.72771 22.4698 5.49183 22.5 5.25 22.5C3.73338 22.5 2.5 21.2666 2.5 19.75C2.5 19.4322 2.55587 19.1225 2.65483 18.8385L2.73501 18.6084L2.50704 18.5224C1.18602 18.0237 0.25 16.7463 0.25 15.25C0.25 13.8547 1.06771 12.6471 2.25365 12.087L2.53943 11.952L2.34227 11.705C1.96919 11.2376 1.75 10.6455 1.75 10C1.75 8.68136 2.6778 7.58069 3.91592 7.30985L4.17728 7.25268L4.10255 6.99579C4.03462 6.76228 4 6.50935 4 6.25C4 4.96565 4.88519 3.8822 6.07531 3.58144L6.24409 3.53879L6.26264 3.3657C6.38977 2.17911 7.3992 1.25 8.625 1.25C9.93537 1.25 11 2.31463 11 3.625V22.375C11 23.6854 9.93537 24.75 8.625 24.75C7.39972 24.75 6.38993 23.8214 6.26266 22.6251ZM17.7375 3.36657L17.7566 3.53911L17.9249 3.5815C19.1194 3.88226 20 4.96081 20 6.25C20 6.50936 19.9654 6.76228 19.8975 6.99579L19.8225 7.25353L20.0849 7.31003C21.3217 7.57628 22.25 8.68073 22.25 10C22.25 10.6455 22.0308 11.2376 21.6577 11.705L21.4606 11.952L21.7464 12.087C22.9323 12.6471 23.75 13.8547 23.75 15.25C23.75 16.7463 22.814 18.0237 21.493 18.5224L21.265 18.6084L21.3452 18.8385C21.4441 19.1225 21.5 19.4322 21.5 19.75C21.5 21.2666 20.2666 22.5 18.75 22.5C18.5082 22.5 18.2723 22.4698 18.0509 22.4102L17.7683 22.3341L17.7373 22.6251C17.6101 23.8214 16.6003 24.75 15.375 24.75C14.0646 24.75 13 23.6854 13 22.375V3.625C13 2.31463 14.0646 1.25 15.375 1.25C16.6001 1.25 17.6059 2.17853 17.7375 3.36657Z" fill="#EF8354" stroke="white" stroke-width="0.5"/>
<path d="M35.8 18L36.6 1.06H38.6L38.14 14.72L46.38 14.36V18H35.8ZM63.7236 11.7L55.0636 12.26C55.0636 14.16 56.3636 15.32 59.1836 15.62C60.6636 15.78 61.6036 15.62 63.1436 14.96V17.44C61.8436 18 60.5436 18.28 59.1236 18.28C55.6436 18.28 53.2436 16.1 53.2436 12.64C53.3836 9.06 55.5236 6.4 58.8236 6.4C61.0636 6.58 63.0836 8.08 63.7236 11.7ZM55.3236 10.72L61.7236 10.1C61.5236 8.88 60.9036 7.6 58.8236 7.74C56.7836 7.88 55.3236 9.4 55.3236 10.72ZM79.3381 18H76.3381L73.6781 13.88L70.6181 18H67.6381L72.4581 12.02L69.0781 6.8H71.3981L73.8781 10.3L76.6981 6.8H78.9181L75.0781 11.98L79.3381 18ZM84.5392 5.08L84.8392 2.8H86.0392L86.3392 5.08H84.5392ZM84.0392 18C84.2992 14.16 84.6192 11.42 84.6192 6.98H86.2192C86.0792 10.28 86.0792 14.16 86.6792 18H84.0392ZM93.5539 18L94.0939 1.36L104.114 1.06L103.654 3.18L96.1939 3.6V8.08L101.734 7.84V10.16L96.1939 10.52V14.58H103.714L104.454 18H93.5539ZM115.79 18.28C112.65 18.28 110.71 16 111.47 11.76C112.21 7.62 114.53 7 115.67 6.84C117.25 6.62 118.35 7.06 119.07 8.22L119.03 7.06H120.45L121.59 18H119.59V16.36C118.83 17.66 117.39 18.28 115.79 18.28ZM115.55 15.24C118.77 15.24 118.91 13 118.91 12.02C118.91 8.98 117.43 8.52 116.09 8.52C114.97 8.52 113.33 9.52 112.95 12.28C112.71 14.06 113.19 15.24 115.55 15.24ZM135.105 7.02L134.185 8.22C132.945 8.06 132.485 8.1 131.785 8.06C129.205 8.06 128.885 8.8 128.905 9.7C128.925 10.34 130.245 10.94 131.985 11.48C135.285 12.5 135.865 13.34 135.865 14.9C135.865 17.66 134.325 18.28 131.305 18.28C127.645 18.28 127.405 17.68 126.525 17.02L128.485 14.8C129.645 15.24 130.125 15.36 131.345 15.46C132.045 15.52 133.365 15.6 133.365 14.46C133.365 13.82 132.145 13.42 130.745 13.14C129.845 13 127.405 12.4 127.405 9.78C127.405 8.32 128.105 6.54 131.565 6.54C132.905 6.54 134.105 6.8 135.105 7.02ZM151.067 11.7L142.407 12.26C142.407 14.16 143.707 15.32 146.527 15.62C148.007 15.78 148.947 15.62 150.487 14.96V17.44C149.187 18 147.887 18.28 146.467 18.28C142.987 18.28 140.587 16.1 140.587 12.64C140.727 9.06 142.867 6.4 146.167 6.4C148.407 6.58 150.427 8.08 151.067 11.7ZM142.667 10.72L149.067 10.1C148.867 8.88 148.247 7.6 146.167 7.74C144.127 7.88 142.667 9.4 142.667 10.72Z" fill="white"/>
</svg>
