<svg width="20" height="19" viewBox="0 0 20 19" fill="none" xmlns="http://www.w3.org/2000/svg">
<path fill-rule="evenodd" clip-rule="evenodd" d="M19.2372 3.28844L10.2372 0.288438C10.0832 0.237113 9.91677 0.237113 9.76281 0.288438L0.762813 3.28844C0.456545 3.39053 0.249976 3.67716 0.25 4V11.5C0.25 11.9142 0.585786 12.25 1 12.25C1.41421 12.25 1.75 11.9142 1.75 11.5V5.04063L4.89906 6.08969C3.15695 8.9042 4.02321 12.5979 6.835 14.3444C5.1475 15.0063 3.68875 16.2034 2.62187 17.8403C2.47087 18.0647 2.45242 18.3531 2.5736 18.595C2.69477 18.8368 2.93679 18.9947 3.20697 19.0081C3.47714 19.0215 3.7336 18.8884 3.87813 18.6597C5.29094 16.4922 7.52219 15.25 10 15.25C12.4778 15.25 14.7091 16.4922 16.1219 18.6597C16.3508 18.9999 16.8104 19.0932 17.1539 18.8692C17.4973 18.6452 17.5972 18.1869 17.3781 17.8403C16.3112 16.2034 14.8469 15.0063 13.165 14.3444C15.9739 12.598 16.8399 8.9079 15.1009 6.09437L19.2372 4.71625C19.5435 4.61421 19.7502 4.32757 19.7502 4.00469C19.7502 3.68181 19.5435 3.39516 19.2372 3.29313V3.28844ZM14.5 9.25C14.5006 11.2032 13.241 12.9338 11.3822 13.5337C9.52336 14.1337 7.48976 13.466 6.34833 11.881C5.2069 10.296 5.21831 8.15558 6.37656 6.58281L9.76281 7.70781C9.91677 7.75914 10.0832 7.75914 10.2372 7.70781L13.6234 6.58281C14.1932 7.35531 14.5005 8.29009 14.5 9.25ZM10 6.20969L3.37187 4L10 1.79031L16.6281 4L10 6.20969Z" fill="white"/>
</svg>
