<svg width="867" height="444" viewBox="0 0 867 444" fill="none" xmlns="http://www.w3.org/2000/svg">
<g clip-path="url(#clip0_174_4197)">
<path d="M828.335 244.952L825.62 266.574L818.881 320.278H683.498C684.555 308.241 686 290.916 687.544 272.213C687.696 270.345 687.856 268.465 688.008 266.574C691.88 219.559 696.116 166.357 696.116 166.357L713.915 169.673L748.447 176.094L762.519 178.709L800.2 185.726C818.987 189.217 831.91 216.419 828.335 244.952Z" fill="#EF8354"/>
<path d="M725.93 79.3574L742.579 108.491L710.58 131.168L696.93 95.3574L725.93 79.3574Z" fill="#737272"/>
<path d="M704.735 106.919C727.514 106.919 745.979 88.4537 745.979 65.6752C745.979 42.8968 727.514 24.4312 704.735 24.4312C681.957 24.4312 663.491 42.8968 663.491 65.6752C663.491 88.4537 681.957 106.919 704.735 106.919Z" fill="#FCA56B" fill-opacity="0.49"/>
<path d="M701.774 74.8957C698.499 69.9115 699.784 67.3045 697.042 65.4728C697.042 65.4728 695.939 64.7357 688.043 64.3155C686.275 51.5916 684.068 50.0486 684.068 50.0486C681.525 48.2702 677.75 48.848 675.402 49.9357C670.436 52.2361 671.011 57.2052 667.667 58.1561C663.048 59.4696 654.643 52.0645 653.815 43.5871C653.14 36.672 657.595 29.9557 659.362 30.311C661.114 30.6633 665.309 25.308 667.574 25.3906C669.121 25.447 675.441 22.7001 677.141 22.9148C678.997 23.1494 685.119 26.3441 685.374 25.6142C687.147 20.5422 686.626 19.1349 688.13 17.6839C690.796 15.1128 695.156 16.9032 701.996 17.8645C716.071 19.8422 718.527 15.2015 725.74 18.347C729.383 19.936 732.432 24.2212 738.381 32.7268C746.7 44.6218 750.86 50.5693 750.887 57.5062C750.914 64.5806 747.488 64.1315 745.983 74.6046C744.308 86.2629 747.867 91.5937 743.979 95.3812C740.974 98.3085 734.866 99.0034 731.657 96.4342C726.163 92.0357 733.353 81.422 727.273 73.6675C723.541 68.9076 716.035 66.7896 712.597 69.1425C708.709 71.803 710.851 79.6118 708.117 80.3523C705.776 80.9864 702.344 75.7642 701.774 74.8957Z" fill="black"/>
<path d="M797.85 237.338C796.7 257.008 792.13 263.218 790.53 286.448C790.18 291.548 789.97 297.468 789.97 304.528C789.97 306.328 789.98 308.068 789.98 309.768C789.98 313.388 789.911 316.808 789.49 320.278C789.17 323.048 788.621 325.838 787.71 328.778H698.88C698.871 328.758 698.871 328.738 698.86 328.718C698.34 326.458 698.01 324.298 697.76 322.228C697.68 321.568 697.61 320.918 697.55 320.278C697.47 319.528 697.4 318.788 697.331 318.058C697.06 315.148 696.791 312.398 696.15 309.768C695.291 306.138 693.73 302.718 690.53 299.418C689.22 298.068 687.911 297.018 686.63 296.098C686.38 295.928 686.14 295.758 685.89 295.588C682.35 293.158 679 291.408 676.1 286.448C676.05 286.378 676.01 286.298 675.97 286.228C675.47 285.358 674.17 283.078 673.23 280.038C672.24 276.878 671.64 272.908 672.72 268.848C675.291 259.228 684.81 258.268 692.59 248.548C693.43 247.498 694.26 246.338 695.05 245.048C698.57 239.328 699.52 234.288 700.64 228.298C700.82 227.328 700.98 226.368 701.11 225.438C701.21 224.738 701.3 224.048 701.371 223.368C701.99 217.658 701.69 212.738 700.96 208.338C698.581 193.928 691.56 185.008 696.52 172.078C698.081 168.018 700.291 164.968 702.52 162.358C707.24 156.828 712.09 153.238 711.25 146.098C710.4 138.898 704.94 137.908 704.331 131.618C704.02 128.438 705.06 125.088 707.01 121.798V121.788C713.25 111.198 728.831 101.448 738.73 101.758C740.56 101.808 742.18 102.218 743.53 103.008C748.42 105.888 746.38 112.178 753.871 120.998C759.44 127.548 765.74 130.168 768.13 131.408C777.6 136.348 785.3 150.918 790.53 169.548C790.57 169.688 790.61 169.828 790.65 169.978C793.88 181.648 796.161 194.898 797.291 208.338C797.77 214.028 798.05 219.748 798.11 225.408C798.161 229.928 798.06 233.848 797.85 237.338Z" fill="black"/>
<path d="M731.331 304.728L729.52 309.768L728.38 312.928L725.74 320.278L722.68 328.778H703.01L706.31 320.278L707.84 316.318L710.38 309.768L714.64 298.768L731.331 304.728Z" fill="#737272"/>
<path d="M790.84 167.827C790.791 168.478 790.72 169.198 790.65 169.978C789.871 177.918 788.03 192.128 785.34 208.338C783.92 216.888 782.26 225.998 780.39 235.048C776.371 254.577 771.371 273.808 765.72 286.448C764.71 288.728 763.67 290.788 762.61 292.608C761.8 293.998 760.95 295.368 760.06 296.718C757.18 301.148 753.95 305.348 750.6 309.268C750.47 309.438 750.32 309.598 750.17 309.768C749.63 310.408 749.07 311.038 748.51 311.668C745.77 314.758 742.97 317.638 740.26 320.278C736.96 323.498 733.78 326.348 730.93 328.778H698.99L698.86 328.718L694.26 326.678C694.26 326.678 695.57 325.138 697.76 322.228C698.21 321.638 698.69 320.988 699.21 320.278C699.85 319.408 700.541 318.448 701.28 317.408C702.82 315.228 704.57 312.668 706.45 309.768C710.09 304.158 714.24 297.258 718.43 289.268C718.911 288.338 719.4 287.398 719.89 286.448C719.9 286.418 719.92 286.387 719.93 286.358C720.76 284.738 721.581 283.068 722.4 281.368C729.35 266.908 731.34 254.908 731.911 251.018C732.71 245.518 733.82 237.827 733.52 229.367C733.32 223.788 732.51 217.888 730.581 212.028V212.018C730.18 210.788 729.73 209.558 729.22 208.338C728.31 206.148 727.23 203.988 725.95 201.858C720.3 192.478 715.71 192.088 712.06 181.867C710.98 178.838 708.53 171.998 709.28 164.778V164.768C709.371 163.878 709.52 162.978 709.72 162.077V162.068C709.77 161.818 709.84 161.558 709.911 161.308C710.48 159.098 711.42 156.908 712.85 154.827C715.64 150.788 719.45 148.388 722.86 146.958L722.871 146.948C726.81 145.308 730.21 144.958 730.871 144.898C745.48 143.598 756.81 155.878 763 162.588C765.39 165.178 767.581 167.348 769.581 169.117C785.15 183.018 789.42 174.138 790.53 169.548C790.7 168.838 790.791 168.228 790.84 167.827Z" fill="black"/>
<path d="M790.89 167.308C790.89 167.358 790.88 167.528 790.84 167.808C790.86 167.658 790.871 167.508 790.88 167.368C790.88 167.338 790.88 167.318 790.89 167.308Z" fill="black"/>
<path d="M711.47 378.317H175.42C170.44 378.317 166.38 382.367 166.38 387.348C166.38 392.337 170.44 396.387 175.42 396.387H711.47C716.45 396.387 720.5 392.337 720.5 387.348C720.5 382.367 716.45 378.317 711.47 378.317Z" fill="#EF8354"/>
<path d="M592.51 424.998H294.37C289.39 424.998 285.34 429.047 285.34 434.027C285.34 439.007 289.39 443.067 294.37 443.067H592.51C597.49 443.067 601.55 439.007 601.55 434.027C601.55 429.047 597.49 424.998 592.51 424.998Z" fill="white"/>
<path d="M235.069 81.2749L268.853 67.0571L283.343 96.7626L247.842 111.253L235.069 81.2749Z" fill="#737272"/>
<path opacity="0.1" d="M235.069 81.2749L268.853 67.0571L283.343 96.7626L247.842 111.253L235.069 81.2749Z" fill="black"/>
<path d="M239.872 69.9552L273.2 108.355C273.2 108.355 250.016 181.532 226.831 188.053C203.646 194.573 160.899 226.452 160.899 226.452L107.284 191.675L133.367 153.275C133.367 153.275 196.401 67.0571 213.065 67.0571C229.729 67.0571 239.872 69.9552 239.872 69.9552Z" fill="black"/>
<path d="M194.843 320.278H117.261L112.356 313.721L92.3303 286.95L87.7223 280.791C87.7223 280.791 70.3337 248.912 73.9564 219.931C77.579 190.95 115.254 184.43 115.254 184.43H116.805L162.928 224.959L160.175 262.678L174.781 286.95L194.843 320.278Z" fill="#141414"/>
<path d="M133.15 320.278H112.356V289.486L133.15 320.278Z" fill="#141414"/>
<path d="M581.644 273.532L579.058 286.95L572.639 320.278H443.681C444.688 312.808 446.064 302.056 447.535 290.449C447.68 289.29 447.832 288.124 447.977 286.95C451.665 257.773 455.7 224.757 455.7 224.757L472.654 226.815L505.548 230.799L518.951 232.422L554.844 236.777C572.74 238.943 585.05 255.824 581.644 273.532Z" fill="black"/>
<path d="M764.144 320.278H694.199C695.264 319.025 695.865 318.3 695.865 318.3L716.833 314.837L760.036 307.708C760.036 307.708 762.007 312.801 764.144 320.278Z" fill="#141414"/>
<path d="M467.455 95.7661L497.873 138.784L444.814 140.369L439.119 99.9418L467.455 95.7661Z" fill="#737272"/>
<path opacity="0.1" d="M467.455 95.7661L497.873 138.784L444.814 140.369L439.119 99.9418L467.455 95.7661Z" fill="black"/>
<path d="M317.446 184.896C313.543 173.637 304.57 166.525 297.405 169.01C290.24 171.495 287.597 182.635 291.503 193.898C293.002 198.418 295.561 202.514 298.967 205.842L316.107 253.339L338.224 244.821L318.979 198.902C319.594 194.178 319.068 189.375 317.446 184.896Z" fill="#FFBD3E" fill-opacity="0.49"/>
<path d="M523.347 162.977L523.306 206.817L519.227 223.011L510.837 256.317L504.729 286.95L500.179 309.772L498.556 317.923C497.331 318.742 496.114 319.524 494.897 320.278H388.921C382.9 316.663 379.531 313.851 379.531 313.851C379.531 313.851 381.198 312.286 383.103 309.772C386.32 305.527 390.211 298.571 387.827 291.927C387.327 290.536 387.197 288.841 387.349 286.95C388.32 274.474 401.405 253.375 401.405 253.375L398.695 222.061L397.507 208.339L405.884 141.429L433.192 125.555L437.906 125.099L484.442 122.584L503.677 123.693L504.553 123.932L523.347 162.977Z" fill="#EF8354"/>
<path d="M525.414 320.278H502.229L501.208 309.773L501.186 309.562L507.75 309.113L524.827 307.947L525.124 314.236L525.356 319.061L525.414 320.278Z" fill="#737272"/>
<path d="M531.121 173.577L540.861 230.72L532.913 286.95L531.674 295.702L529.486 311.156L528.812 315.909L528.834 316.424L529 320.278H501.469L500.454 309.772L500.367 308.831L498.295 287.312L498.259 286.95L493.861 241.319L502.483 208.339L503.121 205.912V205.905L506.872 149.435L503.966 123.773L503.937 123.534C503.995 123.57 504.046 123.606 504.104 123.642C504.256 123.737 504.408 123.831 504.553 123.932C521.478 134.67 531.564 153.507 531.121 173.577Z" fill="#EF8354"/>
<path d="M415.748 152.379L405.16 141.428C405.16 141.428 382.496 151.646 381.366 157.314C380.237 162.983 340.22 246.24 340.22 246.24L322.81 199.741L300.148 214.872C300.148 214.872 318.332 287.063 335.338 290.453C352.344 293.842 409.339 205.007 409.339 205.007L415.748 152.379Z" fill="#EF8354"/>
<path d="M845.64 286.447H21.1602C9.49024 286.447 0 295.947 0 307.617C0 319.287 9.49023 328.777 21.1602 328.777H845.64C857.31 328.777 866.81 319.288 866.81 307.617C866.81 295.947 857.31 286.447 845.64 286.447Z" fill="white"/>
<path d="M518.522 221.94L516.919 296.742C516.764 303.983 510.85 309.772 503.607 309.772H366.004C358.933 309.772 353.095 304.244 352.709 297.184L348.619 222.381C348.202 214.753 354.275 208.339 361.915 208.339H505.21C512.675 208.339 518.682 214.476 518.522 221.94Z" fill="#BFC0C0"/>
<path d="M296.385 99.3314C314.567 99.3314 329.307 84.5918 329.307 66.4096C329.307 48.2274 314.567 33.4878 296.385 33.4878C278.202 33.4878 263.463 48.2274 263.463 66.4096C263.463 84.5918 278.202 99.3314 296.385 99.3314Z" fill="#FFBD3E" fill-opacity="0.49"/>
<path d="M241.321 152.551L244.944 191.675L269.577 290.935L248.296 298.394L212.34 190.226L207.374 146.754L241.321 152.551Z" fill="#D69366" fill-opacity="0.81"/>
<path d="M231.522 221.94L229.919 296.742C229.764 303.983 223.85 309.772 216.607 309.772H79.0043C71.9328 309.772 66.0947 304.244 65.7087 297.184L61.6194 222.381C61.2024 214.753 67.2754 208.339 74.9149 208.339H218.21C225.675 208.339 231.682 214.476 231.522 221.94Z" fill="#4F5D75"/>
<path d="M273.5 310.278C287.859 310.278 299.5 305.129 299.5 298.778C299.5 292.427 287.859 287.278 273.5 287.278C259.141 287.278 247.5 292.427 247.5 298.778C247.5 305.129 259.141 310.278 273.5 310.278Z" fill="#D69366"/>
<path d="M190.242 158.532L205.095 79.3739C205.095 79.3739 246.393 73.5777 247.842 87.3436C249.291 101.11 246.806 168.386 246.806 168.386L190.242 158.532Z" fill="black"/>
<path d="M283.095 71.5859C283.095 71.5859 303.461 64.3176 312.051 60.4068C320.642 56.4961 337.708 83.7732 338.088 69.3673C338.468 54.9613 332.57 48.9201 332.57 48.9201C332.57 48.9201 331.098 17.405 299.347 21.3451C299.347 21.3451 306.331 5.5778 283.406 3.13967C260.482 0.701545 224.817 56.0606 228.011 64.3338C231.205 72.6069 235.034 79.4466 225.972 88.2924C216.91 97.1382 199.942 147.062 212.852 160.496C225.762 173.93 226.61 179.759 217.764 188.117C208.918 196.474 188.01 214.647 210.617 217.802C233.224 220.957 208.549 218.6 225.402 203.776C242.256 188.951 266.85 189.556 257.667 165.771C248.484 141.986 264.438 107.902 262.442 102.731C260.446 97.5605 266.914 64.7262 266.914 64.7262C266.914 64.7262 281.969 62.5143 283.095 71.5859Z" fill="black"/>
<path d="M451.191 111.337C470.984 111.337 487.029 95.2916 487.029 75.4989C487.029 55.7062 470.984 39.6611 451.191 39.6611C431.398 39.6611 415.353 55.7062 415.353 75.4989C415.353 95.2916 431.398 111.337 451.191 111.337Z" fill="#FCA56B" fill-opacity="0.49"/>
<path d="M454.051 27.3174C453.014 27.9228 451.625 27.0069 451.293 25.8531C450.96 24.6993 451.347 23.4743 451.732 22.3366L453.665 16.6095C455.037 12.5476 456.492 8.34387 459.462 5.25229C463.945 0.586053 471.069 -0.601016 477.482 0.258974C485.718 1.36337 493.844 5.82302 497.674 13.1976C501.503 20.5723 499.873 30.8625 492.953 35.4635C502.815 46.7669 506.253 59.3641 505.71 74.355C505.167 89.346 488.831 103.143 478.177 113.703C475.798 112.261 473.635 105.502 474.944 103.047C476.252 100.592 474.377 97.747 475.998 95.4854C477.618 93.2238 478.974 96.8249 477.335 94.5762C476.302 93.1572 480.336 89.8926 478.8 89.0433C471.368 84.9354 468.896 75.6722 464.229 68.5787C458.599 60.0226 448.963 54.2283 438.766 53.267C433.149 52.7375 427.216 53.6966 422.612 56.9576C418.008 60.2187 415.027 66.0462 416.095 71.5863C413.33 68.7787 411.953 64.6643 412.472 60.7581C412.992 56.8518 415.395 53.2397 418.797 51.2518C416.728 44.4104 418.501 36.5407 423.303 31.2466C428.104 25.9525 447.583 26.8542 454.593 28.2475L454.051 27.3174Z" fill="white"/>
<path d="M455.14 53.4746C464.425 54.4769 471.129 62.5197 476.79 69.9471C480.052 74.2282 483.47 78.9559 483.388 84.3379C483.305 89.7793 479.667 94.4465 477.929 99.6033C475.087 108.032 477.856 118.061 484.622 123.836C477.937 125.105 470.71 120.092 469.556 113.387C468.213 105.581 474.13 98.0469 473.43 90.1572C472.812 83.2062 467.335 77.8566 462.678 72.6594C458.021 67.4622 453.647 60.5657 455.79 53.9244L455.14 53.4746Z" fill="white"/>
<path d="M593.947 290.977C584.751 296.208 579.995 305.193 583.325 311.046C586.655 316.898 596.808 317.401 606.007 312.167C609.711 310.126 612.872 307.229 615.226 303.716L653.913 281.06L642.894 263.132L605.925 287.37C601.702 287.599 597.595 288.836 593.947 290.977Z" fill="#D69366"/>
<path d="M724.935 124.841C723.779 124.383 713.634 120.541 704.373 125.613C693.735 131.439 692.092 144.739 691.516 149.404C690.184 160.18 694.106 162.596 694.934 173.505C696.483 193.915 700.568 170.631 694.045 179.947C691.787 183.172 668.728 233.146 656.01 242.934C631.277 261.971 615.571 275.378 615.571 275.378L633.501 294.856C633.501 294.856 661.835 287.306 686.878 271.045C712.566 254.365 725.41 246.026 735.347 229.71C736.203 228.305 756.678 193.534 745.682 155.086C743.174 146.316 738.578 130.247 724.935 124.841Z" fill="black"/>
<path d="M817.522 221.94L815.919 296.742C815.764 303.983 809.85 309.772 802.607 309.772H665.004C657.933 309.772 652.095 304.244 651.709 297.184L647.619 222.381C647.202 214.753 653.275 208.339 660.915 208.339H804.21C811.675 208.339 817.682 214.476 817.522 221.94Z" fill="black"/>
</g>
<defs>
<clipPath id="clip0_174_4197">
<rect width="866.81" height="443.068" fill="white"/>
</clipPath>
</defs>
</svg>
