<svg width="20" height="20" viewBox="0 0 20 20" fill="none" xmlns="http://www.w3.org/2000/svg">
<path fill-rule="evenodd" clip-rule="evenodd" d="M10 0.25C4.61522 0.25 0.25 4.61522 0.25 10C0.25 15.3848 4.61522 19.75 10 19.75C15.3848 19.75 19.75 15.3848 19.75 10C19.7443 4.61758 15.3824 0.255684 10 0.25ZM10 18.25C5.44365 18.25 1.75 14.5563 1.75 10C1.75 5.44365 5.44365 1.75 10 1.75C14.5563 1.75 18.25 5.44365 18.25 10C18.2448 14.5542 14.5542 18.2448 10 18.25ZM14.2806 10.9694C14.5737 11.2624 14.5737 11.7376 14.2806 12.0306C13.9876 12.3237 13.5124 12.3237 13.2194 12.0306L10 8.81031L6.78063 12.0306C6.48757 12.3237 6.01243 12.3237 5.71938 12.0306C5.42632 11.7376 5.42632 11.2624 5.71938 10.9694L9.46937 7.21937C9.61005 7.07854 9.80094 6.99941 10 6.99941C10.1991 6.99941 10.3899 7.07854 10.5306 7.21937L14.2806 10.9694Z" fill="white"/>
</svg>
