<svg width="20" height="20" viewBox="0 0 20 20" fill="none" xmlns="http://www.w3.org/2000/svg">
<path fill-rule="evenodd" clip-rule="evenodd" d="M19.6487 17.8751C18.2209 15.4067 16.0206 13.6367 13.4528 12.7976C16.0635 11.2434 17.3141 8.13649 16.5082 5.20701C15.7022 2.27752 13.0383 0.247559 9.99999 0.247559C6.96166 0.247559 4.29778 2.27752 3.49181 5.20701C2.68584 8.13649 3.93644 11.2434 6.54718 12.7976C3.97937 13.6357 1.77906 15.4057 0.351245 17.8751C0.208698 18.1075 0.203522 18.399 0.337726 18.6364C0.47193 18.8737 0.72437 19.0195 0.997019 19.0172C1.26967 19.0148 1.51957 18.8647 1.64968 18.6251C3.41593 15.5726 6.53781 13.7501 9.99999 13.7501C13.4622 13.7501 16.5841 15.5726 18.3503 18.6251C18.4804 18.8647 18.7303 19.0148 19.003 19.0172C19.2756 19.0195 19.5281 18.8737 19.6623 18.6364C19.7965 18.399 19.7913 18.1075 19.6487 17.8751ZM4.74999 7.00011C4.74999 4.10061 7.1005 1.75011 9.99999 1.75011C12.8995 1.75011 15.25 4.10061 15.25 7.00011C15.25 9.8996 12.8995 12.2501 9.99999 12.2501C7.10178 12.247 4.7531 9.89832 4.74999 7.00011Z" fill="white"/>
</svg>
